<?xml version="1.0" encoding="UTF-8"?>
<svg xmlns="http://www.w3.org/2000/svg" xmlns:xlink="http://www.w3.org/1999/xlink" width="504pt" height="504pt" viewBox="0 0 504 504" version="1.1">
<defs>
<clipPath id="clip1">
  <path d="M 55.207031 5.480469 L 498.519531 5.480469 L 498.519531 450.179688 L 55.207031 450.179688 Z M 55.207031 5.480469 "/>
</clipPath>
<clipPath id="clip2">
  <path d="M 55.207031 331 L 498.519531 331 L 498.519531 332 L 55.207031 332 Z M 55.207031 331 "/>
</clipPath>
<clipPath id="clip3">
  <path d="M 55.207031 185 L 498.519531 185 L 498.519531 187 L 55.207031 187 Z M 55.207031 185 "/>
</clipPath>
<clipPath id="clip4">
  <path d="M 55.207031 40 L 498.519531 40 L 498.519531 41 L 55.207031 41 Z M 55.207031 40 "/>
</clipPath>
<clipPath id="clip5">
  <path d="M 73 5.480469 L 75 5.480469 L 75 450.179688 L 73 450.179688 Z M 73 5.480469 "/>
</clipPath>
<clipPath id="clip6">
  <path d="M 176 5.480469 L 178 5.480469 L 178 450.179688 L 176 450.179688 Z M 176 5.480469 "/>
</clipPath>
<clipPath id="clip7">
  <path d="M 279 5.480469 L 281 5.480469 L 281 450.179688 L 279 450.179688 Z M 279 5.480469 "/>
</clipPath>
<clipPath id="clip8">
  <path d="M 382 5.480469 L 384 5.480469 L 384 450.179688 L 382 450.179688 Z M 382 5.480469 "/>
</clipPath>
<clipPath id="clip9">
  <path d="M 485 5.480469 L 487 5.480469 L 487 450.179688 L 485 450.179688 Z M 485 5.480469 "/>
</clipPath>
<clipPath id="clip10">
  <path d="M 55.207031 403 L 498.519531 403 L 498.519531 405 L 55.207031 405 Z M 55.207031 403 "/>
</clipPath>
<clipPath id="clip11">
  <path d="M 55.207031 258 L 498.519531 258 L 498.519531 260 L 55.207031 260 Z M 55.207031 258 "/>
</clipPath>
<clipPath id="clip12">
  <path d="M 55.207031 112 L 498.519531 112 L 498.519531 114 L 55.207031 114 Z M 55.207031 112 "/>
</clipPath>
<clipPath id="clip13">
  <path d="M 125 5.480469 L 127 5.480469 L 127 450.179688 L 125 450.179688 Z M 125 5.480469 "/>
</clipPath>
<clipPath id="clip14">
  <path d="M 228 5.480469 L 230 5.480469 L 230 450.179688 L 228 450.179688 Z M 228 5.480469 "/>
</clipPath>
<clipPath id="clip15">
  <path d="M 331 5.480469 L 333 5.480469 L 333 450.179688 L 331 450.179688 Z M 331 5.480469 "/>
</clipPath>
<clipPath id="clip16">
  <path d="M 434 5.480469 L 436 5.480469 L 436 450.179688 L 434 450.179688 Z M 434 5.480469 "/>
</clipPath>
</defs>
<g id="surface9">
<rect x="0" y="0" width="504" height="504" style="fill:rgb(0%,16.862745%,21.176471%);fill-opacity:1;stroke:none;"/>
<rect x="0" y="0" width="504" height="504" style="fill:rgb(0%,16.862745%,21.176471%);fill-opacity:1;stroke:none;"/>
<g clip-path="url(#clip1)" clip-rule="nonzero">
<path style=" stroke:none;fill-rule:nonzero;fill:rgb(9.411765%,22.352941%,25.882353%);fill-opacity:1;" d="M 55.207031 450.179688 L 498.519531 450.179688 L 498.519531 5.480469 L 55.207031 5.480469 Z M 55.207031 450.179688 "/>
</g>
<g clip-path="url(#clip2)" clip-rule="nonzero">
<path style="fill:none;stroke-width:0.533489;stroke-linecap:butt;stroke-linejoin:round;stroke:rgb(0%,16.862745%,21.176471%);stroke-opacity:1;stroke-miterlimit:10;" d="M 55.207031 331.695312 L 498.519531 331.695312 "/>
</g>
<g clip-path="url(#clip3)" clip-rule="nonzero">
<path style="fill:none;stroke-width:0.533489;stroke-linecap:butt;stroke-linejoin:round;stroke:rgb(0%,16.862745%,21.176471%);stroke-opacity:1;stroke-miterlimit:10;" d="M 55.207031 186.183594 L 498.519531 186.183594 "/>
</g>
<g clip-path="url(#clip4)" clip-rule="nonzero">
<path style="fill:none;stroke-width:0.533489;stroke-linecap:butt;stroke-linejoin:round;stroke:rgb(0%,16.862745%,21.176471%);stroke-opacity:1;stroke-miterlimit:10;" d="M 55.207031 40.675781 L 498.519531 40.675781 "/>
</g>
<g clip-path="url(#clip5)" clip-rule="nonzero">
<path style="fill:none;stroke-width:0.533489;stroke-linecap:butt;stroke-linejoin:round;stroke:rgb(0%,16.862745%,21.176471%);stroke-opacity:1;stroke-miterlimit:10;" d="M 74.015625 450.179688 L 74.015625 5.480469 "/>
</g>
<g clip-path="url(#clip6)" clip-rule="nonzero">
<path style="fill:none;stroke-width:0.533489;stroke-linecap:butt;stroke-linejoin:round;stroke:rgb(0%,16.862745%,21.176471%);stroke-opacity:1;stroke-miterlimit:10;" d="M 177.0625 450.179688 L 177.0625 5.480469 "/>
</g>
<g clip-path="url(#clip7)" clip-rule="nonzero">
<path style="fill:none;stroke-width:0.533489;stroke-linecap:butt;stroke-linejoin:round;stroke:rgb(0%,16.862745%,21.176471%);stroke-opacity:1;stroke-miterlimit:10;" d="M 280.109375 450.179688 L 280.109375 5.480469 "/>
</g>
<g clip-path="url(#clip8)" clip-rule="nonzero">
<path style="fill:none;stroke-width:0.533489;stroke-linecap:butt;stroke-linejoin:round;stroke:rgb(0%,16.862745%,21.176471%);stroke-opacity:1;stroke-miterlimit:10;" d="M 383.15625 450.179688 L 383.15625 5.480469 "/>
</g>
<g clip-path="url(#clip9)" clip-rule="nonzero">
<path style="fill:none;stroke-width:0.533489;stroke-linecap:butt;stroke-linejoin:round;stroke:rgb(0%,16.862745%,21.176471%);stroke-opacity:1;stroke-miterlimit:10;" d="M 486.203125 450.179688 L 486.203125 5.480469 "/>
</g>
<g clip-path="url(#clip10)" clip-rule="nonzero">
<path style="fill:none;stroke-width:1.066978;stroke-linecap:butt;stroke-linejoin:round;stroke:rgb(0%,16.862745%,21.176471%);stroke-opacity:1;stroke-miterlimit:10;" d="M 55.207031 404.449219 L 498.519531 404.449219 "/>
</g>
<g clip-path="url(#clip11)" clip-rule="nonzero">
<path style="fill:none;stroke-width:1.066978;stroke-linecap:butt;stroke-linejoin:round;stroke:rgb(0%,16.862745%,21.176471%);stroke-opacity:1;stroke-miterlimit:10;" d="M 55.207031 258.9375 L 498.519531 258.9375 "/>
</g>
<g clip-path="url(#clip12)" clip-rule="nonzero">
<path style="fill:none;stroke-width:1.066978;stroke-linecap:butt;stroke-linejoin:round;stroke:rgb(0%,16.862745%,21.176471%);stroke-opacity:1;stroke-miterlimit:10;" d="M 55.207031 113.429688 L 498.519531 113.429688 "/>
</g>
<g clip-path="url(#clip13)" clip-rule="nonzero">
<path style="fill:none;stroke-width:1.066978;stroke-linecap:butt;stroke-linejoin:round;stroke:rgb(0%,16.862745%,21.176471%);stroke-opacity:1;stroke-miterlimit:10;" d="M 125.539062 450.179688 L 125.539062 5.480469 "/>
</g>
<g clip-path="url(#clip14)" clip-rule="nonzero">
<path style="fill:none;stroke-width:1.066978;stroke-linecap:butt;stroke-linejoin:round;stroke:rgb(0%,16.862745%,21.176471%);stroke-opacity:1;stroke-miterlimit:10;" d="M 228.585938 450.179688 L 228.585938 5.480469 "/>
</g>
<g clip-path="url(#clip15)" clip-rule="nonzero">
<path style="fill:none;stroke-width:1.066978;stroke-linecap:butt;stroke-linejoin:round;stroke:rgb(0%,16.862745%,21.176471%);stroke-opacity:1;stroke-miterlimit:10;" d="M 331.632812 450.179688 L 331.632812 5.480469 "/>
</g>
<g clip-path="url(#clip16)" clip-rule="nonzero">
<path style="fill:none;stroke-width:1.066978;stroke-linecap:butt;stroke-linejoin:round;stroke:rgb(0%,16.862745%,21.176471%);stroke-opacity:1;stroke-miterlimit:10;" d="M 434.679688 450.179688 L 434.679688 5.480469 "/>
</g>
<path style="fill-rule:nonzero;fill:rgb(99.215686%,96.470588%,89.019608%);fill-opacity:1;stroke-width:0.708661;stroke-linecap:round;stroke-linejoin:round;stroke:rgb(99.215686%,96.470588%,89.019608%);stroke-opacity:1;stroke-miterlimit:10;" d="M 194.050781 244.386719 C 194.050781 250.550781 184.808594 250.550781 184.808594 244.386719 C 184.808594 238.226562 194.050781 238.226562 194.050781 244.386719 "/>
<path style="fill-rule:nonzero;fill:rgb(99.215686%,96.470588%,89.019608%);fill-opacity:1;stroke-width:0.708661;stroke-linecap:round;stroke-linejoin:round;stroke:rgb(99.215686%,96.470588%,89.019608%);stroke-opacity:1;stroke-miterlimit:10;" d="M 220.328125 244.386719 C 220.328125 250.550781 211.082031 250.550781 211.082031 244.386719 C 211.082031 238.226562 220.328125 238.226562 220.328125 244.386719 "/>
<path style="fill-rule:nonzero;fill:rgb(99.215686%,96.470588%,89.019608%);fill-opacity:1;stroke-width:0.708661;stroke-linecap:round;stroke-linejoin:round;stroke:rgb(99.215686%,96.470588%,89.019608%);stroke-opacity:1;stroke-miterlimit:10;" d="M 163.136719 218.195312 C 163.136719 224.359375 153.894531 224.359375 153.894531 218.195312 C 153.894531 212.035156 163.136719 212.035156 163.136719 218.195312 "/>
<path style="fill-rule:nonzero;fill:rgb(99.215686%,96.470588%,89.019608%);fill-opacity:1;stroke-width:0.708661;stroke-linecap:round;stroke-linejoin:round;stroke:rgb(99.215686%,96.470588%,89.019608%);stroke-opacity:1;stroke-miterlimit:10;" d="M 255.363281 238.566406 C 255.363281 244.730469 246.117188 244.730469 246.117188 238.566406 C 246.117188 232.40625 255.363281 232.40625 255.363281 238.566406 "/>
<path style="fill-rule:nonzero;fill:rgb(99.215686%,96.470588%,89.019608%);fill-opacity:1;stroke-width:0.708661;stroke-linecap:round;stroke-linejoin:round;stroke:rgb(99.215686%,96.470588%,89.019608%);stroke-opacity:1;stroke-miterlimit:10;" d="M 278.550781 277.855469 C 278.550781 284.019531 269.304688 284.019531 269.304688 277.855469 C 269.304688 271.691406 278.550781 271.691406 278.550781 277.855469 "/>
<path style="fill-rule:nonzero;fill:rgb(99.215686%,96.470588%,89.019608%);fill-opacity:1;stroke-width:0.708661;stroke-linecap:round;stroke-linejoin:round;stroke:rgb(99.215686%,96.470588%,89.019608%);stroke-opacity:1;stroke-miterlimit:10;" d="M 280.609375 286.585938 C 280.609375 292.75 271.367188 292.75 271.367188 286.585938 C 271.367188 280.421875 280.609375 280.421875 280.609375 286.585938 "/>
<path style="fill-rule:nonzero;fill:rgb(99.215686%,96.470588%,89.019608%);fill-opacity:1;stroke-width:0.708661;stroke-linecap:round;stroke-linejoin:round;stroke:rgb(99.215686%,96.470588%,89.019608%);stroke-opacity:1;stroke-miterlimit:10;" d="M 291.945312 341.878906 C 291.945312 348.042969 282.699219 348.042969 282.699219 341.878906 C 282.699219 335.714844 291.945312 335.714844 291.945312 341.878906 "/>
<path style="fill-rule:nonzero;fill:rgb(99.215686%,96.470588%,89.019608%);fill-opacity:1;stroke-width:0.708661;stroke-linecap:round;stroke-linejoin:round;stroke:rgb(99.215686%,96.470588%,89.019608%);stroke-opacity:1;stroke-miterlimit:10;" d="M 252.789062 194.914062 C 252.789062 201.078125 243.542969 201.078125 243.542969 194.914062 C 243.542969 188.753906 252.789062 188.753906 252.789062 194.914062 "/>
<path style="fill-rule:nonzero;fill:rgb(99.215686%,96.470588%,89.019608%);fill-opacity:1;stroke-width:0.708661;stroke-linecap:round;stroke-linejoin:round;stroke:rgb(99.215686%,96.470588%,89.019608%);stroke-opacity:1;stroke-miterlimit:10;" d="M 248.664062 218.195312 C 248.664062 224.359375 239.421875 224.359375 239.421875 218.195312 C 239.421875 212.035156 248.664062 212.035156 248.664062 218.195312 "/>
<path style="fill-rule:nonzero;fill:rgb(99.215686%,96.470588%,89.019608%);fill-opacity:1;stroke-width:0.708661;stroke-linecap:round;stroke-linejoin:round;stroke:rgb(99.215686%,96.470588%,89.019608%);stroke-opacity:1;stroke-miterlimit:10;" d="M 278.550781 270.578125 C 278.550781 276.742188 269.304688 276.742188 269.304688 270.578125 C 269.304688 264.417969 278.550781 264.417969 278.550781 270.578125 "/>
<path style="fill-rule:nonzero;fill:rgb(99.215686%,96.470588%,89.019608%);fill-opacity:1;stroke-width:0.708661;stroke-linecap:round;stroke-linejoin:round;stroke:rgb(99.215686%,96.470588%,89.019608%);stroke-opacity:1;stroke-miterlimit:10;" d="M 278.550781 290.949219 C 278.550781 297.113281 269.304688 297.113281 269.304688 290.949219 C 269.304688 284.789062 278.550781 284.789062 278.550781 290.949219 "/>
<path style="fill-rule:nonzero;fill:rgb(99.215686%,96.470588%,89.019608%);fill-opacity:1;stroke-width:0.708661;stroke-linecap:round;stroke-linejoin:round;stroke:rgb(99.215686%,96.470588%,89.019608%);stroke-opacity:1;stroke-miterlimit:10;" d="M 343.46875 311.324219 C 343.46875 317.484375 334.222656 317.484375 334.222656 311.324219 C 334.222656 305.160156 343.46875 305.160156 343.46875 311.324219 "/>
<path style="fill-rule:nonzero;fill:rgb(99.215686%,96.470588%,89.019608%);fill-opacity:1;stroke-width:0.708661;stroke-linecap:round;stroke-linejoin:round;stroke:rgb(99.215686%,96.470588%,89.019608%);stroke-opacity:1;stroke-miterlimit:10;" d="M 308.433594 298.226562 C 308.433594 304.390625 299.1875 304.390625 299.1875 298.226562 C 299.1875 292.0625 308.433594 292.0625 308.433594 298.226562 "/>
<path style="fill-rule:nonzero;fill:rgb(99.215686%,96.470588%,89.019608%);fill-opacity:1;stroke-width:0.708661;stroke-linecap:round;stroke-linejoin:round;stroke:rgb(99.215686%,96.470588%,89.019608%);stroke-opacity:1;stroke-miterlimit:10;" d="M 313.585938 328.785156 C 313.585938 334.945312 304.339844 334.945312 304.339844 328.785156 C 304.339844 322.621094 313.585938 322.621094 313.585938 328.785156 "/>
<path style="fill-rule:nonzero;fill:rgb(99.215686%,96.470588%,89.019608%);fill-opacity:1;stroke-width:0.708661;stroke-linecap:round;stroke-linejoin:round;stroke:rgb(99.215686%,96.470588%,89.019608%);stroke-opacity:1;stroke-miterlimit:10;" d="M 465.0625 398.628906 C 465.0625 404.789062 455.816406 404.789062 455.816406 398.628906 C 455.816406 392.464844 465.0625 392.464844 465.0625 398.628906 "/>
<path style="fill-rule:nonzero;fill:rgb(99.215686%,96.470588%,89.019608%);fill-opacity:1;stroke-width:0.708661;stroke-linecap:round;stroke-linejoin:round;stroke:rgb(99.215686%,96.470588%,89.019608%);stroke-opacity:1;stroke-miterlimit:10;" d="M 482.992188 398.628906 C 482.992188 404.789062 473.746094 404.789062 473.746094 398.628906 C 473.746094 392.464844 482.992188 392.464844 482.992188 398.628906 "/>
<path style="fill-rule:nonzero;fill:rgb(99.215686%,96.470588%,89.019608%);fill-opacity:1;stroke-width:0.708661;stroke-linecap:round;stroke-linejoin:round;stroke:rgb(99.215686%,96.470588%,89.019608%);stroke-opacity:1;stroke-miterlimit:10;" d="M 474.851562 336.058594 C 474.851562 342.222656 465.605469 342.222656 465.605469 336.058594 C 465.605469 329.894531 474.851562 329.894531 474.851562 336.058594 "/>
<path style="fill-rule:nonzero;fill:rgb(99.215686%,96.470588%,89.019608%);fill-opacity:1;stroke-width:0.708661;stroke-linecap:round;stroke-linejoin:round;stroke:rgb(99.215686%,96.470588%,89.019608%);stroke-opacity:1;stroke-miterlimit:10;" d="M 150.773438 78.507812 C 150.773438 84.671875 141.527344 84.671875 141.527344 78.507812 C 141.527344 72.347656 150.773438 72.347656 150.773438 78.507812 "/>
<path style="fill-rule:nonzero;fill:rgb(99.215686%,96.470588%,89.019608%);fill-opacity:1;stroke-width:0.708661;stroke-linecap:round;stroke-linejoin:round;stroke:rgb(99.215686%,96.470588%,89.019608%);stroke-opacity:1;stroke-miterlimit:10;" d="M 90.488281 107.609375 C 90.488281 113.773438 81.246094 113.773438 81.246094 107.609375 C 81.246094 101.449219 90.488281 101.449219 90.488281 107.609375 "/>
<path style="fill-rule:nonzero;fill:rgb(99.215686%,96.470588%,89.019608%);fill-opacity:1;stroke-width:0.708661;stroke-linecap:round;stroke-linejoin:round;stroke:rgb(99.215686%,96.470588%,89.019608%);stroke-opacity:1;stroke-miterlimit:10;" d="M 113.160156 56.683594 C 113.160156 62.84375 103.914062 62.84375 103.914062 56.683594 C 103.914062 50.519531 113.160156 50.519531 113.160156 56.683594 "/>
<path style="fill-rule:nonzero;fill:rgb(99.215686%,96.470588%,89.019608%);fill-opacity:1;stroke-width:0.708661;stroke-linecap:round;stroke-linejoin:round;stroke:rgb(99.215686%,96.470588%,89.019608%);stroke-opacity:1;stroke-miterlimit:10;" d="M 178.078125 237.113281 C 178.078125 243.277344 168.835938 243.277344 168.835938 237.113281 C 168.835938 230.949219 178.078125 230.949219 178.078125 237.113281 "/>
<path style="fill-rule:nonzero;fill:rgb(99.215686%,96.470588%,89.019608%);fill-opacity:1;stroke-width:0.708661;stroke-linecap:round;stroke-linejoin:round;stroke:rgb(99.215686%,96.470588%,89.019608%);stroke-opacity:1;stroke-miterlimit:10;" d="M 286.792969 324.417969 C 286.792969 330.582031 277.546875 330.582031 277.546875 324.417969 C 277.546875 318.253906 286.792969 318.253906 286.792969 324.417969 "/>
<path style="fill-rule:nonzero;fill:rgb(99.215686%,96.470588%,89.019608%);fill-opacity:1;stroke-width:0.708661;stroke-linecap:round;stroke-linejoin:round;stroke:rgb(99.215686%,96.470588%,89.019608%);stroke-opacity:1;stroke-miterlimit:10;" d="M 278.035156 328.785156 C 278.035156 334.945312 268.789062 334.945312 268.789062 328.785156 C 268.789062 322.621094 278.035156 322.621094 278.035156 328.785156 "/>
<path style="fill-rule:nonzero;fill:rgb(99.215686%,96.470588%,89.019608%);fill-opacity:1;stroke-width:0.708661;stroke-linecap:round;stroke-linejoin:round;stroke:rgb(99.215686%,96.470588%,89.019608%);stroke-opacity:1;stroke-miterlimit:10;" d="M 319.765625 356.429688 C 319.765625 362.59375 310.523438 362.59375 310.523438 356.429688 C 310.523438 350.265625 319.765625 350.265625 319.765625 356.429688 "/>
<path style="fill-rule:nonzero;fill:rgb(99.215686%,96.470588%,89.019608%);fill-opacity:1;stroke-width:0.708661;stroke-linecap:round;stroke-linejoin:round;stroke:rgb(99.215686%,96.470588%,89.019608%);stroke-opacity:1;stroke-miterlimit:10;" d="M 320.28125 270.578125 C 320.28125 276.742188 311.039062 276.742188 311.039062 270.578125 C 311.039062 264.417969 320.28125 264.417969 320.28125 270.578125 "/>
<path style="fill-rule:nonzero;fill:rgb(99.215686%,96.470588%,89.019608%);fill-opacity:1;stroke-width:0.708661;stroke-linecap:round;stroke-linejoin:round;stroke:rgb(99.215686%,96.470588%,89.019608%);stroke-opacity:1;stroke-miterlimit:10;" d="M 123.464844 152.71875 C 123.464844 158.882812 114.21875 158.882812 114.21875 152.71875 C 114.21875 146.554688 123.464844 146.554688 123.464844 152.71875 "/>
<path style="fill-rule:nonzero;fill:rgb(99.215686%,96.470588%,89.019608%);fill-opacity:1;stroke-width:0.708661;stroke-linecap:round;stroke-linejoin:round;stroke:rgb(99.215686%,96.470588%,89.019608%);stroke-opacity:1;stroke-miterlimit:10;" d="M 144.589844 171.632812 C 144.589844 177.796875 135.34375 177.796875 135.34375 171.632812 C 135.34375 165.472656 144.589844 165.472656 144.589844 171.632812 "/>
<path style="fill-rule:nonzero;fill:rgb(99.215686%,96.470588%,89.019608%);fill-opacity:1;stroke-width:0.708661;stroke-linecap:round;stroke-linejoin:round;stroke:rgb(99.215686%,96.470588%,89.019608%);stroke-opacity:1;stroke-miterlimit:10;" d="M 79.980469 107.609375 C 79.980469 113.773438 70.734375 113.773438 70.734375 107.609375 C 70.734375 101.449219 79.980469 101.449219 79.980469 107.609375 "/>
<path style="fill-rule:nonzero;fill:rgb(99.215686%,96.470588%,89.019608%);fill-opacity:1;stroke-width:0.708661;stroke-linecap:round;stroke-linejoin:round;stroke:rgb(99.215686%,96.470588%,89.019608%);stroke-opacity:1;stroke-miterlimit:10;" d="M 250.726562 320.054688 C 250.726562 326.214844 241.480469 326.214844 241.480469 320.054688 C 241.480469 313.890625 250.726562 313.890625 250.726562 320.054688 "/>
<path style="fill-rule:nonzero;fill:rgb(99.215686%,96.470588%,89.019608%);fill-opacity:1;stroke-width:0.708661;stroke-linecap:round;stroke-linejoin:round;stroke:rgb(99.215686%,96.470588%,89.019608%);stroke-opacity:1;stroke-miterlimit:10;" d="M 209.507812 263.304688 C 209.507812 269.46875 200.261719 269.46875 200.261719 263.304688 C 200.261719 257.140625 209.507812 257.140625 209.507812 263.304688 "/>
<path style="fill-rule:nonzero;fill:rgb(99.215686%,96.470588%,89.019608%);fill-opacity:1;stroke-width:0.708661;stroke-linecap:round;stroke-linejoin:round;stroke:rgb(99.215686%,96.470588%,89.019608%);stroke-opacity:1;stroke-miterlimit:10;" d="M 291.945312 331.695312 C 291.945312 337.855469 282.699219 337.855469 282.699219 331.695312 C 282.699219 325.53125 291.945312 325.53125 291.945312 331.695312 "/>
<path style="fill-rule:nonzero;fill:rgb(99.215686%,96.470588%,89.019608%);fill-opacity:1;stroke-width:0.708661;stroke-linecap:round;stroke-linejoin:round;stroke:rgb(99.215686%,96.470588%,89.019608%);stroke-opacity:1;stroke-miterlimit:10;" d="M 210.539062 238.566406 C 210.539062 244.730469 201.292969 244.730469 201.292969 238.566406 C 201.292969 232.40625 210.539062 232.40625 210.539062 238.566406 "/>
<path style=" stroke:none;fill-rule:nonzero;fill:rgb(39.607843%,45.882353%,46.27451%);fill-opacity:0.4;" d="M 75.355469 25.691406 L 80.457031 37.457031 L 85.558594 48.632812 L 90.660156 59.183594 L 95.761719 69.070312 L 100.863281 78.273438 L 105.964844 86.796875 L 111.066406 94.671875 L 116.167969 101.976562 L 121.269531 108.878906 L 126.371094 115.804688 L 131.472656 122.847656 L 136.574219 129.996094 L 141.675781 137.203125 L 146.777344 144.417969 L 151.878906 151.574219 L 156.980469 158.605469 L 162.082031 165.464844 L 167.183594 172.101562 L 172.285156 178.476562 L 177.386719 184.515625 L 182.488281 190.039062 L 187.589844 194.847656 L 192.691406 198.785156 L 197.792969 201.847656 L 202.894531 204.289062 L 207.996094 206.597656 L 213.09375 209.410156 L 218.195312 213.3125 L 223.296875 218.042969 L 228.398438 223.023438 L 233.5 227.699219 L 238.601562 231.757812 L 243.703125 235.339844 L 248.804688 239.058594 L 253.90625 243.789062 L 259.007812 249.78125 L 264.109375 256.101562 L 269.210938 261.984375 L 274.3125 266.972656 L 279.414062 271.566406 L 284.515625 275.996094 L 289.617188 279.894531 L 294.71875 283.3125 L 299.820312 286.105469 L 304.921875 288.078125 L 310.023438 289.089844 L 315.125 289.003906 L 320.226562 288.144531 L 325.328125 287.277344 L 330.429688 286.582031 L 335.53125 286.144531 L 340.632812 286.015625 L 345.734375 286.210938 L 350.835938 286.738281 L 355.9375 287.601562 L 361.035156 288.789062 L 366.136719 290.289062 L 371.238281 292.082031 L 376.339844 294.148438 L 381.441406 296.46875 L 386.542969 299.015625 L 391.644531 301.757812 L 396.746094 304.667969 L 401.847656 307.707031 L 406.949219 310.835938 L 412.050781 314.003906 L 417.152344 317.160156 L 422.253906 320.238281 L 427.355469 323.160156 L 432.457031 325.851562 L 437.558594 328.21875 L 442.660156 330.167969 L 447.761719 331.601562 L 452.863281 332.445312 L 457.964844 332.636719 L 463.066406 332.140625 L 468.167969 330.957031 L 473.269531 329.101562 L 478.371094 326.609375 L 478.371094 429.964844 L 473.269531 425.996094 L 468.167969 422.464844 L 463.066406 419.417969 L 457.964844 416.875 L 452.863281 414.835938 L 447.761719 413.277344 L 442.660156 412.144531 L 437.558594 411.355469 L 432.457031 410.828125 L 427.355469 410.472656 L 422.253906 410.199219 L 417.152344 409.933594 L 412.050781 409.609375 L 406.949219 409.164062 L 401.847656 408.550781 L 396.746094 407.722656 L 391.644531 406.648438 L 386.542969 405.292969 L 381.441406 403.628906 L 376.339844 401.636719 L 371.238281 399.292969 L 366.136719 396.582031 L 361.035156 393.488281 L 355.9375 390 L 350.835938 386.109375 L 345.734375 381.8125 L 340.632812 377.113281 L 335.53125 372.023438 L 330.429688 366.566406 L 325.328125 360.800781 L 320.226562 354.820312 L 315.125 348.789062 L 310.023438 342.890625 L 304.921875 337.234375 L 299.820312 331.957031 L 294.71875 327.179688 L 289.617188 322.988281 L 284.515625 319.292969 L 279.414062 315.558594 L 274.3125 311.992188 L 269.210938 308.113281 L 264.109375 303.480469 L 259.007812 298.816406 L 253.90625 294.542969 L 248.804688 290.785156 L 243.703125 287.210938 L 238.601562 284.15625 L 233.5 281.945312 L 228.398438 280.429688 L 223.296875 279.003906 L 218.195312 276.820312 L 213.09375 273.292969 L 207.996094 269.378906 L 202.894531 265.496094 L 197.792969 261.851562 L 192.691406 258.511719 L 187.589844 255.292969 L 182.488281 251.773438 L 177.386719 247.359375 L 172.285156 241.46875 L 167.183594 234.660156 L 162.082031 227.40625 L 156.980469 219.839844 L 151.878906 212.078125 L 146.777344 204.226562 L 141.675781 196.394531 L 136.574219 188.683594 L 131.472656 181.199219 L 126.371094 174.074219 L 121.269531 167.449219 L 116.167969 161.488281 L 111.066406 156.136719 L 105.964844 151.488281 L 100.863281 147.621094 L 95.761719 144.574219 L 90.660156 142.351562 L 85.558594 140.933594 L 80.457031 140.285156 L 75.355469 140.375 Z M 75.355469 25.691406 "/>
<path style="fill:none;stroke-width:6.40187;stroke-linecap:butt;stroke-linejoin:round;stroke:rgb(16.470588%,63.137255%,59.607843%);stroke-opacity:1;stroke-miterlimit:10;" d="M 75.355469 83.035156 L 80.457031 88.871094 L 85.558594 94.78125 L 90.660156 100.765625 L 95.761719 106.820312 L 100.863281 112.949219 L 105.964844 119.144531 L 111.066406 125.40625 L 116.167969 131.730469 L 121.269531 138.164062 L 126.371094 144.9375 L 131.472656 152.023438 L 136.574219 159.339844 L 141.675781 166.800781 L 146.777344 174.320312 L 151.878906 181.824219 L 156.980469 189.222656 L 162.082031 196.4375 L 167.183594 203.382812 L 172.285156 209.972656 L 177.386719 215.9375 L 182.488281 220.90625 L 187.589844 225.070312 L 192.691406 228.648438 L 197.792969 231.851562 L 202.894531 234.890625 L 207.996094 237.988281 L 213.09375 241.351562 L 218.195312 245.066406 L 223.296875 248.523438 L 228.398438 251.726562 L 233.5 254.824219 L 238.601562 257.957031 L 243.703125 261.273438 L 248.804688 264.921875 L 253.90625 269.167969 L 259.007812 274.300781 L 264.109375 279.789062 L 269.210938 285.046875 L 274.3125 289.484375 L 279.414062 293.5625 L 284.515625 297.644531 L 289.617188 301.441406 L 294.71875 305.246094 L 299.820312 309.03125 L 304.921875 312.65625 L 310.023438 315.992188 L 315.125 318.898438 L 320.226562 321.480469 L 325.328125 324.039062 L 330.429688 326.574219 L 335.53125 329.085938 L 340.632812 331.5625 L 345.734375 334.011719 L 350.835938 336.425781 L 355.9375 338.800781 L 361.035156 341.140625 L 366.136719 343.4375 L 371.238281 345.6875 L 376.339844 347.894531 L 381.441406 350.046875 L 386.542969 352.152344 L 391.644531 354.203125 L 396.746094 356.195312 L 401.847656 358.128906 L 406.949219 360 L 412.050781 361.808594 L 417.152344 363.546875 L 422.253906 365.21875 L 427.355469 366.816406 L 432.457031 368.339844 L 437.558594 369.789062 L 442.660156 371.15625 L 447.761719 372.441406 L 452.863281 373.640625 L 457.964844 374.753906 L 463.066406 375.777344 L 468.167969 376.710938 L 473.269531 377.546875 L 478.371094 378.289062 "/>
<path style=" stroke:none;fill-rule:evenodd;fill:rgb(99.215686%,96.470588%,89.019608%);fill-opacity:1;" d="M 35.472656 412.269531 L 33.558594 412.269531 L 33.558594 399.023438 L 30.273438 400.496094 L 30.273438 398.691406 L 35.171875 396.550781 L 35.472656 396.550781 Z M 35.472656 412.269531 "/>
<path style=" stroke:none;fill-rule:evenodd;fill:rgb(99.215686%,96.470588%,89.019608%);fill-opacity:1;" d="M 49.027344 405.597656 L 49.019531 406.273438 L 48.988281 406.910156 L 48.9375 407.515625 L 48.867188 408.085938 L 48.777344 408.621094 L 48.664062 409.121094 L 48.535156 409.585938 L 48.382812 410.019531 L 48.210938 410.414062 L 48.019531 410.773438 L 47.804688 411.097656 L 47.570312 411.390625 L 47.308594 411.644531 L 47.027344 411.867188 L 46.722656 412.054688 L 46.394531 412.210938 L 46.042969 412.328125 L 45.667969 412.414062 L 45.269531 412.464844 L 44.851562 412.484375 L 44.441406 412.464844 L 44.054688 412.417969 L 43.6875 412.335938 L 43.34375 412.21875 L 43.019531 412.070312 L 42.71875 411.890625 L 42.4375 411.675781 L 42.179688 411.429688 L 41.941406 411.152344 L 41.722656 410.839844 L 41.527344 410.492188 L 41.351562 410.117188 L 41.195312 409.703125 L 41.058594 409.261719 L 40.941406 408.78125 L 40.84375 408.273438 L 40.765625 407.726562 L 40.707031 407.152344 L 40.667969 406.539062 L 40.648438 405.898438 L 40.648438 403.210938 L 40.660156 402.542969 L 40.691406 401.910156 L 40.742188 401.3125 L 40.8125 400.75 L 40.902344 400.21875 L 41.011719 399.726562 L 41.144531 399.269531 L 41.296875 398.84375 L 41.46875 398.453125 L 41.660156 398.097656 L 41.875 397.777344 L 42.113281 397.492188 L 42.375 397.238281 L 42.65625 397.019531 L 42.960938 396.835938 L 43.289062 396.683594 L 43.640625 396.5625 L 44.015625 396.480469 L 44.410156 396.429688 L 44.828125 396.414062 L 45.242188 396.429688 L 45.628906 396.476562 L 46 396.554688 L 46.34375 396.667969 L 46.667969 396.8125 L 46.96875 396.988281 L 47.25 397.195312 L 47.507812 397.4375 L 47.742188 397.710938 L 47.953125 398.011719 L 48.148438 398.351562 L 48.324219 398.71875 L 48.480469 399.121094 L 48.617188 399.554688 L 48.734375 400.023438 L 48.832031 400.527344 L 48.910156 401.058594 L 48.96875 401.625 L 49.007812 402.226562 L 49.027344 402.859375 Z M 47.128906 402.878906 L 47.121094 402.394531 L 47.105469 401.9375 L 47.078125 401.507812 L 47.039062 401.105469 L 46.992188 400.726562 L 46.929688 400.375 L 46.859375 400.046875 L 46.777344 399.746094 L 46.683594 399.472656 L 46.578125 399.226562 L 46.464844 399.003906 L 46.335938 398.800781 L 46.191406 398.625 L 46.035156 398.472656 L 45.867188 398.339844 L 45.6875 398.234375 L 45.492188 398.152344 L 45.285156 398.09375 L 45.0625 398.058594 L 44.828125 398.046875 L 44.601562 398.058594 L 44.386719 398.089844 L 44.183594 398.148438 L 43.992188 398.230469 L 43.8125 398.335938 L 43.648438 398.464844 L 43.496094 398.613281 L 43.355469 398.789062 L 43.226562 398.984375 L 43.109375 399.207031 L 43.003906 399.445312 L 42.910156 399.710938 L 42.828125 400 L 42.753906 400.3125 L 42.695312 400.648438 L 42.640625 401.011719 L 42.601562 401.394531 L 42.570312 401.800781 L 42.550781 402.230469 L 42.539062 402.6875 L 42.539062 405.910156 L 42.546875 406.390625 L 42.5625 406.847656 L 42.589844 407.28125 L 42.632812 407.6875 L 42.683594 408.074219 L 42.746094 408.433594 L 42.820312 408.765625 L 42.90625 409.078125 L 43 409.363281 L 43.109375 409.625 L 43.230469 409.859375 L 43.363281 410.070312 L 43.503906 410.253906 L 43.660156 410.417969 L 43.828125 410.550781 L 44.007812 410.664062 L 44.203125 410.75 L 44.40625 410.8125 L 44.621094 410.847656 L 44.851562 410.859375 L 45.074219 410.847656 L 45.289062 410.8125 L 45.492188 410.753906 L 45.679688 410.671875 L 45.855469 410.566406 L 46.023438 410.4375 L 46.175781 410.285156 L 46.3125 410.113281 L 46.441406 409.914062 L 46.558594 409.691406 L 46.664062 409.441406 L 46.757812 409.171875 L 46.839844 408.875 L 46.910156 408.554688 L 46.972656 408.210938 L 47.027344 407.839844 L 47.066406 407.445312 L 47.097656 407.027344 L 47.117188 406.582031 L 47.128906 406.113281 Z M 47.128906 402.878906 "/>
<path style=" stroke:none;fill-rule:evenodd;fill:rgb(99.215686%,96.470588%,89.019608%);fill-opacity:1;" d="M 38.554688 266.757812 L 29.8125 266.757812 L 29.8125 265.332031 L 34.269531 259.421875 L 34.464844 259.15625 L 34.648438 258.898438 L 34.820312 258.648438 L 34.976562 258.410156 L 35.121094 258.183594 L 35.257812 257.964844 L 35.378906 257.753906 L 35.484375 257.554688 L 35.582031 257.367188 L 35.664062 257.1875 L 35.742188 257.011719 L 35.808594 256.832031 L 35.867188 256.652344 L 35.917969 256.46875 L 35.964844 256.285156 L 36 256.097656 L 36.027344 255.90625 L 36.046875 255.71875 L 36.058594 255.523438 L 36.0625 255.328125 L 36.058594 255.085938 L 36.039062 254.851562 L 36.011719 254.625 L 35.96875 254.410156 L 35.917969 254.203125 L 35.855469 254.003906 L 35.777344 253.816406 L 35.691406 253.636719 L 35.59375 253.46875 L 35.484375 253.308594 L 35.363281 253.164062 L 35.234375 253.03125 L 35.101562 252.914062 L 34.960938 252.816406 L 34.8125 252.730469 L 34.65625 252.660156 L 34.492188 252.605469 L 34.320312 252.566406 L 34.144531 252.542969 L 33.957031 252.535156 L 33.722656 252.546875 L 33.503906 252.570312 L 33.289062 252.613281 L 33.089844 252.667969 L 32.898438 252.742188 L 32.71875 252.835938 L 32.550781 252.941406 L 32.394531 253.066406 L 32.246094 253.207031 L 32.109375 253.363281 L 31.988281 253.535156 L 31.878906 253.71875 L 31.78125 253.917969 L 31.699219 254.132812 L 31.625 254.363281 L 31.570312 254.605469 L 31.523438 254.863281 L 31.492188 255.136719 L 31.472656 255.425781 L 31.464844 255.726562 L 29.5625 255.726562 L 29.574219 255.304688 L 29.609375 254.898438 L 29.671875 254.507812 L 29.753906 254.132812 L 29.859375 253.773438 L 29.988281 253.433594 L 30.144531 253.109375 L 30.320312 252.800781 L 30.519531 252.511719 L 30.746094 252.234375 L 30.992188 251.984375 L 31.253906 251.757812 L 31.53125 251.558594 L 31.828125 251.382812 L 32.140625 251.238281 L 32.46875 251.117188 L 32.816406 251.023438 L 33.179688 250.957031 L 33.558594 250.917969 L 33.957031 250.902344 L 34.324219 250.914062 L 34.671875 250.949219 L 35.007812 251.007812 L 35.324219 251.089844 L 35.628906 251.191406 L 35.914062 251.316406 L 36.183594 251.46875 L 36.4375 251.640625 L 36.679688 251.835938 L 36.902344 252.054688 L 37.105469 252.289062 L 37.289062 252.539062 L 37.449219 252.804688 L 37.589844 253.085938 L 37.707031 253.382812 L 37.804688 253.695312 L 37.878906 254.019531 L 37.933594 254.363281 L 37.964844 254.722656 L 37.976562 255.09375 L 37.949219 255.566406 L 37.878906 256.054688 L 37.757812 256.5625 L 37.589844 257.085938 L 37.371094 257.625 L 37.105469 258.183594 L 36.789062 258.757812 L 36.429688 259.347656 L 36.015625 259.957031 L 35.558594 260.582031 L 32.078125 265.136719 L 38.554688 265.136719 Z M 38.554688 266.757812 "/>
<path style=" stroke:none;fill-rule:evenodd;fill:rgb(99.215686%,96.470588%,89.019608%);fill-opacity:1;" d="M 49.027344 260.089844 L 49.019531 260.761719 L 48.988281 261.402344 L 48.9375 262.007812 L 48.867188 262.578125 L 48.777344 263.113281 L 48.664062 263.613281 L 48.535156 264.078125 L 48.382812 264.507812 L 48.210938 264.90625 L 48.019531 265.265625 L 47.804688 265.589844 L 47.570312 265.882812 L 47.308594 266.136719 L 47.027344 266.359375 L 46.722656 266.546875 L 46.394531 266.699219 L 46.042969 266.820312 L 45.667969 266.90625 L 45.269531 266.957031 L 44.851562 266.972656 L 44.441406 266.957031 L 44.054688 266.910156 L 43.6875 266.828125 L 43.34375 266.710938 L 43.019531 266.5625 L 42.71875 266.382812 L 42.4375 266.167969 L 42.179688 265.921875 L 41.941406 265.644531 L 41.722656 265.332031 L 41.527344 264.984375 L 41.351562 264.605469 L 41.195312 264.195312 L 41.058594 263.75 L 40.941406 263.273438 L 40.84375 262.761719 L 40.765625 262.21875 L 40.707031 261.640625 L 40.667969 261.03125 L 40.648438 260.390625 L 40.648438 257.703125 L 40.660156 257.035156 L 40.691406 256.402344 L 40.742188 255.804688 L 40.8125 255.242188 L 40.902344 254.710938 L 41.011719 254.21875 L 41.144531 253.757812 L 41.296875 253.335938 L 41.46875 252.945312 L 41.660156 252.589844 L 41.875 252.269531 L 42.113281 251.984375 L 42.375 251.730469 L 42.65625 251.511719 L 42.960938 251.324219 L 43.289062 251.175781 L 43.640625 251.054688 L 44.015625 250.972656 L 44.410156 250.921875 L 44.828125 250.902344 L 45.242188 250.921875 L 45.628906 250.96875 L 46 251.046875 L 46.34375 251.160156 L 46.667969 251.304688 L 46.96875 251.480469 L 47.25 251.6875 L 47.507812 251.929688 L 47.742188 252.199219 L 47.953125 252.503906 L 48.148438 252.839844 L 48.324219 253.210938 L 48.480469 253.613281 L 48.617188 254.046875 L 48.734375 254.515625 L 48.832031 255.015625 L 48.910156 255.550781 L 48.96875 256.117188 L 49.007812 256.71875 L 49.027344 257.347656 Z M 47.128906 257.371094 L 47.121094 256.886719 L 47.105469 256.429688 L 47.078125 256 L 47.039062 255.59375 L 46.992188 255.21875 L 46.929688 254.863281 L 46.859375 254.539062 L 46.777344 254.238281 L 46.683594 253.964844 L 46.578125 253.71875 L 46.464844 253.492188 L 46.335938 253.292969 L 46.191406 253.117188 L 46.035156 252.960938 L 45.867188 252.832031 L 45.6875 252.726562 L 45.492188 252.644531 L 45.285156 252.585938 L 45.0625 252.546875 L 44.828125 252.535156 L 44.601562 252.546875 L 44.386719 252.582031 L 44.183594 252.640625 L 43.992188 252.722656 L 43.8125 252.828125 L 43.648438 252.953125 L 43.496094 253.105469 L 43.355469 253.28125 L 43.226562 253.476562 L 43.109375 253.695312 L 43.003906 253.9375 L 42.910156 254.203125 L 42.828125 254.492188 L 42.753906 254.804688 L 42.695312 255.140625 L 42.640625 255.5 L 42.601562 255.886719 L 42.570312 256.292969 L 42.550781 256.722656 L 42.539062 257.175781 L 42.539062 260.398438 L 42.546875 260.882812 L 42.5625 261.339844 L 42.589844 261.773438 L 42.632812 262.179688 L 42.683594 262.566406 L 42.746094 262.925781 L 42.820312 263.257812 L 42.90625 263.570312 L 43 263.855469 L 43.109375 264.117188 L 43.230469 264.351562 L 43.363281 264.5625 L 43.503906 264.746094 L 43.660156 264.90625 L 43.828125 265.042969 L 44.007812 265.15625 L 44.203125 265.242188 L 44.40625 265.304688 L 44.621094 265.339844 L 44.851562 265.351562 L 45.074219 265.339844 L 45.289062 265.304688 L 45.492188 265.246094 L 45.679688 265.164062 L 45.855469 265.058594 L 46.023438 264.929688 L 46.175781 264.777344 L 46.3125 264.601562 L 46.441406 264.402344 L 46.558594 264.179688 L 46.664062 263.933594 L 46.757812 263.664062 L 46.839844 263.367188 L 46.910156 263.046875 L 46.972656 262.703125 L 47.027344 262.332031 L 47.066406 261.9375 L 47.097656 261.515625 L 47.117188 261.074219 L 47.128906 260.605469 Z M 47.128906 257.371094 "/>
<path style=" stroke:none;fill-rule:evenodd;fill:rgb(99.215686%,96.470588%,89.019608%);fill-opacity:1;" d="M 32.238281 112.464844 L 33.453125 112.464844 L 33.679688 112.457031 L 33.898438 112.433594 L 34.105469 112.398438 L 34.304688 112.347656 L 34.488281 112.285156 L 34.664062 112.203125 L 34.828125 112.113281 L 34.980469 112.003906 L 35.125 111.882812 L 35.257812 111.746094 L 35.378906 111.59375 L 35.484375 111.433594 L 35.582031 111.265625 L 35.664062 111.085938 L 35.734375 110.894531 L 35.789062 110.691406 L 35.835938 110.480469 L 35.867188 110.257812 L 35.882812 110.023438 L 35.890625 109.777344 L 35.871094 109.257812 L 35.804688 108.789062 L 35.699219 108.375 L 35.550781 108.019531 L 35.359375 107.714844 L 35.125 107.46875 L 34.847656 107.277344 L 34.53125 107.136719 L 34.167969 107.054688 L 33.765625 107.027344 L 33.5625 107.035156 L 33.375 107.058594 L 33.191406 107.09375 L 33.019531 107.148438 L 32.855469 107.214844 L 32.699219 107.296875 L 32.550781 107.390625 L 32.414062 107.503906 L 32.285156 107.628906 L 32.164062 107.769531 L 32.054688 107.921875 L 31.953125 108.085938 L 31.867188 108.257812 L 31.792969 108.4375 L 31.726562 108.625 L 31.675781 108.824219 L 31.636719 109.035156 L 31.605469 109.25 L 31.589844 109.476562 L 31.582031 109.714844 L 29.691406 109.714844 L 29.703125 109.34375 L 29.738281 108.988281 L 29.796875 108.644531 L 29.875 108.316406 L 29.976562 108 L 30.101562 107.699219 L 30.25 107.410156 L 30.421875 107.132812 L 30.613281 106.871094 L 30.832031 106.621094 L 31.066406 106.386719 L 31.316406 106.179688 L 31.578125 105.996094 L 31.851562 105.835938 L 32.140625 105.703125 L 32.4375 105.589844 L 32.75 105.507812 L 33.074219 105.445312 L 33.414062 105.40625 L 33.765625 105.394531 L 34.125 105.40625 L 34.472656 105.441406 L 34.804688 105.5 L 35.121094 105.582031 L 35.421875 105.6875 L 35.707031 105.8125 L 35.976562 105.964844 L 36.230469 106.136719 L 36.472656 106.335938 L 36.695312 106.554688 L 36.902344 106.796875 L 37.085938 107.054688 L 37.25 107.332031 L 37.390625 107.628906 L 37.511719 107.945312 L 37.609375 108.28125 L 37.683594 108.640625 L 37.738281 109.011719 L 37.769531 109.40625 L 37.78125 109.820312 L 37.777344 110.035156 L 37.757812 110.25 L 37.730469 110.460938 L 37.691406 110.667969 L 37.640625 110.871094 L 37.578125 111.074219 L 37.503906 111.273438 L 37.417969 111.46875 L 37.320312 111.660156 L 37.210938 111.851562 L 37.097656 112.035156 L 36.976562 112.207031 L 36.847656 112.367188 L 36.710938 112.519531 L 36.566406 112.664062 L 36.417969 112.796875 L 36.261719 112.917969 L 36.097656 113.03125 L 35.929688 113.132812 L 35.75 113.226562 L 36.171875 113.410156 L 36.546875 113.632812 L 36.878906 113.898438 L 37.167969 114.203125 L 37.410156 114.550781 L 37.609375 114.9375 L 37.765625 115.363281 L 37.875 115.832031 L 37.941406 116.339844 L 37.964844 116.890625 L 37.953125 117.300781 L 37.917969 117.695312 L 37.859375 118.070312 L 37.777344 118.429688 L 37.671875 118.773438 L 37.542969 119.097656 L 37.390625 119.40625 L 37.214844 119.699219 L 37.015625 119.972656 L 36.792969 120.230469 L 36.554688 120.464844 L 36.300781 120.675781 L 36.03125 120.859375 L 35.75 121.019531 L 35.453125 121.15625 L 35.140625 121.269531 L 34.816406 121.355469 L 34.476562 121.417969 L 34.121094 121.453125 L 33.753906 121.464844 L 33.390625 121.453125 L 33.039062 121.417969 L 32.703125 121.359375 L 32.378906 121.277344 L 32.070312 121.171875 L 31.777344 121.042969 L 31.5 120.890625 L 31.234375 120.714844 L 30.984375 120.515625 L 30.746094 120.296875 L 30.527344 120.050781 L 30.335938 119.789062 L 30.164062 119.511719 L 30.015625 119.222656 L 29.890625 118.910156 L 29.789062 118.585938 L 29.710938 118.246094 L 29.652344 117.890625 L 29.617188 117.515625 L 29.605469 117.125 L 31.507812 117.125 L 31.515625 117.371094 L 31.53125 117.605469 L 31.5625 117.828125 L 31.605469 118.042969 L 31.660156 118.246094 L 31.726562 118.441406 L 31.804688 118.625 L 31.894531 118.796875 L 31.996094 118.960938 L 32.109375 119.113281 L 32.234375 119.253906 L 32.367188 119.375 L 32.511719 119.484375 L 32.660156 119.582031 L 32.820312 119.660156 L 32.988281 119.726562 L 33.167969 119.777344 L 33.355469 119.816406 L 33.550781 119.835938 L 33.753906 119.84375 L 33.960938 119.835938 L 34.160156 119.816406 L 34.351562 119.777344 L 34.535156 119.730469 L 34.707031 119.664062 L 34.871094 119.585938 L 35.027344 119.492188 L 35.171875 119.382812 L 35.3125 119.261719 L 35.441406 119.125 L 35.558594 118.972656 L 35.667969 118.804688 L 35.761719 118.625 L 35.84375 118.429688 L 35.914062 118.214844 L 35.972656 117.988281 L 36.015625 117.75 L 36.046875 117.492188 L 36.066406 117.21875 L 36.074219 116.933594 L 36.046875 116.390625 L 35.964844 115.90625 L 35.832031 115.480469 L 35.640625 115.109375 L 35.398438 114.796875 L 35.101562 114.542969 L 34.753906 114.34375 L 34.347656 114.199219 L 33.890625 114.113281 L 33.378906 114.085938 L 32.238281 114.085938 Z M 32.238281 112.464844 "/>
<path style=" stroke:none;fill-rule:evenodd;fill:rgb(99.215686%,96.470588%,89.019608%);fill-opacity:1;" d="M 49.027344 114.582031 L 49.019531 115.253906 L 48.988281 115.894531 L 48.9375 116.5 L 48.867188 117.070312 L 48.777344 117.605469 L 48.664062 118.105469 L 48.535156 118.570312 L 48.382812 119 L 48.210938 119.398438 L 48.019531 119.757812 L 47.804688 120.082031 L 47.570312 120.371094 L 47.308594 120.628906 L 47.027344 120.851562 L 46.722656 121.039062 L 46.394531 121.191406 L 46.042969 121.3125 L 45.667969 121.398438 L 45.269531 121.449219 L 44.851562 121.464844 L 44.441406 121.449219 L 44.054688 121.398438 L 43.6875 121.316406 L 43.34375 121.203125 L 43.019531 121.054688 L 42.71875 120.875 L 42.4375 120.660156 L 42.179688 120.414062 L 41.941406 120.132812 L 41.722656 119.824219 L 41.527344 119.476562 L 41.351562 119.097656 L 41.195312 118.6875 L 41.058594 118.242188 L 40.941406 117.765625 L 40.84375 117.253906 L 40.765625 116.710938 L 40.707031 116.132812 L 40.667969 115.523438 L 40.648438 114.882812 L 40.648438 112.195312 L 40.660156 111.527344 L 40.691406 110.894531 L 40.742188 110.296875 L 40.8125 109.734375 L 40.902344 109.203125 L 41.011719 108.710938 L 41.144531 108.25 L 41.296875 107.828125 L 41.46875 107.4375 L 41.660156 107.082031 L 41.875 106.761719 L 42.113281 106.476562 L 42.375 106.222656 L 42.65625 106.003906 L 42.960938 105.816406 L 43.289062 105.664062 L 43.640625 105.546875 L 44.015625 105.464844 L 44.410156 105.414062 L 44.828125 105.394531 L 45.242188 105.410156 L 45.628906 105.460938 L 46 105.539062 L 46.34375 105.652344 L 46.667969 105.796875 L 46.96875 105.972656 L 47.25 106.179688 L 47.507812 106.421875 L 47.742188 106.691406 L 47.953125 106.996094 L 48.148438 107.332031 L 48.324219 107.703125 L 48.480469 108.105469 L 48.617188 108.539062 L 48.734375 109.007812 L 48.832031 109.507812 L 48.910156 110.042969 L 48.96875 110.609375 L 49.007812 111.207031 L 49.027344 111.839844 Z M 47.128906 111.863281 L 47.121094 111.378906 L 47.105469 110.921875 L 47.078125 110.492188 L 47.039062 110.085938 L 46.992188 109.707031 L 46.929688 109.355469 L 46.859375 109.03125 L 46.777344 108.730469 L 46.683594 108.457031 L 46.578125 108.210938 L 46.464844 107.984375 L 46.335938 107.785156 L 46.191406 107.609375 L 46.035156 107.453125 L 45.867188 107.324219 L 45.6875 107.21875 L 45.492188 107.136719 L 45.285156 107.074219 L 45.0625 107.039062 L 44.828125 107.027344 L 44.601562 107.039062 L 44.386719 107.074219 L 44.183594 107.132812 L 43.992188 107.214844 L 43.8125 107.320312 L 43.648438 107.445312 L 43.496094 107.597656 L 43.355469 107.769531 L 43.226562 107.96875 L 43.109375 108.1875 L 43.003906 108.429688 L 42.910156 108.695312 L 42.828125 108.984375 L 42.753906 109.296875 L 42.695312 109.632812 L 42.640625 109.992188 L 42.601562 110.375 L 42.570312 110.785156 L 42.550781 111.214844 L 42.539062 111.667969 L 42.539062 114.890625 L 42.546875 115.375 L 42.5625 115.832031 L 42.589844 116.265625 L 42.632812 116.671875 L 42.683594 117.054688 L 42.746094 117.414062 L 42.820312 117.75 L 42.90625 118.0625 L 43 118.347656 L 43.109375 118.609375 L 43.230469 118.84375 L 43.363281 119.054688 L 43.503906 119.238281 L 43.660156 119.398438 L 43.828125 119.535156 L 44.007812 119.644531 L 44.203125 119.734375 L 44.40625 119.792969 L 44.621094 119.832031 L 44.851562 119.84375 L 45.074219 119.832031 L 45.289062 119.796875 L 45.492188 119.738281 L 45.679688 119.65625 L 45.855469 119.550781 L 46.023438 119.421875 L 46.175781 119.269531 L 46.3125 119.09375 L 46.441406 118.894531 L 46.558594 118.671875 L 46.664062 118.425781 L 46.757812 118.15625 L 46.839844 117.859375 L 46.910156 117.539062 L 46.972656 117.191406 L 47.027344 116.824219 L 47.066406 116.429688 L 47.097656 116.007812 L 47.117188 115.566406 L 47.128906 115.097656 Z M 47.128906 111.863281 "/>
<path style="fill:none;stroke-width:1.066978;stroke-linecap:butt;stroke-linejoin:round;stroke:rgb(99.215686%,96.470588%,89.019608%);stroke-opacity:1;stroke-miterlimit:10;" d="M 52.464844 404.449219 L 55.207031 404.449219 "/>
<path style="fill:none;stroke-width:1.066978;stroke-linecap:butt;stroke-linejoin:round;stroke:rgb(99.215686%,96.470588%,89.019608%);stroke-opacity:1;stroke-miterlimit:10;" d="M 52.464844 258.9375 L 55.207031 258.9375 "/>
<path style="fill:none;stroke-width:1.066978;stroke-linecap:butt;stroke-linejoin:round;stroke:rgb(99.215686%,96.470588%,89.019608%);stroke-opacity:1;stroke-miterlimit:10;" d="M 52.464844 113.429688 L 55.207031 113.429688 "/>
<path style="fill:none;stroke-width:1.066978;stroke-linecap:butt;stroke-linejoin:round;stroke:rgb(99.215686%,96.470588%,89.019608%);stroke-opacity:1;stroke-miterlimit:10;" d="M 125.539062 452.917969 L 125.539062 450.179688 "/>
<path style="fill:none;stroke-width:1.066978;stroke-linecap:butt;stroke-linejoin:round;stroke:rgb(99.215686%,96.470588%,89.019608%);stroke-opacity:1;stroke-miterlimit:10;" d="M 228.585938 452.917969 L 228.585938 450.179688 "/>
<path style="fill:none;stroke-width:1.066978;stroke-linecap:butt;stroke-linejoin:round;stroke:rgb(99.215686%,96.470588%,89.019608%);stroke-opacity:1;stroke-miterlimit:10;" d="M 331.632812 452.917969 L 331.632812 450.179688 "/>
<path style="fill:none;stroke-width:1.066978;stroke-linecap:butt;stroke-linejoin:round;stroke:rgb(99.215686%,96.470588%,89.019608%);stroke-opacity:1;stroke-miterlimit:10;" d="M 434.679688 452.917969 L 434.679688 450.179688 "/>
<path style=" stroke:none;fill-rule:evenodd;fill:rgb(99.215686%,96.470588%,89.019608%);fill-opacity:1;" d="M 130.109375 470.75 L 121.367188 470.75 L 121.367188 469.324219 L 125.824219 463.414062 L 126.019531 463.148438 L 126.203125 462.890625 L 126.375 462.640625 L 126.53125 462.402344 L 126.679688 462.175781 L 126.8125 461.957031 L 126.933594 461.746094 L 127.042969 461.546875 L 127.136719 461.359375 L 127.222656 461.179688 L 127.296875 461.003906 L 127.363281 460.824219 L 127.425781 460.644531 L 127.476562 460.460938 L 127.519531 460.273438 L 127.554688 460.089844 L 127.582031 459.898438 L 127.601562 459.710938 L 127.613281 459.515625 L 127.617188 459.320312 L 127.613281 459.078125 L 127.597656 458.84375 L 127.566406 458.617188 L 127.527344 458.402344 L 127.472656 458.195312 L 127.410156 457.996094 L 127.335938 457.808594 L 127.246094 457.628906 L 127.148438 457.460938 L 127.039062 457.300781 L 126.917969 457.15625 L 126.792969 457.023438 L 126.65625 456.90625 L 126.515625 456.808594 L 126.367188 456.722656 L 126.210938 456.652344 L 126.046875 456.597656 L 125.878906 456.558594 L 125.699219 456.535156 L 125.511719 456.527344 L 125.28125 456.539062 L 125.058594 456.5625 L 124.847656 456.601562 L 124.644531 456.660156 L 124.457031 456.734375 L 124.277344 456.828125 L 124.105469 456.933594 L 123.949219 457.058594 L 123.800781 457.199219 L 123.664062 457.355469 L 123.542969 457.527344 L 123.433594 457.710938 L 123.335938 457.910156 L 123.253906 458.125 L 123.183594 458.355469 L 123.125 458.597656 L 123.078125 458.855469 L 123.046875 459.128906 L 123.027344 459.417969 L 123.019531 459.71875 L 121.121094 459.71875 L 121.132812 459.296875 L 121.167969 458.890625 L 121.226562 458.5 L 121.308594 458.125 L 121.414062 457.765625 L 121.546875 457.425781 L 121.699219 457.101562 L 121.875 456.792969 L 122.078125 456.503906 L 122.300781 456.226562 L 122.546875 455.976562 L 122.808594 455.75 L 123.085938 455.546875 L 123.382812 455.375 L 123.695312 455.230469 L 124.023438 455.109375 L 124.371094 455.015625 L 124.734375 454.949219 L 125.117188 454.910156 L 125.511719 454.894531 L 125.878906 454.90625 L 126.230469 454.941406 L 126.5625 455 L 126.882812 455.078125 L 127.183594 455.183594 L 127.46875 455.308594 L 127.742188 455.460938 L 127.996094 455.632812 L 128.234375 455.828125 L 128.457031 456.046875 L 128.660156 456.28125 L 128.84375 456.53125 L 129.003906 456.796875 L 129.144531 457.078125 L 129.261719 457.375 L 129.359375 457.6875 L 129.433594 458.011719 L 129.488281 458.355469 L 129.519531 458.710938 L 129.53125 459.085938 L 129.507812 459.558594 L 129.433594 460.046875 L 129.3125 460.554688 L 129.144531 461.078125 L 128.925781 461.617188 L 128.660156 462.175781 L 128.347656 462.75 L 127.984375 463.339844 L 127.574219 463.949219 L 127.113281 464.574219 L 123.632812 469.128906 L 130.109375 469.128906 Z M 130.109375 470.75 "/>
<path style=" stroke:none;fill-rule:evenodd;fill:rgb(99.215686%,96.470588%,89.019608%);fill-opacity:1;" d="M 226.839844 461.964844 L 228.054688 461.964844 L 228.285156 461.957031 L 228.5 461.9375 L 228.707031 461.898438 L 228.90625 461.847656 L 229.089844 461.785156 L 229.265625 461.707031 L 229.429688 461.613281 L 229.585938 461.503906 L 229.726562 461.382812 L 229.859375 461.246094 L 229.980469 461.09375 L 230.085938 460.9375 L 230.183594 460.765625 L 230.265625 460.585938 L 230.335938 460.394531 L 230.390625 460.191406 L 230.4375 459.980469 L 230.46875 459.757812 L 230.488281 459.523438 L 230.492188 459.277344 L 230.472656 458.757812 L 230.40625 458.289062 L 230.300781 457.875 L 230.152344 457.519531 L 229.960938 457.214844 L 229.726562 456.96875 L 229.449219 456.777344 L 229.132812 456.640625 L 228.769531 456.554688 L 228.367188 456.527344 L 228.167969 456.535156 L 227.976562 456.558594 L 227.792969 456.59375 L 227.621094 456.648438 L 227.457031 456.714844 L 227.300781 456.796875 L 227.152344 456.890625 L 227.015625 457.003906 L 226.886719 457.128906 L 226.765625 457.269531 L 226.65625 457.421875 L 226.558594 457.585938 L 226.46875 457.757812 L 226.394531 457.9375 L 226.332031 458.125 L 226.277344 458.324219 L 226.238281 458.535156 L 226.207031 458.75 L 226.191406 458.976562 L 226.183594 459.214844 L 224.292969 459.214844 L 224.304688 458.84375 L 224.339844 458.488281 L 224.398438 458.144531 L 224.476562 457.816406 L 224.578125 457.5 L 224.703125 457.199219 L 224.851562 456.910156 L 225.023438 456.632812 L 225.21875 456.371094 L 225.433594 456.121094 L 225.667969 455.886719 L 225.917969 455.679688 L 226.179688 455.496094 L 226.453125 455.335938 L 226.742188 455.203125 L 227.042969 455.09375 L 227.351562 455.007812 L 227.679688 454.945312 L 228.015625 454.910156 L 228.367188 454.894531 L 228.726562 454.90625 L 229.074219 454.941406 L 229.40625 455 L 229.722656 455.082031 L 230.023438 455.1875 L 230.308594 455.3125 L 230.578125 455.464844 L 230.835938 455.636719 L 231.074219 455.835938 L 231.296875 456.054688 L 231.503906 456.296875 L 231.6875 456.554688 L 231.851562 456.832031 L 231.992188 457.128906 L 232.113281 457.449219 L 232.210938 457.785156 L 232.285156 458.140625 L 232.339844 458.515625 L 232.371094 458.910156 L 232.382812 459.320312 L 232.378906 459.539062 L 232.359375 459.75 L 232.332031 459.960938 L 232.292969 460.167969 L 232.242188 460.371094 L 232.179688 460.574219 L 232.105469 460.773438 L 232.019531 460.96875 L 231.921875 461.160156 L 231.8125 461.351562 L 231.699219 461.535156 L 231.578125 461.707031 L 231.449219 461.867188 L 231.3125 462.019531 L 231.167969 462.164062 L 231.019531 462.296875 L 230.863281 462.417969 L 230.699219 462.53125 L 230.53125 462.632812 L 230.351562 462.726562 L 230.773438 462.910156 L 231.148438 463.136719 L 231.480469 463.398438 L 231.769531 463.707031 L 232.011719 464.050781 L 232.210938 464.4375 L 232.367188 464.863281 L 232.476562 465.332031 L 232.542969 465.839844 L 232.566406 466.390625 L 232.554688 466.800781 L 232.519531 467.195312 L 232.460938 467.570312 L 232.378906 467.929688 L 232.273438 468.273438 L 232.144531 468.597656 L 231.992188 468.90625 L 231.816406 469.199219 L 231.617188 469.472656 L 231.394531 469.730469 L 231.15625 469.964844 L 230.902344 470.175781 L 230.632812 470.359375 L 230.351562 470.523438 L 230.054688 470.65625 L 229.746094 470.769531 L 229.417969 470.855469 L 229.078125 470.917969 L 228.722656 470.953125 L 228.355469 470.964844 L 227.992188 470.953125 L 227.640625 470.917969 L 227.304688 470.859375 L 226.980469 470.777344 L 226.675781 470.671875 L 226.378906 470.542969 L 226.101562 470.394531 L 225.835938 470.21875 L 225.585938 470.019531 L 225.347656 469.796875 L 225.132812 469.550781 L 224.9375 469.289062 L 224.765625 469.015625 L 224.617188 468.722656 L 224.492188 468.414062 L 224.390625 468.085938 L 224.3125 467.746094 L 224.253906 467.390625 L 224.21875 467.015625 L 224.207031 466.625 L 226.109375 466.625 L 226.117188 466.871094 L 226.132812 467.105469 L 226.164062 467.328125 L 226.207031 467.542969 L 226.261719 467.746094 L 226.328125 467.941406 L 226.40625 468.125 L 226.496094 468.296875 L 226.597656 468.460938 L 226.710938 468.613281 L 226.835938 468.753906 L 226.96875 468.875 L 227.113281 468.988281 L 227.261719 469.082031 L 227.421875 469.160156 L 227.59375 469.226562 L 227.769531 469.277344 L 227.957031 469.316406 L 228.152344 469.335938 L 228.355469 469.34375 L 228.5625 469.335938 L 228.761719 469.316406 L 228.953125 469.28125 L 229.136719 469.230469 L 229.308594 469.164062 L 229.472656 469.085938 L 229.628906 468.992188 L 229.773438 468.882812 L 229.914062 468.761719 L 230.042969 468.625 L 230.164062 468.472656 L 230.269531 468.304688 L 230.363281 468.125 L 230.449219 467.929688 L 230.515625 467.71875 L 230.574219 467.488281 L 230.617188 467.25 L 230.652344 466.992188 L 230.667969 466.71875 L 230.675781 466.433594 L 230.648438 465.890625 L 230.566406 465.410156 L 230.433594 464.980469 L 230.246094 464.609375 L 230 464.296875 L 229.707031 464.042969 L 229.355469 463.84375 L 228.949219 463.699219 L 228.492188 463.613281 L 227.980469 463.585938 L 226.839844 463.585938 Z M 226.839844 461.964844 "/>
<path style=" stroke:none;fill-rule:evenodd;fill:rgb(99.215686%,96.470588%,89.019608%);fill-opacity:1;" d="M 334.65625 465.5 L 336.398438 465.5 L 336.398438 467.121094 L 334.65625 467.121094 L 334.65625 470.75 L 332.753906 470.75 L 332.753906 467.121094 L 326.847656 467.121094 L 326.847656 465.949219 L 332.660156 455.109375 L 334.65625 455.109375 Z M 328.953125 465.5 L 332.753906 465.5 L 332.753906 458.066406 Z M 328.953125 465.5 "/>
<path style=" stroke:none;fill-rule:evenodd;fill:rgb(99.215686%,96.470588%,89.019608%);fill-opacity:1;" d="M 431.277344 462.910156 L 431.957031 455.109375 L 438.753906 455.109375 L 438.753906 456.949219 L 433.554688 456.949219 L 433.191406 461.210938 L 433.386719 461.082031 L 433.582031 460.96875 L 433.785156 460.867188 L 433.988281 460.78125 L 434.195312 460.703125 L 434.40625 460.644531 L 434.617188 460.597656 L 434.832031 460.5625 L 435.050781 460.542969 L 435.273438 460.535156 L 435.632812 460.550781 L 435.972656 460.59375 L 436.300781 460.664062 L 436.609375 460.761719 L 436.90625 460.890625 L 437.183594 461.046875 L 437.445312 461.230469 L 437.695312 461.441406 L 437.925781 461.683594 L 438.144531 461.953125 L 438.339844 462.246094 L 438.519531 462.558594 L 438.675781 462.890625 L 438.808594 463.246094 L 438.925781 463.617188 L 439.019531 464.007812 L 439.089844 464.417969 L 439.144531 464.847656 L 439.175781 465.296875 L 439.183594 465.765625 L 439.171875 466.242188 L 439.140625 466.695312 L 439.082031 467.128906 L 439.003906 467.542969 L 438.898438 467.933594 L 438.773438 468.304688 L 438.625 468.65625 L 438.457031 468.984375 L 438.261719 469.292969 L 438.046875 469.582031 L 437.8125 469.84375 L 437.5625 470.078125 L 437.292969 470.289062 L 437.007812 470.46875 L 436.707031 470.621094 L 436.386719 470.746094 L 436.050781 470.839844 L 435.699219 470.910156 L 435.328125 470.953125 L 434.941406 470.964844 L 434.597656 470.953125 L 434.261719 470.921875 L 433.945312 470.863281 L 433.636719 470.78125 L 433.34375 470.679688 L 433.0625 470.550781 L 432.796875 470.402344 L 432.542969 470.230469 L 432.300781 470.035156 L 432.074219 469.816406 L 431.863281 469.578125 L 431.667969 469.320312 L 431.496094 469.046875 L 431.339844 468.757812 L 431.203125 468.449219 L 431.085938 468.121094 L 430.988281 467.777344 L 430.90625 467.414062 L 430.847656 467.035156 L 430.804688 466.636719 L 432.589844 466.636719 L 432.625 466.898438 L 432.671875 467.148438 L 432.726562 467.382812 L 432.789062 467.605469 L 432.859375 467.816406 L 432.941406 468.011719 L 433.03125 468.195312 L 433.128906 468.367188 L 433.234375 468.523438 L 433.351562 468.667969 L 433.476562 468.796875 L 433.609375 468.910156 L 433.753906 469.011719 L 433.898438 469.101562 L 434.054688 469.175781 L 434.21875 469.234375 L 434.386719 469.285156 L 434.566406 469.316406 L 434.75 469.335938 L 434.941406 469.34375 L 435.15625 469.335938 L 435.363281 469.304688 L 435.5625 469.257812 L 435.75 469.191406 L 435.925781 469.105469 L 436.09375 469 L 436.253906 468.875 L 436.402344 468.734375 L 436.542969 468.570312 L 436.671875 468.386719 L 436.789062 468.1875 L 436.894531 467.976562 L 436.988281 467.75 L 437.070312 467.507812 L 437.136719 467.253906 L 437.195312 466.988281 L 437.238281 466.707031 L 437.269531 466.414062 L 437.289062 466.109375 L 437.292969 465.789062 L 437.289062 465.488281 L 437.265625 465.195312 L 437.234375 464.917969 L 437.1875 464.652344 L 437.125 464.394531 L 437.050781 464.148438 L 436.960938 463.917969 L 436.859375 463.695312 L 436.746094 463.484375 L 436.617188 463.285156 L 436.480469 463.101562 L 436.332031 462.9375 L 436.175781 462.792969 L 436.007812 462.667969 L 435.832031 462.5625 L 435.648438 462.472656 L 435.453125 462.40625 L 435.25 462.359375 L 435.035156 462.328125 L 434.8125 462.320312 L 434.628906 462.324219 L 434.449219 462.339844 L 434.28125 462.363281 L 434.117188 462.398438 L 433.960938 462.441406 L 433.8125 462.496094 L 433.671875 462.5625 L 433.539062 462.636719 L 433.414062 462.71875 L 433.296875 462.8125 L 432.792969 463.316406 Z M 431.277344 462.910156 "/>
<path style=" stroke:none;fill-rule:evenodd;fill:rgb(99.215686%,96.470588%,89.019608%);fill-opacity:1;" d="M 276.550781 490.484375 L 278.3125 482.203125 L 280.195312 482.203125 L 277.347656 493.828125 L 275.832031 493.828125 L 273.566406 485.511719 L 271.351562 493.828125 L 269.828125 493.828125 L 267.003906 482.203125 L 268.871094 482.203125 L 270.675781 490.28125 L 272.835938 482.203125 L 274.339844 482.203125 Z M 276.550781 490.484375 "/>
<path style=" stroke:none;fill-rule:evenodd;fill:rgb(99.215686%,96.470588%,89.019608%);fill-opacity:1;" d="M 284.671875 479.390625 L 284.671875 482.203125 L 286.425781 482.203125 L 286.425781 483.738281 L 284.671875 483.738281 L 284.671875 490.949219 L 284.675781 491.082031 L 284.683594 491.210938 L 284.691406 491.328125 L 284.710938 491.445312 L 284.730469 491.550781 L 284.753906 491.652344 L 284.785156 491.746094 L 284.816406 491.835938 L 284.855469 491.914062 L 284.898438 491.988281 L 284.945312 492.058594 L 285 492.117188 L 285.0625 492.171875 L 285.128906 492.214844 L 285.203125 492.253906 L 285.285156 492.285156 L 285.371094 492.3125 L 285.464844 492.328125 L 285.566406 492.339844 L 285.671875 492.34375 L 285.746094 492.34375 L 285.824219 492.339844 L 285.972656 492.324219 L 286.050781 492.3125 L 286.128906 492.296875 L 286.203125 492.28125 L 286.28125 492.261719 L 286.359375 492.238281 L 286.433594 492.214844 L 286.414062 493.828125 L 286.285156 493.867188 L 286.152344 493.902344 L 286.023438 493.9375 L 285.890625 493.964844 L 285.761719 493.988281 L 285.628906 494.007812 L 285.496094 494.023438 L 285.363281 494.03125 L 285.226562 494.039062 L 285.09375 494.042969 L 284.871094 494.03125 L 284.664062 494.007812 L 284.464844 493.96875 L 284.277344 493.914062 L 284.097656 493.839844 L 283.933594 493.75 L 283.777344 493.644531 L 283.632812 493.527344 L 283.496094 493.386719 L 283.375 493.234375 L 283.261719 493.066406 L 283.160156 492.886719 L 283.070312 492.691406 L 282.996094 492.484375 L 282.929688 492.261719 L 282.875 492.027344 L 282.835938 491.78125 L 282.804688 491.519531 L 282.789062 491.246094 L 282.78125 490.957031 L 282.78125 483.738281 L 281.011719 483.738281 L 281.011719 482.203125 L 282.78125 482.203125 L 282.78125 479.390625 Z M 284.671875 479.390625 "/>
<path style=" stroke:none;fill-rule:evenodd;fill:rgb(99.215686%,96.470588%,89.019608%);fill-opacity:1;" d="M 9.496094 243.738281 L 10.570312 243.695312 L 10.328125 243.476562 L 10.105469 243.242188 L 9.914062 242.996094 L 9.746094 242.738281 L 9.605469 242.464844 L 9.488281 242.175781 L 9.398438 241.875 L 9.332031 241.5625 L 9.296875 241.234375 L 9.28125 240.890625 L 9.300781 240.515625 L 9.351562 240.160156 L 9.433594 239.832031 L 9.550781 239.523438 L 9.703125 239.242188 L 9.890625 238.980469 L 10.109375 238.742188 L 10.363281 238.53125 L 10.648438 238.339844 L 10.96875 238.175781 L 10.648438 237.945312 L 10.363281 237.703125 L 10.109375 237.4375 L 9.890625 237.160156 L 9.703125 236.863281 L 9.550781 236.550781 L 9.433594 236.21875 L 9.351562 235.871094 L 9.300781 235.503906 L 9.28125 235.125 L 9.320312 234.511719 L 9.441406 233.964844 L 9.644531 233.480469 L 9.921875 233.054688 L 10.285156 232.695312 L 10.726562 232.398438 L 11.246094 232.164062 L 11.847656 231.992188 L 12.527344 231.882812 L 13.289062 231.835938 L 21.121094 231.835938 L 21.121094 233.726562 L 13.472656 233.726562 L 13.226562 233.730469 L 12.992188 233.746094 L 12.769531 233.765625 L 12.5625 233.800781 L 12.367188 233.839844 L 12.1875 233.890625 L 12.019531 233.949219 L 11.863281 234.015625 L 11.722656 234.09375 L 11.589844 234.179688 L 11.472656 234.273438 L 11.367188 234.382812 L 11.273438 234.503906 L 11.191406 234.640625 L 11.125 234.785156 L 11.070312 234.945312 L 11.023438 235.113281 L 10.992188 235.296875 L 10.976562 235.496094 L 10.96875 235.703125 L 10.976562 235.871094 L 10.996094 236.035156 L 11.027344 236.191406 L 11.074219 236.339844 L 11.136719 236.480469 L 11.207031 236.617188 L 11.296875 236.75 L 11.394531 236.871094 L 11.507812 236.988281 L 11.632812 237.101562 L 11.773438 237.203125 L 11.914062 237.296875 L 12.066406 237.382812 L 12.226562 237.457031 L 12.390625 237.523438 L 12.566406 237.582031 L 12.746094 237.628906 L 12.933594 237.671875 L 13.128906 237.703125 L 13.332031 237.722656 L 21.121094 237.722656 L 21.121094 239.636719 L 13.386719 239.636719 L 12.925781 239.660156 L 12.515625 239.722656 L 12.152344 239.824219 L 11.839844 239.964844 L 11.574219 240.144531 L 11.355469 240.359375 L 11.1875 240.613281 L 11.066406 240.902344 L 10.992188 241.234375 L 10.96875 241.601562 L 10.984375 241.878906 L 11.027344 242.144531 L 11.097656 242.386719 L 11.199219 242.617188 L 11.328125 242.828125 L 11.488281 243.023438 L 11.675781 243.199219 L 11.890625 243.359375 L 12.132812 243.503906 L 12.40625 243.632812 L 21.121094 243.632812 L 21.121094 245.523438 L 9.496094 245.523438 Z M 9.496094 243.738281 "/>
<path style=" stroke:none;fill-rule:evenodd;fill:rgb(99.215686%,96.470588%,89.019608%);fill-opacity:1;" d="M 15.867188 220.578125 L 16.40625 220.589844 L 16.914062 220.617188 L 17.398438 220.667969 L 17.851562 220.738281 L 18.277344 220.828125 L 18.671875 220.9375 L 19.042969 221.066406 L 19.382812 221.21875 L 19.695312 221.386719 L 19.980469 221.578125 L 20.238281 221.785156 L 20.46875 222.007812 L 20.671875 222.246094 L 20.847656 222.5 L 20.996094 222.773438 L 21.117188 223.0625 L 21.214844 223.367188 L 21.28125 223.6875 L 21.320312 224.027344 L 21.335938 224.382812 L 21.320312 224.722656 L 21.28125 225.050781 L 21.214844 225.359375 L 21.125 225.652344 L 21.003906 225.929688 L 20.859375 226.191406 L 20.6875 226.4375 L 20.488281 226.667969 L 20.265625 226.878906 L 20.011719 227.078125 L 25.589844 227.078125 L 25.589844 228.96875 L 9.496094 228.96875 L 9.496094 227.25 L 10.785156 227.152344 L 10.5 226.953125 L 10.246094 226.738281 L 10.019531 226.503906 L 9.824219 226.253906 L 9.65625 225.988281 L 9.523438 225.707031 L 9.417969 225.410156 L 9.34375 225.09375 L 9.296875 224.761719 L 9.28125 224.414062 L 9.296875 224.039062 L 9.335938 223.6875 L 9.402344 223.351562 L 9.496094 223.039062 L 9.613281 222.742188 L 9.761719 222.46875 L 9.933594 222.210938 L 10.132812 221.972656 L 10.359375 221.753906 L 10.613281 221.554688 L 10.894531 221.375 L 11.199219 221.214844 L 11.53125 221.070312 L 11.890625 220.945312 L 12.277344 220.839844 L 12.6875 220.75 L 13.125 220.679688 L 13.589844 220.628906 L 14.082031 220.59375 L 14.597656 220.578125 Z M 14.78125 222.46875 L 14.402344 222.476562 L 14.042969 222.492188 L 13.703125 222.523438 L 13.382812 222.566406 L 13.085938 222.621094 L 12.808594 222.6875 L 12.550781 222.765625 L 12.3125 222.855469 L 12.097656 222.957031 L 11.902344 223.070312 L 11.726562 223.199219 L 11.566406 223.339844 L 11.425781 223.496094 L 11.304688 223.667969 L 11.203125 223.855469 L 11.117188 224.054688 L 11.054688 224.269531 L 11.007812 224.5 L 10.976562 224.746094 L 10.96875 225.003906 L 10.980469 225.269531 L 11.023438 225.523438 L 11.089844 225.765625 L 11.1875 225.992188 L 11.308594 226.203125 L 11.460938 226.40625 L 11.636719 226.59375 L 11.84375 226.769531 L 12.074219 226.929688 L 12.332031 227.078125 L 18.378906 227.078125 L 18.632812 226.929688 L 18.859375 226.769531 L 19.058594 226.59375 L 19.234375 226.40625 L 19.378906 226.203125 L 19.5 225.988281 L 19.59375 225.757812 L 19.660156 225.511719 L 19.699219 225.253906 L 19.710938 224.984375 L 19.703125 224.730469 L 19.675781 224.496094 L 19.628906 224.269531 L 19.566406 224.0625 L 19.480469 223.867188 L 19.378906 223.683594 L 19.261719 223.515625 L 19.121094 223.359375 L 18.964844 223.21875 L 18.789062 223.09375 L 18.59375 222.976562 L 18.375 222.871094 L 18.140625 222.777344 L 17.886719 222.699219 L 17.609375 222.628906 L 17.316406 222.574219 L 17 222.53125 L 16.667969 222.496094 L 16.316406 222.476562 L 15.941406 222.46875 Z M 14.78125 222.46875 "/>
<path style=" stroke:none;fill-rule:evenodd;fill:rgb(99.215686%,96.470588%,89.019608%);fill-opacity:1;" d="M 14.78125 218.503906 L 14.25 218.496094 L 13.75 218.464844 L 13.269531 218.417969 L 12.820312 218.347656 L 12.398438 218.257812 L 12 218.148438 L 11.628906 218.019531 L 11.285156 217.871094 L 10.96875 217.703125 L 10.679688 217.515625 L 10.414062 217.308594 L 10.175781 217.085938 L 9.964844 216.839844 L 9.785156 216.582031 L 9.632812 216.300781 L 9.503906 216.003906 L 9.40625 215.6875 L 9.339844 215.351562 L 9.296875 215 L 9.28125 214.628906 L 9.296875 214.28125 L 9.34375 213.953125 L 9.417969 213.640625 L 9.523438 213.34375 L 9.660156 213.066406 L 9.828125 212.804688 L 10.023438 212.5625 L 10.25 212.335938 L 10.507812 212.125 L 10.796875 211.929688 L 9.496094 211.835938 L 9.496094 210.117188 L 21.226562 210.117188 L 21.648438 210.125 L 22.050781 210.160156 L 22.433594 210.214844 L 22.792969 210.292969 L 23.132812 210.390625 L 23.453125 210.515625 L 23.753906 210.65625 L 24.035156 210.824219 L 24.296875 211.011719 L 24.535156 211.222656 L 24.757812 211.453125 L 24.953125 211.699219 L 25.128906 211.964844 L 25.277344 212.246094 L 25.40625 212.546875 L 25.511719 212.863281 L 25.59375 213.199219 L 25.648438 213.550781 L 25.683594 213.917969 L 25.695312 214.304688 L 25.691406 214.480469 L 25.679688 214.65625 L 25.65625 214.839844 L 25.628906 215.027344 L 25.589844 215.21875 L 25.542969 215.414062 L 25.484375 215.613281 L 25.421875 215.816406 L 25.347656 216.027344 L 25.265625 216.238281 L 25.179688 216.445312 L 25.089844 216.644531 L 24.996094 216.828125 L 24.898438 217.003906 L 24.796875 217.171875 L 24.691406 217.324219 L 24.578125 217.46875 L 24.464844 217.601562 L 24.347656 217.726562 L 24.222656 217.839844 L 22.914062 217.066406 L 23.132812 216.828125 L 23.332031 216.582031 L 23.503906 216.335938 L 23.65625 216.082031 L 23.785156 215.824219 L 23.886719 215.558594 L 23.96875 215.289062 L 24.027344 215.015625 L 24.0625 214.738281 L 24.074219 214.457031 L 24.046875 214.003906 L 23.96875 213.597656 L 23.839844 213.238281 L 23.660156 212.925781 L 23.425781 212.660156 L 23.140625 212.4375 L 22.804688 212.261719 L 22.417969 212.136719 L 21.976562 212.054688 L 21.484375 212.015625 L 19.96875 212.015625 L 20.230469 212.210938 L 20.460938 212.417969 L 20.667969 212.640625 L 20.84375 212.878906 L 20.992188 213.132812 L 21.117188 213.402344 L 21.210938 213.6875 L 21.28125 213.988281 L 21.320312 214.304688 L 21.335938 214.636719 L 21.320312 214.992188 L 21.28125 215.328125 L 21.214844 215.648438 L 21.117188 215.953125 L 20.996094 216.242188 L 20.847656 216.515625 L 20.671875 216.773438 L 20.46875 217.015625 L 20.238281 217.242188 L 19.980469 217.453125 L 19.695312 217.644531 L 19.386719 217.816406 L 19.054688 217.972656 L 18.699219 218.105469 L 18.320312 218.21875 L 17.917969 218.316406 L 17.492188 218.390625 L 17.042969 218.449219 L 16.570312 218.488281 L 16.070312 218.503906 Z M 15.867188 216.605469 L 16.246094 216.597656 L 16.609375 216.582031 L 16.949219 216.550781 L 17.265625 216.511719 L 17.5625 216.460938 L 17.84375 216.398438 L 18.097656 216.324219 L 18.335938 216.238281 L 18.550781 216.144531 L 18.746094 216.035156 L 18.917969 215.910156 L 19.074219 215.773438 L 19.210938 215.621094 L 19.332031 215.453125 L 19.429688 215.273438 L 19.511719 215.074219 L 19.578125 214.863281 L 19.621094 214.640625 L 19.648438 214.398438 L 19.660156 214.144531 L 19.644531 213.867188 L 19.601562 213.605469 L 19.527344 213.355469 L 19.425781 213.121094 L 19.296875 212.902344 L 19.136719 212.699219 L 18.949219 212.507812 L 18.730469 212.328125 L 18.484375 212.164062 L 18.207031 212.015625 L 12.398438 212.015625 L 12.125 212.171875 L 11.882812 212.339844 L 11.667969 212.519531 L 11.484375 212.710938 L 11.324219 212.914062 L 11.199219 213.128906 L 11.097656 213.359375 L 11.027344 213.601562 L 10.984375 213.855469 L 10.96875 214.121094 L 10.976562 214.378906 L 11.003906 214.617188 L 11.050781 214.84375 L 11.117188 215.054688 L 11.199219 215.25 L 11.300781 215.433594 L 11.421875 215.597656 L 11.558594 215.75 L 11.71875 215.890625 L 11.890625 216.011719 L 12.085938 216.125 L 12.296875 216.222656 L 12.53125 216.308594 L 12.78125 216.386719 L 13.050781 216.449219 L 13.34375 216.503906 L 13.65625 216.546875 L 13.984375 216.578125 L 14.335938 216.597656 L 14.707031 216.605469 Z M 15.867188 216.605469 "/>
</g>
</svg>
