<?xml version="1.0" encoding="UTF-8"?>
<svg xmlns="http://www.w3.org/2000/svg" xmlns:xlink="http://www.w3.org/1999/xlink" width="504pt" height="453pt" viewBox="0 0 504 453" version="1.1">
<defs>
<clipPath id="clip1">
  <path d="M 50.863281 5.480469 L 498.523438 5.480469 L 498.523438 403.246094 L 50.863281 403.246094 Z M 50.863281 5.480469 "/>
</clipPath>
<clipPath id="clip2">
  <path d="M 50.863281 297 L 498.523438 297 L 498.523438 298 L 50.863281 298 Z M 50.863281 297 "/>
</clipPath>
<clipPath id="clip3">
  <path d="M 50.863281 166 L 498.523438 166 L 498.523438 168 L 50.863281 168 Z M 50.863281 166 "/>
</clipPath>
<clipPath id="clip4">
  <path d="M 50.863281 36 L 498.523438 36 L 498.523438 38 L 50.863281 38 Z M 50.863281 36 "/>
</clipPath>
<clipPath id="clip5">
  <path d="M 69 5.480469 L 71 5.480469 L 71 403.246094 L 69 403.246094 Z M 69 5.480469 "/>
</clipPath>
<clipPath id="clip6">
  <path d="M 173 5.480469 L 175 5.480469 L 175 403.246094 L 173 403.246094 Z M 173 5.480469 "/>
</clipPath>
<clipPath id="clip7">
  <path d="M 277 5.480469 L 279 5.480469 L 279 403.246094 L 277 403.246094 Z M 277 5.480469 "/>
</clipPath>
<clipPath id="clip8">
  <path d="M 381 5.480469 L 383 5.480469 L 383 403.246094 L 381 403.246094 Z M 381 5.480469 "/>
</clipPath>
<clipPath id="clip9">
  <path d="M 485 5.480469 L 487 5.480469 L 487 403.246094 L 485 403.246094 Z M 485 5.480469 "/>
</clipPath>
<clipPath id="clip10">
  <path d="M 50.863281 361 L 498.523438 361 L 498.523438 363 L 50.863281 363 Z M 50.863281 361 "/>
</clipPath>
<clipPath id="clip11">
  <path d="M 50.863281 231 L 498.523438 231 L 498.523438 233 L 50.863281 233 Z M 50.863281 231 "/>
</clipPath>
<clipPath id="clip12">
  <path d="M 50.863281 101 L 498.523438 101 L 498.523438 103 L 50.863281 103 Z M 50.863281 101 "/>
</clipPath>
<clipPath id="clip13">
  <path d="M 121 5.480469 L 123 5.480469 L 123 403.246094 L 121 403.246094 Z M 121 5.480469 "/>
</clipPath>
<clipPath id="clip14">
  <path d="M 225 5.480469 L 227 5.480469 L 227 403.246094 L 225 403.246094 Z M 225 5.480469 "/>
</clipPath>
<clipPath id="clip15">
  <path d="M 329 5.480469 L 331 5.480469 L 331 403.246094 L 329 403.246094 Z M 329 5.480469 "/>
</clipPath>
<clipPath id="clip16">
  <path d="M 433 5.480469 L 435 5.480469 L 435 403.246094 L 433 403.246094 Z M 433 5.480469 "/>
</clipPath>
</defs>
<g id="surface179">
<rect x="0" y="0" width="504" height="453" style="fill:rgb(100%,100%,100%);fill-opacity:1;stroke:none;"/>
<rect x="0" y="0" width="504" height="453" style="fill:rgb(0%,16.862745%,21.176471%);fill-opacity:1;stroke:none;"/>
<path style="fill:none;stroke-width:1.066978;stroke-linecap:round;stroke-linejoin:round;stroke:rgb(0%,16.862745%,21.176471%);stroke-opacity:1;stroke-miterlimit:10;" d="M 0 453 L 504 453 L 504 0 L 0 0 Z M 0 453 "/>
<g clip-path="url(#clip1)" clip-rule="nonzero">
<path style=" stroke:none;fill-rule:nonzero;fill:rgb(8.627451%,21.568627%,25.490196%);fill-opacity:1;" d="M 50.863281 403.246094 L 498.523438 403.246094 L 498.523438 5.480469 L 50.863281 5.480469 Z M 50.863281 403.246094 "/>
</g>
<g clip-path="url(#clip2)" clip-rule="nonzero">
<path style="fill:none;stroke-width:0.533489;stroke-linecap:butt;stroke-linejoin:round;stroke:rgb(0%,16.862745%,21.176471%);stroke-opacity:1;stroke-miterlimit:10;" d="M 50.863281 297.265625 L 498.519531 297.265625 "/>
</g>
<g clip-path="url(#clip3)" clip-rule="nonzero">
<path style="fill:none;stroke-width:0.533489;stroke-linecap:butt;stroke-linejoin:round;stroke:rgb(0%,16.862745%,21.176471%);stroke-opacity:1;stroke-miterlimit:10;" d="M 50.863281 167.113281 L 498.519531 167.113281 "/>
</g>
<g clip-path="url(#clip4)" clip-rule="nonzero">
<path style="fill:none;stroke-width:0.533489;stroke-linecap:butt;stroke-linejoin:round;stroke:rgb(0%,16.862745%,21.176471%);stroke-opacity:1;stroke-miterlimit:10;" d="M 50.863281 36.960938 L 498.519531 36.960938 "/>
</g>
<g clip-path="url(#clip5)" clip-rule="nonzero">
<path style="fill:none;stroke-width:0.533489;stroke-linecap:butt;stroke-linejoin:round;stroke:rgb(0%,16.862745%,21.176471%);stroke-opacity:1;stroke-miterlimit:10;" d="M 69.859375 403.246094 L 69.859375 5.480469 "/>
</g>
<g clip-path="url(#clip6)" clip-rule="nonzero">
<path style="fill:none;stroke-width:0.533489;stroke-linecap:butt;stroke-linejoin:round;stroke:rgb(0%,16.862745%,21.176471%);stroke-opacity:1;stroke-miterlimit:10;" d="M 173.914062 403.246094 L 173.914062 5.480469 "/>
</g>
<g clip-path="url(#clip7)" clip-rule="nonzero">
<path style="fill:none;stroke-width:0.533489;stroke-linecap:butt;stroke-linejoin:round;stroke:rgb(0%,16.862745%,21.176471%);stroke-opacity:1;stroke-miterlimit:10;" d="M 277.96875 403.246094 L 277.96875 5.480469 "/>
</g>
<g clip-path="url(#clip8)" clip-rule="nonzero">
<path style="fill:none;stroke-width:0.533489;stroke-linecap:butt;stroke-linejoin:round;stroke:rgb(0%,16.862745%,21.176471%);stroke-opacity:1;stroke-miterlimit:10;" d="M 382.023438 403.246094 L 382.023438 5.480469 "/>
</g>
<g clip-path="url(#clip9)" clip-rule="nonzero">
<path style="fill:none;stroke-width:0.533489;stroke-linecap:butt;stroke-linejoin:round;stroke:rgb(0%,16.862745%,21.176471%);stroke-opacity:1;stroke-miterlimit:10;" d="M 486.082031 403.246094 L 486.082031 5.480469 "/>
</g>
<g clip-path="url(#clip10)" clip-rule="nonzero">
<path style="fill:none;stroke-width:1.066978;stroke-linecap:butt;stroke-linejoin:round;stroke:rgb(0%,16.862745%,21.176471%);stroke-opacity:1;stroke-miterlimit:10;" d="M 50.863281 362.339844 L 498.519531 362.339844 "/>
</g>
<g clip-path="url(#clip11)" clip-rule="nonzero">
<path style="fill:none;stroke-width:1.066978;stroke-linecap:butt;stroke-linejoin:round;stroke:rgb(0%,16.862745%,21.176471%);stroke-opacity:1;stroke-miterlimit:10;" d="M 50.863281 232.191406 L 498.519531 232.191406 "/>
</g>
<g clip-path="url(#clip12)" clip-rule="nonzero">
<path style="fill:none;stroke-width:1.066978;stroke-linecap:butt;stroke-linejoin:round;stroke:rgb(0%,16.862745%,21.176471%);stroke-opacity:1;stroke-miterlimit:10;" d="M 50.863281 102.039062 L 498.519531 102.039062 "/>
</g>
<g clip-path="url(#clip13)" clip-rule="nonzero">
<path style="fill:none;stroke-width:1.066978;stroke-linecap:butt;stroke-linejoin:round;stroke:rgb(0%,16.862745%,21.176471%);stroke-opacity:1;stroke-miterlimit:10;" d="M 121.886719 403.246094 L 121.886719 5.480469 "/>
</g>
<g clip-path="url(#clip14)" clip-rule="nonzero">
<path style="fill:none;stroke-width:1.066978;stroke-linecap:butt;stroke-linejoin:round;stroke:rgb(0%,16.862745%,21.176471%);stroke-opacity:1;stroke-miterlimit:10;" d="M 225.941406 403.246094 L 225.941406 5.480469 "/>
</g>
<g clip-path="url(#clip15)" clip-rule="nonzero">
<path style="fill:none;stroke-width:1.066978;stroke-linecap:butt;stroke-linejoin:round;stroke:rgb(0%,16.862745%,21.176471%);stroke-opacity:1;stroke-miterlimit:10;" d="M 329.996094 403.246094 L 329.996094 5.480469 "/>
</g>
<g clip-path="url(#clip16)" clip-rule="nonzero">
<path style="fill:none;stroke-width:1.066978;stroke-linecap:butt;stroke-linejoin:round;stroke:rgb(0%,16.862745%,21.176471%);stroke-opacity:1;stroke-miterlimit:10;" d="M 434.054688 403.246094 L 434.054688 5.480469 "/>
</g>
<path style="fill-rule:nonzero;fill:rgb(99.215686%,96.470588%,89.019608%);fill-opacity:1;stroke-width:0.708661;stroke-linecap:round;stroke-linejoin:round;stroke:rgb(99.215686%,96.470588%,89.019608%);stroke-opacity:1;stroke-miterlimit:10;" d="M 191.023438 219.175781 C 191.023438 225.335938 181.777344 225.335938 181.777344 219.175781 C 181.777344 213.011719 191.023438 213.011719 191.023438 219.175781 "/>
<path style="fill-rule:nonzero;fill:rgb(99.215686%,96.470588%,89.019608%);fill-opacity:1;stroke-width:0.708661;stroke-linecap:round;stroke-linejoin:round;stroke:rgb(99.215686%,96.470588%,89.019608%);stroke-opacity:1;stroke-miterlimit:10;" d="M 217.554688 219.175781 C 217.554688 225.335938 208.3125 225.335938 208.3125 219.175781 C 208.3125 213.011719 217.554688 213.011719 217.554688 219.175781 "/>
<path style="fill-rule:nonzero;fill:rgb(99.215686%,96.470588%,89.019608%);fill-opacity:1;stroke-width:0.708661;stroke-linecap:round;stroke-linejoin:round;stroke:rgb(99.215686%,96.470588%,89.019608%);stroke-opacity:1;stroke-miterlimit:10;" d="M 159.804688 195.746094 C 159.804688 201.910156 150.5625 201.910156 150.5625 195.746094 C 150.5625 189.585938 159.804688 189.585938 159.804688 195.746094 "/>
<path style="fill-rule:nonzero;fill:rgb(99.215686%,96.470588%,89.019608%);fill-opacity:1;stroke-width:0.708661;stroke-linecap:round;stroke-linejoin:round;stroke:rgb(99.215686%,96.470588%,89.019608%);stroke-opacity:1;stroke-miterlimit:10;" d="M 252.933594 213.96875 C 252.933594 220.132812 243.691406 220.132812 243.691406 213.96875 C 243.691406 207.804688 252.933594 207.804688 252.933594 213.96875 "/>
<path style="fill-rule:nonzero;fill:rgb(99.215686%,96.470588%,89.019608%);fill-opacity:1;stroke-width:0.708661;stroke-linecap:round;stroke-linejoin:round;stroke:rgb(99.215686%,96.470588%,89.019608%);stroke-opacity:1;stroke-miterlimit:10;" d="M 276.347656 249.109375 C 276.347656 255.273438 267.105469 255.273438 267.105469 249.109375 C 267.105469 242.945312 276.347656 242.945312 276.347656 249.109375 "/>
<path style="fill-rule:nonzero;fill:rgb(99.215686%,96.470588%,89.019608%);fill-opacity:1;stroke-width:0.708661;stroke-linecap:round;stroke-linejoin:round;stroke:rgb(99.215686%,96.470588%,89.019608%);stroke-opacity:1;stroke-miterlimit:10;" d="M 278.429688 256.917969 C 278.429688 263.082031 269.183594 263.082031 269.183594 256.917969 C 269.183594 250.753906 278.429688 250.753906 278.429688 256.917969 "/>
<path style="fill-rule:nonzero;fill:rgb(99.215686%,96.470588%,89.019608%);fill-opacity:1;stroke-width:0.708661;stroke-linecap:round;stroke-linejoin:round;stroke:rgb(99.215686%,96.470588%,89.019608%);stroke-opacity:1;stroke-miterlimit:10;" d="M 289.875 306.375 C 289.875 312.539062 280.628906 312.539062 280.628906 306.375 C 280.628906 300.214844 289.875 300.214844 289.875 306.375 "/>
<path style="fill-rule:nonzero;fill:rgb(99.215686%,96.470588%,89.019608%);fill-opacity:1;stroke-width:0.708661;stroke-linecap:round;stroke-linejoin:round;stroke:rgb(99.215686%,96.470588%,89.019608%);stroke-opacity:1;stroke-miterlimit:10;" d="M 250.335938 174.921875 C 250.335938 181.085938 241.089844 181.085938 241.089844 174.921875 C 241.089844 168.757812 250.335938 168.757812 250.335938 174.921875 "/>
<path style="fill-rule:nonzero;fill:rgb(99.215686%,96.470588%,89.019608%);fill-opacity:1;stroke-width:0.708661;stroke-linecap:round;stroke-linejoin:round;stroke:rgb(99.215686%,96.470588%,89.019608%);stroke-opacity:1;stroke-miterlimit:10;" d="M 246.171875 195.746094 C 246.171875 201.910156 236.925781 201.910156 236.925781 195.746094 C 236.925781 189.585938 246.171875 189.585938 246.171875 195.746094 "/>
<path style="fill-rule:nonzero;fill:rgb(99.215686%,96.470588%,89.019608%);fill-opacity:1;stroke-width:0.708661;stroke-linecap:round;stroke-linejoin:round;stroke:rgb(99.215686%,96.470588%,89.019608%);stroke-opacity:1;stroke-miterlimit:10;" d="M 276.347656 242.601562 C 276.347656 248.765625 267.105469 248.765625 267.105469 242.601562 C 267.105469 236.4375 276.347656 236.4375 276.347656 242.601562 "/>
<path style="fill-rule:nonzero;fill:rgb(99.215686%,96.470588%,89.019608%);fill-opacity:1;stroke-width:0.708661;stroke-linecap:round;stroke-linejoin:round;stroke:rgb(99.215686%,96.470588%,89.019608%);stroke-opacity:1;stroke-miterlimit:10;" d="M 276.347656 260.824219 C 276.347656 266.984375 267.105469 266.984375 267.105469 260.824219 C 267.105469 254.660156 276.347656 254.660156 276.347656 260.824219 "/>
<path style="fill-rule:nonzero;fill:rgb(99.215686%,96.470588%,89.019608%);fill-opacity:1;stroke-width:0.708661;stroke-linecap:round;stroke-linejoin:round;stroke:rgb(99.215686%,96.470588%,89.019608%);stroke-opacity:1;stroke-miterlimit:10;" d="M 341.902344 279.042969 C 341.902344 285.207031 332.660156 285.207031 332.660156 279.042969 C 332.660156 272.882812 341.902344 272.882812 341.902344 279.042969 "/>
<path style="fill-rule:nonzero;fill:rgb(99.215686%,96.470588%,89.019608%);fill-opacity:1;stroke-width:0.708661;stroke-linecap:round;stroke-linejoin:round;stroke:rgb(99.215686%,96.470588%,89.019608%);stroke-opacity:1;stroke-miterlimit:10;" d="M 306.523438 267.332031 C 306.523438 273.492188 297.28125 273.492188 297.28125 267.332031 C 297.28125 261.167969 306.523438 261.167969 306.523438 267.332031 "/>
<path style="fill-rule:nonzero;fill:rgb(99.215686%,96.470588%,89.019608%);fill-opacity:1;stroke-width:0.708661;stroke-linecap:round;stroke-linejoin:round;stroke:rgb(99.215686%,96.470588%,89.019608%);stroke-opacity:1;stroke-miterlimit:10;" d="M 311.726562 294.664062 C 311.726562 300.824219 302.484375 300.824219 302.484375 294.664062 C 302.484375 288.5 311.726562 288.5 311.726562 294.664062 "/>
<path style="fill-rule:nonzero;fill:rgb(99.215686%,96.470588%,89.019608%);fill-opacity:1;stroke-width:0.708661;stroke-linecap:round;stroke-linejoin:round;stroke:rgb(99.215686%,96.470588%,89.019608%);stroke-opacity:1;stroke-miterlimit:10;" d="M 464.6875 357.136719 C 464.6875 363.296875 455.445312 363.296875 455.445312 357.136719 C 455.445312 350.972656 464.6875 350.972656 464.6875 357.136719 "/>
<path style="fill-rule:nonzero;fill:rgb(99.215686%,96.470588%,89.019608%);fill-opacity:1;stroke-width:0.708661;stroke-linecap:round;stroke-linejoin:round;stroke:rgb(99.215686%,96.470588%,89.019608%);stroke-opacity:1;stroke-miterlimit:10;" d="M 482.792969 357.136719 C 482.792969 363.296875 473.550781 363.296875 473.550781 357.136719 C 473.550781 350.972656 482.792969 350.972656 482.792969 357.136719 "/>
<path style="fill-rule:nonzero;fill:rgb(99.215686%,96.470588%,89.019608%);fill-opacity:1;stroke-width:0.708661;stroke-linecap:round;stroke-linejoin:round;stroke:rgb(99.215686%,96.470588%,89.019608%);stroke-opacity:1;stroke-miterlimit:10;" d="M 474.574219 301.167969 C 474.574219 307.332031 465.328125 307.332031 465.328125 301.167969 C 465.328125 295.007812 474.574219 295.007812 474.574219 301.167969 "/>
<path style="fill-rule:nonzero;fill:rgb(99.215686%,96.470588%,89.019608%);fill-opacity:1;stroke-width:0.708661;stroke-linecap:round;stroke-linejoin:round;stroke:rgb(99.215686%,96.470588%,89.019608%);stroke-opacity:1;stroke-miterlimit:10;" d="M 147.320312 70.800781 C 147.320312 76.964844 138.074219 76.964844 138.074219 70.800781 C 138.074219 64.636719 147.320312 64.636719 147.320312 70.800781 "/>
<path style="fill-rule:nonzero;fill:rgb(99.215686%,96.470588%,89.019608%);fill-opacity:1;stroke-width:0.708661;stroke-linecap:round;stroke-linejoin:round;stroke:rgb(99.215686%,96.470588%,89.019608%);stroke-opacity:1;stroke-miterlimit:10;" d="M 86.445312 96.832031 C 86.445312 102.996094 77.203125 102.996094 77.203125 96.832031 C 77.203125 90.667969 86.445312 90.667969 86.445312 96.832031 "/>
<path style="fill-rule:nonzero;fill:rgb(99.215686%,96.470588%,89.019608%);fill-opacity:1;stroke-width:0.708661;stroke-linecap:round;stroke-linejoin:round;stroke:rgb(99.215686%,96.470588%,89.019608%);stroke-opacity:1;stroke-miterlimit:10;" d="M 109.339844 51.277344 C 109.339844 57.441406 100.09375 57.441406 100.09375 51.277344 C 100.09375 45.117188 109.339844 45.117188 109.339844 51.277344 "/>
<path style="fill-rule:nonzero;fill:rgb(99.215686%,96.470588%,89.019608%);fill-opacity:1;stroke-width:0.708661;stroke-linecap:round;stroke-linejoin:round;stroke:rgb(99.215686%,96.470588%,89.019608%);stroke-opacity:1;stroke-miterlimit:10;" d="M 174.894531 212.667969 C 174.894531 218.828125 165.648438 218.828125 165.648438 212.667969 C 165.648438 206.503906 174.894531 206.503906 174.894531 212.667969 "/>
<path style="fill-rule:nonzero;fill:rgb(99.215686%,96.470588%,89.019608%);fill-opacity:1;stroke-width:0.708661;stroke-linecap:round;stroke-linejoin:round;stroke:rgb(99.215686%,96.470588%,89.019608%);stroke-opacity:1;stroke-miterlimit:10;" d="M 284.671875 290.757812 C 284.671875 296.921875 275.429688 296.921875 275.429688 290.757812 C 275.429688 284.59375 284.671875 284.59375 284.671875 290.757812 "/>
<path style="fill-rule:nonzero;fill:rgb(99.215686%,96.470588%,89.019608%);fill-opacity:1;stroke-width:0.708661;stroke-linecap:round;stroke-linejoin:round;stroke:rgb(99.215686%,96.470588%,89.019608%);stroke-opacity:1;stroke-miterlimit:10;" d="M 275.828125 294.664062 C 275.828125 300.824219 266.582031 300.824219 266.582031 294.664062 C 266.582031 288.5 275.828125 288.5 275.828125 294.664062 "/>
<path style="fill-rule:nonzero;fill:rgb(99.215686%,96.470588%,89.019608%);fill-opacity:1;stroke-width:0.708661;stroke-linecap:round;stroke-linejoin:round;stroke:rgb(99.215686%,96.470588%,89.019608%);stroke-opacity:1;stroke-miterlimit:10;" d="M 317.96875 319.390625 C 317.96875 325.554688 308.726562 325.554688 308.726562 319.390625 C 308.726562 313.226562 317.96875 313.226562 317.96875 319.390625 "/>
<path style="fill-rule:nonzero;fill:rgb(99.215686%,96.470588%,89.019608%);fill-opacity:1;stroke-width:0.708661;stroke-linecap:round;stroke-linejoin:round;stroke:rgb(99.215686%,96.470588%,89.019608%);stroke-opacity:1;stroke-miterlimit:10;" d="M 318.492188 242.601562 C 318.492188 248.765625 309.246094 248.765625 309.246094 242.601562 C 309.246094 236.4375 318.492188 236.4375 318.492188 242.601562 "/>
<path style="fill-rule:nonzero;fill:rgb(99.215686%,96.470588%,89.019608%);fill-opacity:1;stroke-width:0.708661;stroke-linecap:round;stroke-linejoin:round;stroke:rgb(99.215686%,96.470588%,89.019608%);stroke-opacity:1;stroke-miterlimit:10;" d="M 119.742188 137.179688 C 119.742188 143.339844 110.5 143.339844 110.5 137.179688 C 110.5 131.015625 119.742188 131.015625 119.742188 137.179688 "/>
<path style="fill-rule:nonzero;fill:rgb(99.215686%,96.470588%,89.019608%);fill-opacity:1;stroke-width:0.708661;stroke-linecap:round;stroke-linejoin:round;stroke:rgb(99.215686%,96.470588%,89.019608%);stroke-opacity:1;stroke-miterlimit:10;" d="M 141.074219 154.097656 C 141.074219 160.261719 131.832031 160.261719 131.832031 154.097656 C 131.832031 147.933594 141.074219 147.933594 141.074219 154.097656 "/>
<path style="fill-rule:nonzero;fill:rgb(99.215686%,96.470588%,89.019608%);fill-opacity:1;stroke-width:0.708661;stroke-linecap:round;stroke-linejoin:round;stroke:rgb(99.215686%,96.470588%,89.019608%);stroke-opacity:1;stroke-miterlimit:10;" d="M 75.832031 96.832031 C 75.832031 102.996094 66.589844 102.996094 66.589844 96.832031 C 66.589844 90.667969 75.832031 90.667969 75.832031 96.832031 "/>
<path style="fill-rule:nonzero;fill:rgb(99.215686%,96.470588%,89.019608%);fill-opacity:1;stroke-width:0.708661;stroke-linecap:round;stroke-linejoin:round;stroke:rgb(99.215686%,96.470588%,89.019608%);stroke-opacity:1;stroke-miterlimit:10;" d="M 248.253906 286.851562 C 248.253906 293.015625 239.007812 293.015625 239.007812 286.851562 C 239.007812 280.691406 248.253906 280.691406 248.253906 286.851562 "/>
<path style="fill-rule:nonzero;fill:rgb(99.215686%,96.470588%,89.019608%);fill-opacity:1;stroke-width:0.708661;stroke-linecap:round;stroke-linejoin:round;stroke:rgb(99.215686%,96.470588%,89.019608%);stroke-opacity:1;stroke-miterlimit:10;" d="M 206.628906 236.09375 C 206.628906 242.257812 197.386719 242.257812 197.386719 236.09375 C 197.386719 229.929688 206.628906 229.929688 206.628906 236.09375 "/>
<path style="fill-rule:nonzero;fill:rgb(99.215686%,96.470588%,89.019608%);fill-opacity:1;stroke-width:0.708661;stroke-linecap:round;stroke-linejoin:round;stroke:rgb(99.215686%,96.470588%,89.019608%);stroke-opacity:1;stroke-miterlimit:10;" d="M 289.875 297.265625 C 289.875 303.429688 280.628906 303.429688 280.628906 297.265625 C 280.628906 291.101562 289.875 291.101562 289.875 297.265625 "/>
<path style="fill-rule:nonzero;fill:rgb(99.215686%,96.470588%,89.019608%);fill-opacity:1;stroke-width:0.708661;stroke-linecap:round;stroke-linejoin:round;stroke:rgb(99.215686%,96.470588%,89.019608%);stroke-opacity:1;stroke-miterlimit:10;" d="M 207.671875 213.96875 C 207.671875 220.132812 198.425781 220.132812 198.425781 213.96875 C 198.425781 207.804688 207.671875 207.804688 207.671875 213.96875 "/>
<path style=" stroke:none;fill-rule:nonzero;fill:rgb(39.607843%,45.882353%,46.27451%);fill-opacity:0.4;" d="M 71.210938 23.558594 L 76.363281 34.082031 L 81.511719 44.078125 L 86.664062 53.515625 L 91.816406 62.359375 L 96.96875 70.59375 L 102.117188 78.214844 L 107.269531 85.257812 L 112.421875 91.792969 L 117.574219 97.964844 L 122.722656 104.160156 L 127.875 110.460938 L 133.027344 116.855469 L 138.179688 123.300781 L 143.332031 129.753906 L 148.480469 136.152344 L 153.632812 142.445312 L 158.785156 148.582031 L 163.9375 154.519531 L 169.085938 160.21875 L 174.238281 165.621094 L 179.390625 170.5625 L 184.542969 174.863281 L 189.691406 178.382812 L 194.84375 181.121094 L 199.996094 183.304688 L 205.148438 185.371094 L 210.296875 187.886719 L 215.449219 191.378906 L 220.601562 195.609375 L 225.753906 200.0625 L 230.90625 204.246094 L 236.054688 207.875 L 241.207031 211.082031 L 246.359375 214.40625 L 251.511719 218.636719 L 256.660156 223.996094 L 261.8125 229.648438 L 266.964844 234.914062 L 272.117188 239.375 L 277.265625 243.480469 L 282.417969 247.445312 L 287.570312 250.933594 L 292.722656 253.992188 L 297.871094 256.488281 L 303.023438 258.253906 L 308.175781 259.160156 L 313.328125 259.082031 L 318.476562 258.3125 L 323.628906 257.539062 L 328.78125 256.914062 L 333.933594 256.523438 L 339.085938 256.40625 L 344.234375 256.582031 L 349.386719 257.054688 L 354.539062 257.828125 L 359.691406 258.890625 L 364.839844 260.230469 L 369.992188 261.835938 L 375.144531 263.683594 L 380.296875 265.757812 L 385.445312 268.035156 L 390.597656 270.488281 L 395.75 273.09375 L 400.902344 275.8125 L 406.050781 278.609375 L 411.203125 281.445312 L 416.355469 284.265625 L 421.507812 287.015625 L 426.660156 289.632812 L 431.808594 292.042969 L 436.960938 294.160156 L 442.113281 295.902344 L 447.265625 297.183594 L 452.414062 297.9375 L 457.566406 298.109375 L 462.71875 297.667969 L 467.871094 296.605469 L 473.019531 294.945312 L 478.171875 292.71875 L 478.171875 385.167969 L 473.019531 381.613281 L 467.871094 378.457031 L 462.71875 375.730469 L 457.566406 373.457031 L 452.414062 371.632812 L 447.265625 370.238281 L 442.113281 369.222656 L 436.960938 368.519531 L 431.808594 368.046875 L 426.660156 367.730469 L 421.507812 367.484375 L 416.355469 367.25 L 411.203125 366.957031 L 406.050781 366.558594 L 400.902344 366.007812 L 395.75 365.269531 L 390.597656 364.308594 L 385.445312 363.09375 L 380.296875 361.609375 L 375.144531 359.828125 L 369.992188 357.730469 L 364.839844 355.304688 L 359.691406 352.539062 L 354.539062 349.417969 L 349.386719 345.9375 L 344.234375 342.09375 L 339.085938 337.890625 L 333.933594 333.339844 L 328.78125 328.460938 L 323.628906 323.300781 L 318.476562 317.953125 L 313.328125 312.558594 L 308.175781 307.28125 L 303.023438 302.21875 L 297.871094 297.5 L 292.722656 293.226562 L 287.570312 289.480469 L 282.417969 286.175781 L 277.265625 282.832031 L 272.117188 279.644531 L 266.964844 276.171875 L 261.8125 272.03125 L 256.660156 267.859375 L 251.511719 264.035156 L 246.359375 260.671875 L 241.207031 257.476562 L 236.054688 254.746094 L 230.90625 252.765625 L 225.753906 251.410156 L 220.601562 250.136719 L 215.449219 248.183594 L 210.296875 245.027344 L 205.148438 241.527344 L 199.996094 238.054688 L 194.84375 234.796875 L 189.691406 231.808594 L 184.542969 228.929688 L 179.390625 225.777344 L 174.238281 221.832031 L 169.085938 216.5625 L 163.9375 210.472656 L 158.785156 203.984375 L 153.632812 197.21875 L 148.480469 190.273438 L 143.332031 183.25 L 138.179688 176.246094 L 133.027344 169.347656 L 127.875 162.65625 L 122.722656 156.28125 L 117.574219 150.355469 L 112.421875 145.023438 L 107.269531 140.238281 L 102.117188 136.078125 L 96.96875 132.621094 L 91.816406 129.894531 L 86.664062 127.90625 L 81.511719 126.636719 L 76.363281 126.058594 L 71.210938 126.140625 Z M 71.210938 23.558594 "/>
<path style="fill:none;stroke-width:5.334892;stroke-linecap:butt;stroke-linejoin:round;stroke:rgb(16.470588%,63.137255%,59.607843%);stroke-opacity:1;stroke-miterlimit:10;" d="M 71.210938 74.847656 L 76.363281 80.070312 L 81.511719 85.355469 L 86.664062 90.710938 L 91.816406 96.125 L 96.96875 101.605469 L 102.117188 107.148438 L 107.269531 112.746094 L 112.421875 118.40625 L 117.574219 124.160156 L 122.722656 130.21875 L 127.875 136.558594 L 133.027344 143.101562 L 138.179688 149.773438 L 143.332031 156.503906 L 148.480469 163.214844 L 153.632812 169.832031 L 158.785156 176.285156 L 163.9375 182.496094 L 169.085938 188.390625 L 174.238281 193.726562 L 179.390625 198.167969 L 184.542969 201.894531 L 189.691406 205.09375 L 194.84375 207.960938 L 199.996094 210.679688 L 205.148438 213.449219 L 210.296875 216.457031 L 215.449219 219.78125 L 220.601562 222.871094 L 225.753906 225.738281 L 230.90625 228.507812 L 236.054688 231.3125 L 241.207031 234.277344 L 246.359375 237.539062 L 251.511719 241.335938 L 256.660156 245.929688 L 261.8125 250.839844 L 266.964844 255.542969 L 272.117188 259.507812 L 277.265625 263.15625 L 282.417969 266.808594 L 287.570312 270.207031 L 292.722656 273.609375 L 297.871094 276.992188 L 303.023438 280.238281 L 308.175781 283.21875 L 313.328125 285.820312 L 318.476562 288.132812 L 323.628906 290.421875 L 328.78125 292.6875 L 333.933594 294.929688 L 339.085938 297.148438 L 344.234375 299.339844 L 349.386719 301.496094 L 354.539062 303.625 L 359.691406 305.714844 L 364.839844 307.769531 L 369.992188 309.78125 L 375.144531 311.753906 L 380.296875 313.683594 L 385.445312 315.566406 L 390.597656 317.398438 L 395.75 319.179688 L 400.902344 320.910156 L 406.050781 322.585938 L 411.203125 324.199219 L 416.355469 325.757812 L 421.507812 327.25 L 426.660156 328.683594 L 431.808594 330.046875 L 436.960938 331.339844 L 442.113281 332.5625 L 447.265625 333.710938 L 452.414062 334.785156 L 457.566406 335.78125 L 462.71875 336.699219 L 467.871094 337.53125 L 473.019531 338.28125 L 478.171875 338.941406 "/>
<path style=" stroke:none;fill-rule:evenodd;fill:rgb(65.490196%,68.235294%,65.098039%);fill-opacity:1;" d="M 34.089844 368.597656 L 32.558594 368.597656 L 32.558594 358 L 29.929688 359.179688 L 29.929688 357.734375 L 33.847656 356.023438 L 34.089844 356.023438 Z M 34.089844 368.597656 "/>
<path style=" stroke:none;fill-rule:evenodd;fill:rgb(65.490196%,68.235294%,65.098039%);fill-opacity:1;" d="M 44.933594 363.261719 L 44.925781 363.800781 L 44.902344 364.3125 L 44.859375 364.796875 L 44.804688 365.25 L 44.730469 365.679688 L 44.644531 366.082031 L 44.539062 366.453125 L 44.417969 366.796875 L 44.28125 367.113281 L 44.125 367.402344 L 43.957031 367.664062 L 43.765625 367.894531 L 43.558594 368.101562 L 43.332031 368.277344 L 43.089844 368.425781 L 42.824219 368.550781 L 42.542969 368.644531 L 42.246094 368.714844 L 41.925781 368.753906 L 41.589844 368.769531 L 41.265625 368.757812 L 40.953125 368.714844 L 40.660156 368.652344 L 40.386719 368.558594 L 40.128906 368.441406 L 39.886719 368.296875 L 39.660156 368.125 L 39.453125 367.929688 L 39.261719 367.703125 L 39.089844 367.453125 L 38.933594 367.179688 L 38.792969 366.875 L 38.667969 366.546875 L 38.554688 366.191406 L 38.460938 365.808594 L 38.382812 365.398438 L 38.324219 364.964844 L 38.277344 364.503906 L 38.246094 364.015625 L 38.230469 363.5 L 38.230469 361.351562 L 38.238281 360.820312 L 38.261719 360.3125 L 38.304688 359.832031 L 38.359375 359.382812 L 38.433594 358.960938 L 38.523438 358.5625 L 38.625 358.195312 L 38.746094 357.859375 L 38.886719 357.546875 L 39.039062 357.261719 L 39.210938 357.007812 L 39.402344 356.777344 L 39.609375 356.574219 L 39.835938 356.398438 L 40.082031 356.25 L 40.34375 356.128906 L 40.625 356.035156 L 40.921875 355.96875 L 41.238281 355.925781 L 41.574219 355.914062 L 41.902344 355.925781 L 42.214844 355.964844 L 42.511719 356.027344 L 42.785156 356.117188 L 43.046875 356.234375 L 43.285156 356.375 L 43.511719 356.539062 L 43.714844 356.734375 L 43.902344 356.949219 L 44.074219 357.195312 L 44.230469 357.460938 L 44.371094 357.757812 L 44.496094 358.082031 L 44.605469 358.429688 L 44.699219 358.800781 L 44.777344 359.203125 L 44.839844 359.628906 L 44.886719 360.082031 L 44.917969 360.5625 L 44.933594 361.070312 Z M 43.414062 361.085938 L 43.410156 360.699219 L 43.394531 360.335938 L 43.375 359.988281 L 43.34375 359.667969 L 43.304688 359.363281 L 43.253906 359.082031 L 43.199219 358.820312 L 43.132812 358.582031 L 43.058594 358.363281 L 42.972656 358.164062 L 42.882812 357.984375 L 42.777344 357.824219 L 42.664062 357.683594 L 42.539062 357.558594 L 42.40625 357.457031 L 42.261719 357.371094 L 42.105469 357.304688 L 41.9375 357.257812 L 41.761719 357.230469 L 41.574219 357.21875 L 41.390625 357.230469 L 41.21875 357.257812 L 41.054688 357.304688 L 40.902344 357.367188 L 40.761719 357.453125 L 40.628906 357.554688 L 40.507812 357.675781 L 40.394531 357.8125 L 40.292969 357.972656 L 40.199219 358.148438 L 40.113281 358.339844 L 40.039062 358.554688 L 39.972656 358.785156 L 39.914062 359.035156 L 39.867188 359.304688 L 39.824219 359.589844 L 39.792969 359.898438 L 39.765625 360.222656 L 39.75 360.566406 L 39.742188 360.933594 L 39.742188 363.511719 L 39.746094 363.894531 L 39.761719 364.261719 L 39.785156 364.609375 L 39.816406 364.933594 L 39.855469 365.242188 L 39.90625 365.527344 L 39.964844 365.796875 L 40.035156 366.046875 L 40.113281 366.273438 L 40.199219 366.484375 L 40.292969 366.671875 L 40.398438 366.839844 L 40.515625 366.988281 L 40.640625 367.117188 L 40.773438 367.222656 L 40.917969 367.3125 L 41.070312 367.382812 L 41.234375 367.433594 L 41.410156 367.460938 L 41.589844 367.472656 L 41.773438 367.460938 L 41.941406 367.433594 L 42.105469 367.386719 L 42.253906 367.320312 L 42.398438 367.238281 L 42.527344 367.132812 L 42.648438 367.011719 L 42.761719 366.871094 L 42.863281 366.710938 L 42.957031 366.535156 L 43.039062 366.335938 L 43.117188 366.121094 L 43.183594 365.882812 L 43.242188 365.628906 L 43.289062 365.351562 L 43.332031 365.054688 L 43.363281 364.738281 L 43.390625 364.402344 L 43.40625 364.046875 L 43.414062 363.671875 Z M 43.414062 361.085938 "/>
<path style=" stroke:none;fill-rule:evenodd;fill:rgb(65.490196%,68.235294%,65.098039%);fill-opacity:1;" d="M 36.554688 238.445312 L 29.558594 238.445312 L 29.558594 237.304688 L 33.125 232.578125 L 33.28125 232.363281 L 33.429688 232.15625 L 33.566406 231.957031 L 33.691406 231.765625 L 33.808594 231.582031 L 33.914062 231.410156 L 34.011719 231.242188 L 34.097656 231.082031 L 34.175781 230.933594 L 34.242188 230.789062 L 34.304688 230.648438 L 34.359375 230.503906 L 34.40625 230.359375 L 34.445312 230.210938 L 34.480469 230.066406 L 34.511719 229.914062 L 34.53125 229.765625 L 34.546875 229.613281 L 34.558594 229.457031 L 34.5625 229.300781 L 34.554688 229.105469 L 34.542969 228.917969 L 34.519531 228.738281 L 34.488281 228.566406 L 34.445312 228.398438 L 34.394531 228.242188 L 34.332031 228.089844 L 34.265625 227.949219 L 34.183594 227.8125 L 34.097656 227.6875 L 34 227.570312 L 33.898438 227.464844 L 33.792969 227.371094 L 33.679688 227.289062 L 33.558594 227.222656 L 33.433594 227.167969 L 33.304688 227.125 L 33.167969 227.09375 L 33.023438 227.074219 L 32.875 227.066406 L 32.691406 227.074219 L 32.511719 227.09375 L 32.34375 227.128906 L 32.183594 227.171875 L 32.03125 227.234375 L 31.886719 227.304688 L 31.75 227.390625 L 31.625 227.492188 L 31.507812 227.605469 L 31.398438 227.730469 L 31.300781 227.867188 L 31.214844 228.015625 L 31.136719 228.171875 L 31.070312 228.34375 L 31.011719 228.527344 L 30.964844 228.722656 L 30.929688 228.929688 L 30.902344 229.148438 L 30.886719 229.378906 L 30.882812 229.621094 L 29.363281 229.621094 L 29.371094 229.28125 L 29.398438 228.957031 L 29.445312 228.644531 L 29.511719 228.34375 L 29.597656 228.058594 L 29.703125 227.785156 L 29.824219 227.527344 L 29.96875 227.28125 L 30.128906 227.046875 L 30.308594 226.828125 L 30.503906 226.625 L 30.710938 226.441406 L 30.9375 226.285156 L 31.171875 226.144531 L 31.421875 226.027344 L 31.6875 225.933594 L 31.964844 225.855469 L 32.253906 225.804688 L 32.558594 225.773438 L 32.875 225.761719 L 33.167969 225.769531 L 33.449219 225.796875 L 33.714844 225.84375 L 33.972656 225.910156 L 34.214844 225.992188 L 34.441406 226.09375 L 34.660156 226.210938 L 34.863281 226.351562 L 35.054688 226.507812 L 35.230469 226.679688 L 35.394531 226.871094 L 35.539062 227.070312 L 35.667969 227.28125 L 35.78125 227.507812 L 35.875 227.746094 L 35.953125 227.992188 L 36.011719 228.253906 L 36.054688 228.527344 L 36.082031 228.816406 L 36.089844 229.113281 L 36.070312 229.492188 L 36.011719 229.882812 L 35.917969 230.289062 L 35.78125 230.707031 L 35.609375 231.140625 L 35.394531 231.585938 L 35.144531 232.042969 L 34.851562 232.515625 L 34.523438 233.003906 L 34.15625 233.503906 L 31.371094 237.148438 L 36.554688 237.148438 Z M 36.554688 238.445312 "/>
<path style=" stroke:none;fill-rule:evenodd;fill:rgb(65.490196%,68.235294%,65.098039%);fill-opacity:1;" d="M 44.933594 233.109375 L 44.925781 233.648438 L 44.902344 234.160156 L 44.859375 234.644531 L 44.804688 235.101562 L 44.730469 235.527344 L 44.644531 235.929688 L 44.539062 236.300781 L 44.417969 236.644531 L 44.28125 236.960938 L 44.125 237.25 L 43.957031 237.511719 L 43.765625 237.742188 L 43.558594 237.949219 L 43.332031 238.125 L 43.089844 238.277344 L 42.824219 238.398438 L 42.542969 238.496094 L 42.246094 238.5625 L 41.925781 238.605469 L 41.589844 238.617188 L 41.265625 238.605469 L 40.953125 238.566406 L 40.660156 238.5 L 40.386719 238.40625 L 40.128906 238.289062 L 39.886719 238.144531 L 39.660156 237.972656 L 39.453125 237.777344 L 39.261719 237.550781 L 39.089844 237.304688 L 38.933594 237.027344 L 38.792969 236.722656 L 38.667969 236.394531 L 38.554688 236.039062 L 38.460938 235.65625 L 38.382812 235.25 L 38.324219 234.8125 L 38.277344 234.351562 L 38.246094 233.863281 L 38.230469 233.351562 L 38.230469 231.203125 L 38.238281 230.667969 L 38.261719 230.160156 L 38.304688 229.683594 L 38.359375 229.230469 L 38.433594 228.808594 L 38.523438 228.414062 L 38.625 228.046875 L 38.746094 227.707031 L 38.886719 227.394531 L 39.039062 227.109375 L 39.210938 226.855469 L 39.402344 226.625 L 39.609375 226.421875 L 39.835938 226.246094 L 40.082031 226.097656 L 40.34375 225.976562 L 40.625 225.882812 L 40.921875 225.816406 L 41.238281 225.773438 L 41.574219 225.761719 L 41.902344 225.773438 L 42.214844 225.8125 L 42.511719 225.875 L 42.785156 225.964844 L 43.046875 226.082031 L 43.285156 226.222656 L 43.511719 226.390625 L 43.714844 226.582031 L 43.902344 226.796875 L 44.074219 227.042969 L 44.230469 227.3125 L 44.371094 227.605469 L 44.496094 227.929688 L 44.605469 228.277344 L 44.699219 228.652344 L 44.777344 229.050781 L 44.839844 229.480469 L 44.886719 229.933594 L 44.917969 230.410156 L 44.933594 230.917969 Z M 43.414062 230.933594 L 43.410156 230.546875 L 43.394531 230.183594 L 43.375 229.839844 L 43.34375 229.515625 L 43.304688 229.210938 L 43.253906 228.929688 L 43.199219 228.667969 L 43.132812 228.429688 L 43.058594 228.210938 L 42.972656 228.011719 L 42.882812 227.832031 L 42.777344 227.671875 L 42.664062 227.53125 L 42.539062 227.40625 L 42.40625 227.304688 L 42.261719 227.21875 L 42.105469 227.152344 L 41.9375 227.105469 L 41.761719 227.078125 L 41.574219 227.066406 L 41.390625 227.078125 L 41.21875 227.105469 L 41.054688 227.152344 L 40.902344 227.214844 L 40.761719 227.300781 L 40.628906 227.402344 L 40.507812 227.523438 L 40.394531 227.660156 L 40.292969 227.820312 L 40.199219 227.996094 L 40.113281 228.1875 L 40.039062 228.402344 L 39.972656 228.632812 L 39.914062 228.882812 L 39.867188 229.152344 L 39.824219 229.441406 L 39.792969 229.746094 L 39.765625 230.070312 L 39.75 230.417969 L 39.742188 230.78125 L 39.742188 233.359375 L 39.746094 233.742188 L 39.761719 234.109375 L 39.785156 234.457031 L 39.816406 234.78125 L 39.855469 235.089844 L 39.90625 235.378906 L 39.964844 235.644531 L 40.035156 235.894531 L 40.113281 236.121094 L 40.199219 236.332031 L 40.292969 236.519531 L 40.398438 236.6875 L 40.515625 236.835938 L 40.640625 236.964844 L 40.773438 237.074219 L 40.917969 237.160156 L 41.070312 237.230469 L 41.234375 237.28125 L 41.410156 237.308594 L 41.589844 237.320312 L 41.773438 237.3125 L 41.941406 237.28125 L 42.105469 237.234375 L 42.253906 237.171875 L 42.398438 237.085938 L 42.527344 236.984375 L 42.648438 236.859375 L 42.761719 236.71875 L 42.863281 236.5625 L 42.957031 236.382812 L 43.039062 236.1875 L 43.117188 235.96875 L 43.183594 235.730469 L 43.242188 235.476562 L 43.289062 235.199219 L 43.332031 234.902344 L 43.363281 234.585938 L 43.390625 234.253906 L 43.40625 233.898438 L 43.414062 233.523438 Z M 43.414062 230.933594 "/>
<path style=" stroke:none;fill-rule:evenodd;fill:rgb(65.490196%,68.235294%,65.098039%);fill-opacity:1;" d="M 31.5 101.265625 L 32.472656 101.265625 L 32.65625 101.257812 L 32.832031 101.242188 L 32.996094 101.210938 L 33.152344 101.171875 L 33.300781 101.121094 L 33.441406 101.058594 L 33.574219 100.980469 L 33.695312 100.894531 L 33.8125 100.796875 L 33.917969 100.6875 L 34.011719 100.570312 L 34.097656 100.441406 L 34.175781 100.304688 L 34.242188 100.160156 L 34.296875 100.007812 L 34.34375 99.847656 L 34.378906 99.675781 L 34.402344 99.496094 L 34.417969 99.3125 L 34.421875 99.117188 L 34.40625 98.699219 L 34.355469 98.324219 L 34.269531 97.992188 L 34.152344 97.707031 L 34 97.464844 L 33.8125 97.269531 L 33.589844 97.113281 L 33.335938 97.003906 L 33.046875 96.9375 L 32.722656 96.914062 L 32.5625 96.921875 L 32.410156 96.941406 L 32.265625 96.96875 L 32.125 97.011719 L 31.992188 97.0625 L 31.871094 97.128906 L 31.75 97.207031 L 31.640625 97.296875 L 31.539062 97.394531 L 31.441406 97.507812 L 31.351562 97.632812 L 31.273438 97.761719 L 31.203125 97.898438 L 31.144531 98.042969 L 31.09375 98.195312 L 31.050781 98.351562 L 31.019531 98.519531 L 30.996094 98.695312 L 30.980469 98.875 L 30.976562 99.0625 L 29.464844 99.0625 L 29.472656 98.769531 L 29.5 98.484375 L 29.546875 98.210938 L 29.609375 97.945312 L 29.691406 97.695312 L 29.792969 97.453125 L 29.910156 97.21875 L 30.046875 97 L 30.203125 96.789062 L 30.375 96.589844 L 30.566406 96.402344 L 30.765625 96.238281 L 30.972656 96.089844 L 31.191406 95.960938 L 31.421875 95.855469 L 31.660156 95.765625 L 31.910156 95.699219 L 32.171875 95.648438 L 32.441406 95.621094 L 32.722656 95.609375 L 33.011719 95.617188 L 33.289062 95.648438 L 33.554688 95.691406 L 33.808594 95.757812 L 34.046875 95.839844 L 34.277344 95.945312 L 34.492188 96.0625 L 34.695312 96.203125 L 34.886719 96.363281 L 35.066406 96.539062 L 35.234375 96.730469 L 35.378906 96.9375 L 35.511719 97.160156 L 35.625 97.398438 L 35.71875 97.652344 L 35.796875 97.917969 L 35.859375 98.203125 L 35.902344 98.503906 L 35.925781 98.820312 L 35.9375 99.148438 L 35.929688 99.324219 L 35.917969 99.492188 L 35.894531 99.660156 L 35.863281 99.828125 L 35.824219 99.992188 L 35.773438 100.152344 L 35.714844 100.3125 L 35.644531 100.46875 L 35.566406 100.621094 L 35.480469 100.773438 L 35.386719 100.921875 L 35.289062 101.058594 L 35.1875 101.1875 L 35.078125 101.308594 L 34.964844 101.421875 L 34.84375 101.53125 L 34.71875 101.628906 L 34.589844 101.71875 L 34.453125 101.800781 L 34.3125 101.875 L 34.648438 102.019531 L 34.949219 102.199219 L 35.214844 102.414062 L 35.445312 102.65625 L 35.640625 102.933594 L 35.800781 103.242188 L 35.921875 103.585938 L 36.011719 103.960938 L 36.066406 104.367188 L 36.082031 104.804688 L 36.074219 105.132812 L 36.042969 105.449219 L 35.996094 105.75 L 35.933594 106.035156 L 35.847656 106.3125 L 35.746094 106.570312 L 35.625 106.820312 L 35.484375 107.050781 L 35.324219 107.269531 L 35.144531 107.476562 L 34.953125 107.664062 L 34.75 107.832031 L 34.535156 107.980469 L 34.3125 108.109375 L 34.074219 108.21875 L 33.824219 108.308594 L 33.5625 108.378906 L 33.292969 108.425781 L 33.007812 108.457031 L 32.714844 108.464844 L 32.421875 108.457031 L 32.140625 108.429688 L 31.871094 108.382812 L 31.613281 108.316406 L 31.367188 108.230469 L 31.132812 108.128906 L 30.910156 108.007812 L 30.699219 107.867188 L 30.496094 107.707031 L 30.308594 107.527344 L 30.132812 107.332031 L 29.980469 107.125 L 29.84375 106.902344 L 29.722656 106.667969 L 29.625 106.421875 L 29.542969 106.164062 L 29.476562 105.890625 L 29.433594 105.605469 L 29.40625 105.304688 L 29.394531 104.992188 L 30.917969 104.992188 L 30.921875 105.1875 L 30.9375 105.375 L 30.960938 105.554688 L 30.996094 105.726562 L 31.039062 105.890625 L 31.089844 106.042969 L 31.152344 106.191406 L 31.226562 106.332031 L 31.308594 106.460938 L 31.398438 106.582031 L 31.5 106.695312 L 31.605469 106.792969 L 31.71875 106.882812 L 31.839844 106.957031 L 31.96875 107.023438 L 32.101562 107.074219 L 32.246094 107.117188 L 32.394531 107.144531 L 32.550781 107.164062 L 32.714844 107.167969 L 32.878906 107.164062 L 33.039062 107.144531 L 33.191406 107.117188 L 33.335938 107.074219 L 33.476562 107.023438 L 33.609375 106.960938 L 33.730469 106.886719 L 33.847656 106.800781 L 33.960938 106.703125 L 34.0625 106.59375 L 34.160156 106.472656 L 34.246094 106.339844 L 34.320312 106.191406 L 34.386719 106.035156 L 34.441406 105.867188 L 34.488281 105.683594 L 34.523438 105.492188 L 34.550781 105.285156 L 34.566406 105.070312 L 34.570312 104.839844 L 34.546875 104.40625 L 34.484375 104.019531 L 34.375 103.679688 L 34.226562 103.382812 L 34.03125 103.132812 L 33.792969 102.925781 L 33.511719 102.765625 L 33.1875 102.652344 L 32.824219 102.585938 L 32.414062 102.5625 L 31.5 102.5625 Z M 31.5 101.265625 "/>
<path style=" stroke:none;fill-rule:evenodd;fill:rgb(65.490196%,68.235294%,65.098039%);fill-opacity:1;" d="M 44.933594 102.957031 L 44.925781 103.496094 L 44.902344 104.007812 L 44.859375 104.492188 L 44.804688 104.949219 L 44.730469 105.375 L 44.644531 105.777344 L 44.539062 106.148438 L 44.417969 106.492188 L 44.28125 106.8125 L 44.125 107.097656 L 43.957031 107.359375 L 43.765625 107.589844 L 43.558594 107.796875 L 43.332031 107.972656 L 43.089844 108.125 L 42.824219 108.246094 L 42.542969 108.34375 L 42.246094 108.410156 L 41.925781 108.453125 L 41.589844 108.464844 L 41.265625 108.453125 L 40.953125 108.414062 L 40.660156 108.347656 L 40.386719 108.253906 L 40.128906 108.136719 L 39.886719 107.992188 L 39.660156 107.820312 L 39.453125 107.625 L 39.261719 107.402344 L 39.089844 107.152344 L 38.933594 106.875 L 38.792969 106.570312 L 38.667969 106.242188 L 38.554688 105.886719 L 38.460938 105.503906 L 38.382812 105.097656 L 38.324219 104.660156 L 38.277344 104.199219 L 38.246094 103.710938 L 38.230469 103.199219 L 38.230469 101.050781 L 38.238281 100.515625 L 38.261719 100.007812 L 38.304688 99.53125 L 38.359375 99.078125 L 38.433594 98.65625 L 38.523438 98.261719 L 38.625 97.894531 L 38.746094 97.554688 L 38.886719 97.242188 L 39.039062 96.957031 L 39.210938 96.703125 L 39.402344 96.472656 L 39.609375 96.269531 L 39.835938 96.09375 L 40.082031 95.945312 L 40.34375 95.824219 L 40.625 95.730469 L 40.921875 95.664062 L 41.238281 95.625 L 41.574219 95.609375 L 41.902344 95.621094 L 42.214844 95.660156 L 42.511719 95.726562 L 42.785156 95.816406 L 43.046875 95.929688 L 43.285156 96.070312 L 43.511719 96.238281 L 43.714844 96.429688 L 43.902344 96.648438 L 44.074219 96.890625 L 44.230469 97.160156 L 44.371094 97.453125 L 44.496094 97.777344 L 44.605469 98.125 L 44.699219 98.5 L 44.777344 98.898438 L 44.839844 99.328125 L 44.886719 99.78125 L 44.917969 100.261719 L 44.933594 100.765625 Z M 43.414062 100.78125 L 43.410156 100.398438 L 43.394531 100.03125 L 43.375 99.6875 L 43.34375 99.363281 L 43.304688 99.058594 L 43.253906 98.777344 L 43.199219 98.519531 L 43.132812 98.277344 L 43.058594 98.058594 L 42.972656 97.859375 L 42.882812 97.679688 L 42.777344 97.519531 L 42.664062 97.378906 L 42.539062 97.257812 L 42.40625 97.152344 L 42.261719 97.066406 L 42.105469 97 L 41.9375 96.953125 L 41.761719 96.925781 L 41.574219 96.914062 L 41.390625 96.925781 L 41.21875 96.953125 L 41.054688 97 L 40.902344 97.0625 L 40.761719 97.148438 L 40.628906 97.25 L 40.507812 97.371094 L 40.394531 97.511719 L 40.292969 97.667969 L 40.199219 97.84375 L 40.113281 98.039062 L 40.039062 98.25 L 39.972656 98.480469 L 39.914062 98.730469 L 39.867188 99 L 39.824219 99.289062 L 39.792969 99.59375 L 39.765625 99.921875 L 39.75 100.265625 L 39.742188 100.628906 L 39.742188 103.207031 L 39.746094 103.59375 L 39.761719 103.957031 L 39.785156 104.304688 L 39.816406 104.632812 L 39.855469 104.9375 L 39.90625 105.226562 L 39.964844 105.492188 L 40.035156 105.742188 L 40.113281 105.972656 L 40.199219 106.179688 L 40.292969 106.367188 L 40.398438 106.535156 L 40.515625 106.683594 L 40.640625 106.8125 L 40.773438 106.921875 L 40.917969 107.011719 L 41.070312 107.078125 L 41.234375 107.128906 L 41.410156 107.160156 L 41.589844 107.167969 L 41.773438 107.160156 L 41.941406 107.128906 L 42.105469 107.082031 L 42.253906 107.019531 L 42.398438 106.933594 L 42.527344 106.832031 L 42.648438 106.710938 L 42.761719 106.570312 L 42.863281 106.410156 L 42.957031 106.230469 L 43.039062 106.035156 L 43.117188 105.816406 L 43.183594 105.582031 L 43.242188 105.324219 L 43.289062 105.046875 L 43.332031 104.75 L 43.363281 104.4375 L 43.390625 104.101562 L 43.40625 103.746094 L 43.414062 103.371094 Z M 43.414062 100.78125 "/>
<path style="fill:none;stroke-width:1.066978;stroke-linecap:butt;stroke-linejoin:round;stroke:rgb(77.254902%,77.647059%,73.333333%);stroke-opacity:1;stroke-miterlimit:10;" d="M 48.121094 362.339844 L 50.863281 362.339844 "/>
<path style="fill:none;stroke-width:1.066978;stroke-linecap:butt;stroke-linejoin:round;stroke:rgb(77.254902%,77.647059%,73.333333%);stroke-opacity:1;stroke-miterlimit:10;" d="M 48.121094 232.191406 L 50.863281 232.191406 "/>
<path style="fill:none;stroke-width:1.066978;stroke-linecap:butt;stroke-linejoin:round;stroke:rgb(77.254902%,77.647059%,73.333333%);stroke-opacity:1;stroke-miterlimit:10;" d="M 48.121094 102.039062 L 50.863281 102.039062 "/>
<path style="fill:none;stroke-width:1.066978;stroke-linecap:butt;stroke-linejoin:round;stroke:rgb(77.254902%,77.647059%,73.333333%);stroke-opacity:1;stroke-miterlimit:10;" d="M 121.886719 405.984375 L 121.886719 403.246094 "/>
<path style="fill:none;stroke-width:1.066978;stroke-linecap:butt;stroke-linejoin:round;stroke:rgb(77.254902%,77.647059%,73.333333%);stroke-opacity:1;stroke-miterlimit:10;" d="M 225.941406 405.984375 L 225.941406 403.246094 "/>
<path style="fill:none;stroke-width:1.066978;stroke-linecap:butt;stroke-linejoin:round;stroke:rgb(77.254902%,77.647059%,73.333333%);stroke-opacity:1;stroke-miterlimit:10;" d="M 329.996094 405.984375 L 329.996094 403.246094 "/>
<path style="fill:none;stroke-width:1.066978;stroke-linecap:butt;stroke-linejoin:round;stroke:rgb(77.254902%,77.647059%,73.333333%);stroke-opacity:1;stroke-miterlimit:10;" d="M 434.054688 405.984375 L 434.054688 403.246094 "/>
<path style=" stroke:none;fill-rule:evenodd;fill:rgb(65.490196%,68.235294%,65.098039%);fill-opacity:1;" d="M 125.542969 420.691406 L 118.546875 420.691406 L 118.546875 419.546875 L 122.113281 414.820312 L 122.269531 414.605469 L 122.417969 414.398438 L 122.554688 414.203125 L 122.679688 414.011719 L 122.796875 413.828125 L 122.902344 413.652344 L 123 413.488281 L 123.085938 413.328125 L 123.164062 413.175781 L 123.230469 413.035156 L 123.289062 412.890625 L 123.34375 412.75 L 123.390625 412.605469 L 123.433594 412.457031 L 123.46875 412.308594 L 123.496094 412.160156 L 123.519531 412.007812 L 123.535156 411.855469 L 123.546875 411.703125 L 123.546875 411.546875 L 123.542969 411.351562 L 123.53125 411.164062 L 123.507812 410.984375 L 123.472656 410.808594 L 123.433594 410.644531 L 123.382812 410.488281 L 123.320312 410.335938 L 123.25 410.195312 L 123.171875 410.058594 L 123.085938 409.929688 L 122.988281 409.8125 L 122.886719 409.707031 L 122.78125 409.617188 L 122.667969 409.535156 L 122.546875 409.46875 L 122.421875 409.410156 L 122.292969 409.367188 L 122.15625 409.335938 L 122.011719 409.320312 L 121.863281 409.3125 L 121.675781 409.320312 L 121.5 409.339844 L 121.332031 409.371094 L 121.167969 409.417969 L 121.015625 409.476562 L 120.875 409.550781 L 120.738281 409.636719 L 120.613281 409.734375 L 120.496094 409.847656 L 120.386719 409.972656 L 120.289062 410.109375 L 120.199219 410.257812 L 120.121094 410.417969 L 120.054688 410.589844 L 120 410.773438 L 119.953125 410.96875 L 119.917969 411.175781 L 119.890625 411.394531 L 119.875 411.621094 L 119.871094 411.863281 L 118.347656 411.863281 L 118.359375 411.527344 L 118.386719 411.199219 L 118.433594 410.886719 L 118.5 410.589844 L 118.585938 410.300781 L 118.691406 410.03125 L 118.8125 409.769531 L 118.953125 409.523438 L 119.113281 409.292969 L 119.292969 409.070312 L 119.492188 408.871094 L 119.699219 408.6875 L 119.921875 408.527344 L 120.160156 408.390625 L 120.410156 408.273438 L 120.671875 408.175781 L 120.949219 408.101562 L 121.242188 408.046875 L 121.546875 408.015625 L 121.863281 408.007812 L 122.15625 408.015625 L 122.4375 408.042969 L 122.703125 408.089844 L 122.957031 408.152344 L 123.199219 408.234375 L 123.429688 408.335938 L 123.644531 408.457031 L 123.847656 408.59375 L 124.039062 408.75 L 124.21875 408.925781 L 124.382812 409.113281 L 124.527344 409.3125 L 124.65625 409.527344 L 124.769531 409.75 L 124.863281 409.988281 L 124.941406 410.238281 L 125 410.5 L 125.042969 410.773438 L 125.070312 411.058594 L 125.078125 411.359375 L 125.058594 411.734375 L 125 412.128906 L 124.902344 412.53125 L 124.769531 412.953125 L 124.59375 413.382812 L 124.382812 413.828125 L 124.128906 414.289062 L 123.839844 414.761719 L 123.511719 415.25 L 123.144531 415.75 L 120.359375 419.394531 L 125.542969 419.394531 Z M 125.542969 420.691406 "/>
<path style=" stroke:none;fill-rule:evenodd;fill:rgb(65.490196%,68.235294%,65.098039%);fill-opacity:1;" d="M 224.542969 413.660156 L 225.515625 413.660156 L 225.699219 413.65625 L 225.875 413.636719 L 226.039062 413.609375 L 226.195312 413.570312 L 226.34375 413.515625 L 226.484375 413.453125 L 226.617188 413.378906 L 226.738281 413.292969 L 226.855469 413.195312 L 226.960938 413.085938 L 227.054688 412.964844 L 227.140625 412.835938 L 227.21875 412.703125 L 227.285156 412.558594 L 227.339844 412.402344 L 227.386719 412.242188 L 227.421875 412.074219 L 227.445312 411.894531 L 227.460938 411.707031 L 227.464844 411.511719 L 227.449219 411.09375 L 227.398438 410.71875 L 227.3125 410.390625 L 227.195312 410.105469 L 227.042969 409.863281 L 226.855469 409.664062 L 226.632812 409.511719 L 226.378906 409.398438 L 226.089844 409.335938 L 225.765625 409.3125 L 225.605469 409.316406 L 225.453125 409.335938 L 225.308594 409.367188 L 225.167969 409.40625 L 225.035156 409.460938 L 224.914062 409.527344 L 224.792969 409.601562 L 224.683594 409.691406 L 224.582031 409.792969 L 224.484375 409.90625 L 224.394531 410.027344 L 224.316406 410.15625 L 224.246094 410.292969 L 224.1875 410.4375 L 224.136719 410.589844 L 224.09375 410.75 L 224.0625 410.917969 L 224.039062 411.089844 L 224.023438 411.273438 L 224.019531 411.460938 L 222.507812 411.460938 L 222.515625 411.164062 L 222.542969 410.878906 L 222.589844 410.605469 L 222.652344 410.34375 L 222.734375 410.089844 L 222.835938 409.847656 L 222.953125 409.617188 L 223.089844 409.394531 L 223.246094 409.183594 L 223.417969 408.984375 L 223.609375 408.800781 L 223.808594 408.632812 L 224.015625 408.484375 L 224.234375 408.359375 L 224.464844 408.25 L 224.703125 408.164062 L 224.953125 408.09375 L 225.214844 408.046875 L 225.484375 408.015625 L 225.765625 408.007812 L 226.054688 408.015625 L 226.332031 408.042969 L 226.597656 408.089844 L 226.851562 408.15625 L 227.089844 408.238281 L 227.320312 408.339844 L 227.535156 408.460938 L 227.738281 408.601562 L 227.929688 408.757812 L 228.109375 408.933594 L 228.277344 409.125 L 228.421875 409.332031 L 228.554688 409.554688 L 228.667969 409.792969 L 228.761719 410.046875 L 228.839844 410.316406 L 228.902344 410.601562 L 228.945312 410.902344 L 228.96875 411.214844 L 228.980469 411.546875 L 228.972656 411.71875 L 228.960938 411.890625 L 228.9375 412.058594 L 228.90625 412.222656 L 228.867188 412.386719 L 228.816406 412.546875 L 228.757812 412.707031 L 228.6875 412.863281 L 228.609375 413.019531 L 228.523438 413.171875 L 228.429688 413.316406 L 228.332031 413.453125 L 228.230469 413.582031 L 228.121094 413.707031 L 228.007812 413.820312 L 227.886719 413.925781 L 227.761719 414.023438 L 227.632812 414.113281 L 227.496094 414.195312 L 227.355469 414.269531 L 227.691406 414.417969 L 227.992188 414.597656 L 228.257812 414.808594 L 228.488281 415.054688 L 228.683594 415.328125 L 228.84375 415.640625 L 228.964844 415.980469 L 229.054688 416.355469 L 229.109375 416.761719 L 229.125 417.203125 L 229.117188 417.53125 L 229.085938 417.84375 L 229.039062 418.144531 L 228.976562 418.433594 L 228.890625 418.707031 L 228.789062 418.96875 L 228.667969 419.214844 L 228.527344 419.449219 L 228.367188 419.667969 L 228.1875 419.875 L 227.996094 420.0625 L 227.792969 420.230469 L 227.578125 420.378906 L 227.355469 420.507812 L 227.117188 420.613281 L 226.867188 420.703125 L 226.605469 420.773438 L 226.335938 420.824219 L 226.050781 420.851562 L 225.757812 420.863281 L 225.464844 420.851562 L 225.183594 420.824219 L 224.914062 420.777344 L 224.65625 420.710938 L 224.410156 420.628906 L 224.175781 420.523438 L 223.953125 420.402344 L 223.742188 420.261719 L 223.539062 420.105469 L 223.351562 419.925781 L 223.175781 419.730469 L 223.023438 419.523438 L 222.886719 419.300781 L 222.765625 419.066406 L 222.667969 418.820312 L 222.585938 418.558594 L 222.519531 418.285156 L 222.476562 418 L 222.449219 417.703125 L 222.4375 417.390625 L 223.960938 417.390625 L 223.964844 417.585938 L 223.980469 417.773438 L 224.003906 417.953125 L 224.039062 418.125 L 224.082031 418.285156 L 224.132812 418.441406 L 224.195312 418.589844 L 224.269531 418.726562 L 224.351562 418.859375 L 224.441406 418.980469 L 224.542969 419.089844 L 224.648438 419.191406 L 224.761719 419.277344 L 224.882812 419.355469 L 225.011719 419.417969 L 225.144531 419.472656 L 225.289062 419.511719 L 225.4375 419.542969 L 225.59375 419.558594 L 225.757812 419.566406 L 225.921875 419.558594 L 226.082031 419.542969 L 226.234375 419.511719 L 226.378906 419.472656 L 226.519531 419.421875 L 226.652344 419.355469 L 226.773438 419.28125 L 226.890625 419.195312 L 227.003906 419.097656 L 227.105469 418.988281 L 227.203125 418.867188 L 227.289062 418.734375 L 227.363281 418.589844 L 227.429688 418.433594 L 227.484375 418.261719 L 227.53125 418.082031 L 227.566406 417.886719 L 227.59375 417.683594 L 227.609375 417.464844 L 227.613281 417.234375 L 227.589844 416.804688 L 227.527344 416.414062 L 227.417969 416.074219 L 227.269531 415.777344 L 227.074219 415.527344 L 226.835938 415.324219 L 226.554688 415.164062 L 226.230469 415.050781 L 225.867188 414.980469 L 225.457031 414.957031 L 224.542969 414.957031 Z M 224.542969 413.660156 "/>
<path style=" stroke:none;fill-rule:evenodd;fill:rgb(65.490196%,68.235294%,65.098039%);fill-opacity:1;" d="M 332.417969 416.488281 L 333.808594 416.488281 L 333.808594 417.785156 L 332.417969 417.785156 L 332.417969 420.691406 L 330.894531 420.691406 L 330.894531 417.785156 L 326.167969 417.785156 L 326.167969 416.847656 L 330.816406 408.179688 L 332.417969 408.179688 Z M 327.851562 416.488281 L 330.894531 416.488281 L 330.894531 410.542969 Z M 327.851562 416.488281 "/>
<path style=" stroke:none;fill-rule:evenodd;fill:rgb(65.490196%,68.235294%,65.098039%);fill-opacity:1;" d="M 431.332031 414.417969 L 431.875 408.179688 L 437.3125 408.179688 L 437.3125 409.648438 L 433.15625 409.648438 L 432.863281 413.058594 L 433.019531 412.957031 L 433.175781 412.863281 L 433.335938 412.78125 L 433.5 412.710938 L 433.667969 412.652344 L 433.835938 412.605469 L 434.003906 412.566406 L 434.175781 412.539062 L 434.351562 412.523438 L 434.53125 412.519531 L 434.816406 412.527344 L 435.089844 412.5625 L 435.351562 412.621094 L 435.597656 412.699219 L 435.832031 412.800781 L 436.058594 412.925781 L 436.269531 413.074219 L 436.464844 413.242188 L 436.652344 413.4375 L 436.824219 413.652344 L 436.984375 413.886719 L 437.125 414.136719 L 437.25 414.402344 L 437.359375 414.683594 L 437.449219 414.980469 L 437.523438 415.292969 L 437.582031 415.625 L 437.625 415.96875 L 437.648438 416.328125 L 437.65625 416.703125 L 437.648438 417.082031 L 437.621094 417.445312 L 437.574219 417.792969 L 437.511719 418.125 L 437.429688 418.4375 L 437.328125 418.734375 L 437.210938 419.011719 L 437.074219 419.277344 L 436.921875 419.523438 L 436.746094 419.753906 L 436.558594 419.964844 L 436.359375 420.152344 L 436.144531 420.320312 L 435.917969 420.464844 L 435.675781 420.585938 L 435.417969 420.683594 L 435.152344 420.761719 L 434.867188 420.816406 L 434.574219 420.851562 L 434.261719 420.863281 L 433.988281 420.851562 L 433.71875 420.824219 L 433.464844 420.78125 L 433.21875 420.714844 L 432.984375 420.632812 L 432.761719 420.53125 L 432.546875 420.410156 L 432.34375 420.273438 L 432.152344 420.117188 L 431.96875 419.941406 L 431.800781 419.75 L 431.644531 419.546875 L 431.503906 419.328125 L 431.382812 419.09375 L 431.273438 418.847656 L 431.179688 418.585938 L 431.101562 418.308594 L 431.035156 418.019531 L 430.988281 417.714844 L 430.953125 417.398438 L 432.382812 417.398438 L 432.410156 417.609375 L 432.445312 417.808594 L 432.492188 417.996094 L 432.539062 418.175781 L 432.597656 418.34375 L 432.664062 418.5 L 432.734375 418.644531 L 432.8125 418.78125 L 432.898438 418.90625 L 432.992188 419.023438 L 433.09375 419.125 L 433.199219 419.21875 L 433.3125 419.300781 L 433.429688 419.371094 L 433.554688 419.429688 L 433.683594 419.476562 L 433.820312 419.515625 L 433.960938 419.542969 L 434.109375 419.558594 L 434.261719 419.566406 L 434.4375 419.558594 L 434.601562 419.535156 L 434.757812 419.496094 L 434.910156 419.441406 L 435.050781 419.375 L 435.1875 419.289062 L 435.3125 419.191406 L 435.433594 419.074219 L 435.542969 418.945312 L 435.648438 418.800781 L 435.742188 418.640625 L 435.828125 418.46875 L 435.902344 418.289062 L 435.964844 418.097656 L 436.019531 417.894531 L 436.066406 417.679688 L 436.101562 417.457031 L 436.125 417.222656 L 436.140625 416.976562 L 436.144531 416.71875 L 436.140625 416.480469 L 436.125 416.246094 L 436.097656 416.023438 L 436.058594 415.808594 L 436.011719 415.605469 L 435.949219 415.410156 L 435.878906 415.222656 L 435.800781 415.046875 L 435.707031 414.878906 L 435.605469 414.71875 L 435.492188 414.570312 L 435.375 414.4375 L 435.25 414.324219 L 435.117188 414.222656 L 434.976562 414.136719 L 434.828125 414.066406 L 434.671875 414.015625 L 434.507812 413.976562 L 434.339844 413.953125 L 434.160156 413.945312 L 434.011719 413.949219 L 433.871094 413.960938 L 433.734375 413.980469 L 433.601562 414.007812 L 433.480469 414.042969 L 433.359375 414.085938 L 433.25 414.136719 L 433.144531 414.199219 L 433.042969 414.265625 L 432.949219 414.339844 L 432.542969 414.742188 Z M 431.332031 414.417969 "/>
<path style=" stroke:none;fill-rule:evenodd;fill:rgb(99.215686%,96.470588%,89.019608%);fill-opacity:1;" d="M 274.378906 439.484375 L 276.140625 431.203125 L 278.019531 431.203125 L 275.175781 442.828125 L 273.660156 442.828125 L 271.394531 434.511719 L 269.179688 442.828125 L 267.65625 442.828125 L 264.828125 431.203125 L 266.699219 431.203125 L 268.503906 439.28125 L 270.664062 431.203125 L 272.167969 431.203125 Z M 274.378906 439.484375 "/>
<path style=" stroke:none;fill-rule:evenodd;fill:rgb(99.215686%,96.470588%,89.019608%);fill-opacity:1;" d="M 282.5 428.390625 L 282.5 431.203125 L 284.25 431.203125 L 284.25 432.738281 L 282.5 432.738281 L 282.5 439.949219 L 282.503906 440.082031 L 282.511719 440.210938 L 282.519531 440.328125 L 282.535156 440.445312 L 282.558594 440.550781 L 282.582031 440.652344 L 282.613281 440.746094 L 282.644531 440.835938 L 282.683594 440.914062 L 282.726562 440.988281 L 282.773438 441.058594 L 282.828125 441.117188 L 282.890625 441.171875 L 282.957031 441.214844 L 283.03125 441.253906 L 283.113281 441.285156 L 283.199219 441.3125 L 283.292969 441.328125 L 283.394531 441.339844 L 283.5 441.34375 L 283.574219 441.34375 L 283.652344 441.339844 L 283.800781 441.324219 L 283.878906 441.3125 L 283.953125 441.296875 L 284.03125 441.28125 L 284.109375 441.261719 L 284.183594 441.238281 L 284.261719 441.214844 L 284.242188 442.828125 L 284.113281 442.867188 L 283.980469 442.902344 L 283.851562 442.9375 L 283.71875 442.964844 L 283.589844 442.988281 L 283.457031 443.007812 L 283.324219 443.023438 L 283.1875 443.03125 L 283.054688 443.039062 L 282.917969 443.042969 L 282.699219 443.03125 L 282.488281 443.007812 L 282.292969 442.96875 L 282.101562 442.914062 L 281.925781 442.839844 L 281.757812 442.75 L 281.605469 442.644531 L 281.457031 442.527344 L 281.324219 442.386719 L 281.199219 442.234375 L 281.089844 442.066406 L 280.988281 441.886719 L 280.898438 441.691406 L 280.824219 441.484375 L 280.757812 441.261719 L 280.703125 441.027344 L 280.664062 440.78125 L 280.632812 440.519531 L 280.617188 440.246094 L 280.609375 439.957031 L 280.609375 432.738281 L 278.835938 432.738281 L 278.835938 431.203125 L 280.609375 431.203125 L 280.609375 428.390625 Z M 282.5 428.390625 "/>
<path style=" stroke:none;fill-rule:evenodd;fill:rgb(99.215686%,96.470588%,89.019608%);fill-opacity:1;" d="M 9.496094 220.273438 L 10.570312 220.230469 L 10.328125 220.007812 L 10.105469 219.777344 L 9.914062 219.53125 L 9.746094 219.269531 L 9.605469 218.996094 L 9.488281 218.710938 L 9.398438 218.410156 L 9.332031 218.09375 L 9.296875 217.765625 L 9.28125 217.425781 L 9.300781 217.046875 L 9.351562 216.695312 L 9.433594 216.363281 L 9.550781 216.058594 L 9.703125 215.773438 L 9.890625 215.515625 L 10.109375 215.277344 L 10.363281 215.0625 L 10.648438 214.875 L 10.96875 214.707031 L 10.648438 214.480469 L 10.363281 214.234375 L 10.109375 213.972656 L 9.890625 213.695312 L 9.703125 213.398438 L 9.550781 213.082031 L 9.433594 212.753906 L 9.351562 212.40625 L 9.300781 212.039062 L 9.28125 211.65625 L 9.320312 211.046875 L 9.441406 210.496094 L 9.644531 210.011719 L 9.921875 209.589844 L 10.285156 209.230469 L 10.726562 208.933594 L 11.246094 208.695312 L 11.847656 208.523438 L 12.527344 208.417969 L 13.289062 208.371094 L 21.121094 208.371094 L 21.121094 210.261719 L 13.472656 210.261719 L 13.226562 210.265625 L 12.992188 210.277344 L 12.769531 210.300781 L 12.5625 210.332031 L 12.367188 210.375 L 12.1875 210.421875 L 12.019531 210.480469 L 11.863281 210.550781 L 11.722656 210.625 L 11.589844 210.710938 L 11.472656 210.808594 L 11.367188 210.917969 L 11.273438 211.039062 L 11.191406 211.171875 L 11.125 211.320312 L 11.070312 211.476562 L 11.023438 211.648438 L 10.992188 211.832031 L 10.976562 212.027344 L 10.96875 212.238281 L 10.976562 212.40625 L 10.996094 212.566406 L 11.027344 212.722656 L 11.074219 212.871094 L 11.136719 213.015625 L 11.207031 213.152344 L 11.296875 213.28125 L 11.394531 213.40625 L 11.507812 213.523438 L 11.632812 213.632812 L 11.773438 213.738281 L 11.914062 213.832031 L 12.066406 213.914062 L 12.226562 213.992188 L 12.390625 214.058594 L 12.566406 214.117188 L 12.746094 214.164062 L 12.933594 214.203125 L 13.128906 214.234375 L 13.332031 214.257812 L 21.121094 214.257812 L 21.121094 216.167969 L 13.386719 216.167969 L 12.925781 216.195312 L 12.515625 216.257812 L 12.152344 216.359375 L 11.839844 216.5 L 11.574219 216.675781 L 11.355469 216.890625 L 11.1875 217.144531 L 11.066406 217.4375 L 10.992188 217.765625 L 10.96875 218.132812 L 10.984375 218.414062 L 11.027344 218.675781 L 11.097656 218.921875 L 11.199219 219.148438 L 11.328125 219.363281 L 11.488281 219.554688 L 11.675781 219.734375 L 11.890625 219.894531 L 12.132812 220.039062 L 12.40625 220.164062 L 21.121094 220.164062 L 21.121094 222.054688 L 9.496094 222.054688 Z M 9.496094 220.273438 "/>
<path style=" stroke:none;fill-rule:evenodd;fill:rgb(99.215686%,96.470588%,89.019608%);fill-opacity:1;" d="M 15.867188 197.113281 L 16.40625 197.121094 L 16.914062 197.152344 L 17.398438 197.203125 L 17.851562 197.273438 L 18.277344 197.363281 L 18.671875 197.472656 L 19.042969 197.601562 L 19.382812 197.75 L 19.695312 197.921875 L 19.980469 198.109375 L 20.238281 198.316406 L 20.46875 198.539062 L 20.671875 198.777344 L 20.847656 199.035156 L 20.996094 199.304688 L 21.117188 199.59375 L 21.214844 199.898438 L 21.28125 200.222656 L 21.320312 200.558594 L 21.335938 200.914062 L 21.320312 201.257812 L 21.28125 201.582031 L 21.214844 201.894531 L 21.125 202.1875 L 21.003906 202.464844 L 20.859375 202.726562 L 20.6875 202.972656 L 20.488281 203.199219 L 20.265625 203.414062 L 20.011719 203.609375 L 25.589844 203.609375 L 25.589844 205.5 L 9.496094 205.5 L 9.496094 203.78125 L 10.785156 203.6875 L 10.5 203.488281 L 10.246094 203.269531 L 10.019531 203.039062 L 9.824219 202.789062 L 9.65625 202.523438 L 9.523438 202.242188 L 9.417969 201.941406 L 9.34375 201.628906 L 9.296875 201.296875 L 9.28125 200.945312 L 9.296875 200.574219 L 9.335938 200.222656 L 9.402344 199.886719 L 9.496094 199.570312 L 9.613281 199.277344 L 9.761719 199 L 9.933594 198.742188 L 10.132812 198.507812 L 10.359375 198.289062 L 10.613281 198.089844 L 10.894531 197.910156 L 11.199219 197.746094 L 11.53125 197.605469 L 11.890625 197.480469 L 12.277344 197.371094 L 12.6875 197.285156 L 13.125 197.214844 L 13.589844 197.160156 L 14.082031 197.128906 L 14.597656 197.113281 Z M 14.78125 199.003906 L 14.402344 199.007812 L 14.042969 199.027344 L 13.703125 199.058594 L 13.382812 199.097656 L 13.085938 199.152344 L 12.808594 199.21875 L 12.550781 199.296875 L 12.3125 199.386719 L 12.097656 199.488281 L 11.902344 199.605469 L 11.726562 199.730469 L 11.566406 199.875 L 11.425781 200.03125 L 11.304688 200.203125 L 11.203125 200.386719 L 11.117188 200.589844 L 11.054688 200.804688 L 11.007812 201.035156 L 10.976562 201.277344 L 10.96875 201.539062 L 10.980469 201.804688 L 11.023438 202.058594 L 11.089844 202.296875 L 11.1875 202.523438 L 11.308594 202.738281 L 11.460938 202.9375 L 11.636719 203.125 L 11.84375 203.300781 L 12.074219 203.460938 L 12.332031 203.609375 L 18.378906 203.609375 L 18.632812 203.464844 L 18.859375 203.304688 L 19.058594 203.128906 L 19.234375 202.941406 L 19.378906 202.738281 L 19.5 202.523438 L 19.59375 202.292969 L 19.660156 202.046875 L 19.699219 201.789062 L 19.710938 201.515625 L 19.703125 201.265625 L 19.675781 201.027344 L 19.628906 200.804688 L 19.566406 200.59375 L 19.480469 200.398438 L 19.378906 200.21875 L 19.261719 200.046875 L 19.121094 199.894531 L 18.964844 199.753906 L 18.789062 199.625 L 18.59375 199.507812 L 18.375 199.40625 L 18.140625 199.3125 L 17.886719 199.230469 L 17.609375 199.164062 L 17.316406 199.105469 L 17 199.0625 L 16.667969 199.03125 L 16.316406 199.011719 L 15.941406 199.003906 Z M 14.78125 199.003906 "/>
<path style=" stroke:none;fill-rule:evenodd;fill:rgb(99.215686%,96.470588%,89.019608%);fill-opacity:1;" d="M 14.78125 195.039062 L 14.25 195.027344 L 13.75 195 L 13.269531 194.949219 L 12.820312 194.878906 L 12.398438 194.792969 L 12 194.683594 L 11.628906 194.554688 L 11.285156 194.40625 L 10.96875 194.238281 L 10.679688 194.050781 L 10.414062 193.84375 L 10.175781 193.617188 L 9.964844 193.375 L 9.785156 193.113281 L 9.632812 192.832031 L 9.503906 192.535156 L 9.40625 192.21875 L 9.339844 191.886719 L 9.296875 191.53125 L 9.28125 191.160156 L 9.296875 190.816406 L 9.34375 190.484375 L 9.417969 190.171875 L 9.523438 189.878906 L 9.660156 189.601562 L 9.828125 189.339844 L 10.023438 189.09375 L 10.25 188.867188 L 10.507812 188.65625 L 10.796875 188.464844 L 9.496094 188.367188 L 9.496094 186.648438 L 21.226562 186.648438 L 21.648438 186.660156 L 22.050781 186.691406 L 22.433594 186.75 L 22.792969 186.824219 L 23.132812 186.925781 L 23.453125 187.046875 L 23.753906 187.191406 L 24.035156 187.355469 L 24.296875 187.546875 L 24.535156 187.753906 L 24.757812 187.984375 L 24.953125 188.234375 L 25.128906 188.496094 L 25.277344 188.78125 L 25.40625 189.078125 L 25.511719 189.394531 L 25.59375 189.730469 L 25.648438 190.082031 L 25.683594 190.453125 L 25.695312 190.839844 L 25.691406 191.011719 L 25.679688 191.191406 L 25.65625 191.375 L 25.628906 191.558594 L 25.589844 191.75 L 25.542969 191.945312 L 25.484375 192.148438 L 25.421875 192.351562 L 25.347656 192.558594 L 25.265625 192.773438 L 25.179688 192.980469 L 25.089844 193.175781 L 24.996094 193.363281 L 24.898438 193.539062 L 24.796875 193.703125 L 24.691406 193.859375 L 24.578125 194.003906 L 24.464844 194.136719 L 24.347656 194.261719 L 24.222656 194.371094 L 22.914062 193.597656 L 23.132812 193.359375 L 23.332031 193.117188 L 23.503906 192.867188 L 23.65625 192.613281 L 23.785156 192.355469 L 23.886719 192.09375 L 23.96875 191.824219 L 24.027344 191.550781 L 24.0625 191.273438 L 24.074219 190.988281 L 24.046875 190.539062 L 23.96875 190.132812 L 23.839844 189.773438 L 23.660156 189.460938 L 23.425781 189.191406 L 23.140625 188.972656 L 22.804688 188.796875 L 22.417969 188.667969 L 21.976562 188.585938 L 21.484375 188.550781 L 19.96875 188.550781 L 20.230469 188.742188 L 20.460938 188.949219 L 20.667969 189.175781 L 20.84375 189.414062 L 20.992188 189.667969 L 21.117188 189.9375 L 21.210938 190.222656 L 21.28125 190.523438 L 21.320312 190.839844 L 21.335938 191.171875 L 21.320312 191.523438 L 21.28125 191.863281 L 21.214844 192.183594 L 21.117188 192.488281 L 20.996094 192.777344 L 20.847656 193.050781 L 20.671875 193.308594 L 20.46875 193.550781 L 20.238281 193.777344 L 19.980469 193.984375 L 19.695312 194.179688 L 19.386719 194.351562 L 19.054688 194.503906 L 18.699219 194.640625 L 18.320312 194.753906 L 17.917969 194.851562 L 17.492188 194.925781 L 17.042969 194.984375 L 16.570312 195.019531 L 16.070312 195.039062 Z M 15.867188 193.136719 L 16.246094 193.132812 L 16.609375 193.113281 L 16.949219 193.085938 L 17.265625 193.046875 L 17.5625 192.996094 L 17.84375 192.933594 L 18.097656 192.859375 L 18.335938 192.773438 L 18.550781 192.675781 L 18.746094 192.566406 L 18.917969 192.445312 L 19.074219 192.308594 L 19.210938 192.152344 L 19.332031 191.988281 L 19.429688 191.804688 L 19.511719 191.609375 L 19.578125 191.398438 L 19.621094 191.171875 L 19.648438 190.933594 L 19.660156 190.675781 L 19.644531 190.402344 L 19.601562 190.136719 L 19.527344 189.890625 L 19.425781 189.65625 L 19.296875 189.4375 L 19.136719 189.230469 L 18.949219 189.039062 L 18.730469 188.863281 L 18.484375 188.699219 L 18.207031 188.550781 L 12.398438 188.550781 L 12.125 188.703125 L 11.882812 188.871094 L 11.667969 189.050781 L 11.484375 189.242188 L 11.324219 189.449219 L 11.199219 189.664062 L 11.097656 189.894531 L 11.027344 190.136719 L 10.984375 190.390625 L 10.96875 190.65625 L 10.976562 190.910156 L 11.003906 191.152344 L 11.050781 191.375 L 11.117188 191.585938 L 11.199219 191.785156 L 11.300781 191.964844 L 11.421875 192.132812 L 11.558594 192.285156 L 11.71875 192.421875 L 11.890625 192.546875 L 12.085938 192.65625 L 12.296875 192.753906 L 12.53125 192.84375 L 12.78125 192.917969 L 13.050781 192.984375 L 13.34375 193.039062 L 13.65625 193.078125 L 13.984375 193.109375 L 14.335938 193.128906 L 14.707031 193.136719 Z M 15.867188 193.136719 "/>
</g>
</svg>
