<?xml version="1.0" encoding="UTF-8"?>
<svg xmlns="http://www.w3.org/2000/svg" xmlns:xlink="http://www.w3.org/1999/xlink" width="504pt" height="453pt" viewBox="0 0 504 453" version="1.1">
<defs>
<clipPath id="clip1">
  <path d="M 55.207031 5.480469 L 498.519531 5.480469 L 498.519531 399.179688 L 55.207031 399.179688 Z M 55.207031 5.480469 "/>
</clipPath>
<clipPath id="clip2">
  <path d="M 55.207031 294 L 498.519531 294 L 498.519531 295 L 55.207031 295 Z M 55.207031 294 "/>
</clipPath>
<clipPath id="clip3">
  <path d="M 55.207031 165 L 498.519531 165 L 498.519531 166 L 55.207031 166 Z M 55.207031 165 "/>
</clipPath>
<clipPath id="clip4">
  <path d="M 55.207031 36 L 498.519531 36 L 498.519531 37 L 55.207031 37 Z M 55.207031 36 "/>
</clipPath>
<clipPath id="clip5">
  <path d="M 73 5.480469 L 75 5.480469 L 75 399.179688 L 73 399.179688 Z M 73 5.480469 "/>
</clipPath>
<clipPath id="clip6">
  <path d="M 176 5.480469 L 178 5.480469 L 178 399.179688 L 176 399.179688 Z M 176 5.480469 "/>
</clipPath>
<clipPath id="clip7">
  <path d="M 279 5.480469 L 281 5.480469 L 281 399.179688 L 279 399.179688 Z M 279 5.480469 "/>
</clipPath>
<clipPath id="clip8">
  <path d="M 382 5.480469 L 384 5.480469 L 384 399.179688 L 382 399.179688 Z M 382 5.480469 "/>
</clipPath>
<clipPath id="clip9">
  <path d="M 485 5.480469 L 487 5.480469 L 487 399.179688 L 485 399.179688 Z M 485 5.480469 "/>
</clipPath>
<clipPath id="clip10">
  <path d="M 55.207031 358 L 498.519531 358 L 498.519531 360 L 55.207031 360 Z M 55.207031 358 "/>
</clipPath>
<clipPath id="clip11">
  <path d="M 55.207031 229 L 498.519531 229 L 498.519531 231 L 55.207031 231 Z M 55.207031 229 "/>
</clipPath>
<clipPath id="clip12">
  <path d="M 55.207031 100 L 498.519531 100 L 498.519531 102 L 55.207031 102 Z M 55.207031 100 "/>
</clipPath>
<clipPath id="clip13">
  <path d="M 125 5.480469 L 127 5.480469 L 127 399.179688 L 125 399.179688 Z M 125 5.480469 "/>
</clipPath>
<clipPath id="clip14">
  <path d="M 228 5.480469 L 230 5.480469 L 230 399.179688 L 228 399.179688 Z M 228 5.480469 "/>
</clipPath>
<clipPath id="clip15">
  <path d="M 331 5.480469 L 333 5.480469 L 333 399.179688 L 331 399.179688 Z M 331 5.480469 "/>
</clipPath>
<clipPath id="clip16">
  <path d="M 434 5.480469 L 436 5.480469 L 436 399.179688 L 434 399.179688 Z M 434 5.480469 "/>
</clipPath>
</defs>
<g id="surface24">
<rect x="0" y="0" width="504" height="453" style="fill:rgb(100%,100%,100%);fill-opacity:1;stroke:none;"/>
<rect x="0" y="0" width="504" height="453" style="fill:rgb(0%,16.862745%,21.176471%);fill-opacity:1;stroke:none;"/>
<g clip-path="url(#clip1)" clip-rule="nonzero">
<path style=" stroke:none;fill-rule:nonzero;fill:rgb(9.411765%,22.352941%,25.882353%);fill-opacity:1;" d="M 55.207031 399.179688 L 498.519531 399.179688 L 498.519531 5.480469 L 55.207031 5.480469 Z M 55.207031 399.179688 "/>
</g>
<g clip-path="url(#clip2)" clip-rule="nonzero">
<path style="fill:none;stroke-width:0.533489;stroke-linecap:butt;stroke-linejoin:round;stroke:rgb(0%,16.862745%,21.176471%);stroke-opacity:1;stroke-miterlimit:10;" d="M 55.207031 294.28125 L 498.519531 294.28125 "/>
</g>
<g clip-path="url(#clip3)" clip-rule="nonzero">
<path style="fill:none;stroke-width:0.533489;stroke-linecap:butt;stroke-linejoin:round;stroke:rgb(0%,16.862745%,21.176471%);stroke-opacity:1;stroke-miterlimit:10;" d="M 55.207031 165.460938 L 498.519531 165.460938 "/>
</g>
<g clip-path="url(#clip4)" clip-rule="nonzero">
<path style="fill:none;stroke-width:0.533489;stroke-linecap:butt;stroke-linejoin:round;stroke:rgb(0%,16.862745%,21.176471%);stroke-opacity:1;stroke-miterlimit:10;" d="M 55.207031 36.640625 L 498.519531 36.640625 "/>
</g>
<g clip-path="url(#clip5)" clip-rule="nonzero">
<path style="fill:none;stroke-width:0.533489;stroke-linecap:butt;stroke-linejoin:round;stroke:rgb(0%,16.862745%,21.176471%);stroke-opacity:1;stroke-miterlimit:10;" d="M 74.015625 399.179688 L 74.015625 5.480469 "/>
</g>
<g clip-path="url(#clip6)" clip-rule="nonzero">
<path style="fill:none;stroke-width:0.533489;stroke-linecap:butt;stroke-linejoin:round;stroke:rgb(0%,16.862745%,21.176471%);stroke-opacity:1;stroke-miterlimit:10;" d="M 177.0625 399.179688 L 177.0625 5.480469 "/>
</g>
<g clip-path="url(#clip7)" clip-rule="nonzero">
<path style="fill:none;stroke-width:0.533489;stroke-linecap:butt;stroke-linejoin:round;stroke:rgb(0%,16.862745%,21.176471%);stroke-opacity:1;stroke-miterlimit:10;" d="M 280.109375 399.179688 L 280.109375 5.480469 "/>
</g>
<g clip-path="url(#clip8)" clip-rule="nonzero">
<path style="fill:none;stroke-width:0.533489;stroke-linecap:butt;stroke-linejoin:round;stroke:rgb(0%,16.862745%,21.176471%);stroke-opacity:1;stroke-miterlimit:10;" d="M 383.15625 399.179688 L 383.15625 5.480469 "/>
</g>
<g clip-path="url(#clip9)" clip-rule="nonzero">
<path style="fill:none;stroke-width:0.533489;stroke-linecap:butt;stroke-linejoin:round;stroke:rgb(0%,16.862745%,21.176471%);stroke-opacity:1;stroke-miterlimit:10;" d="M 486.203125 399.179688 L 486.203125 5.480469 "/>
</g>
<g clip-path="url(#clip10)" clip-rule="nonzero">
<path style="fill:none;stroke-width:1.066978;stroke-linecap:butt;stroke-linejoin:round;stroke:rgb(0%,16.862745%,21.176471%);stroke-opacity:1;stroke-miterlimit:10;" d="M 55.207031 358.691406 L 498.519531 358.691406 "/>
</g>
<g clip-path="url(#clip11)" clip-rule="nonzero">
<path style="fill:none;stroke-width:1.066978;stroke-linecap:butt;stroke-linejoin:round;stroke:rgb(0%,16.862745%,21.176471%);stroke-opacity:1;stroke-miterlimit:10;" d="M 55.207031 229.871094 L 498.519531 229.871094 "/>
</g>
<g clip-path="url(#clip12)" clip-rule="nonzero">
<path style="fill:none;stroke-width:1.066978;stroke-linecap:butt;stroke-linejoin:round;stroke:rgb(0%,16.862745%,21.176471%);stroke-opacity:1;stroke-miterlimit:10;" d="M 55.207031 101.050781 L 498.519531 101.050781 "/>
</g>
<g clip-path="url(#clip13)" clip-rule="nonzero">
<path style="fill:none;stroke-width:1.066978;stroke-linecap:butt;stroke-linejoin:round;stroke:rgb(0%,16.862745%,21.176471%);stroke-opacity:1;stroke-miterlimit:10;" d="M 125.539062 399.179688 L 125.539062 5.480469 "/>
</g>
<g clip-path="url(#clip14)" clip-rule="nonzero">
<path style="fill:none;stroke-width:1.066978;stroke-linecap:butt;stroke-linejoin:round;stroke:rgb(0%,16.862745%,21.176471%);stroke-opacity:1;stroke-miterlimit:10;" d="M 228.585938 399.179688 L 228.585938 5.480469 "/>
</g>
<g clip-path="url(#clip15)" clip-rule="nonzero">
<path style="fill:none;stroke-width:1.066978;stroke-linecap:butt;stroke-linejoin:round;stroke:rgb(0%,16.862745%,21.176471%);stroke-opacity:1;stroke-miterlimit:10;" d="M 331.632812 399.179688 L 331.632812 5.480469 "/>
</g>
<g clip-path="url(#clip16)" clip-rule="nonzero">
<path style="fill:none;stroke-width:1.066978;stroke-linecap:butt;stroke-linejoin:round;stroke:rgb(0%,16.862745%,21.176471%);stroke-opacity:1;stroke-miterlimit:10;" d="M 434.679688 399.179688 L 434.679688 5.480469 "/>
</g>
<path style="fill-rule:nonzero;fill:rgb(99.215686%,96.470588%,89.019608%);fill-opacity:1;stroke-width:0.708661;stroke-linecap:round;stroke-linejoin:round;stroke:rgb(99.215686%,96.470588%,89.019608%);stroke-opacity:1;stroke-miterlimit:10;" d="M 194.050781 216.988281 C 194.050781 223.152344 184.808594 223.152344 184.808594 216.988281 C 184.808594 210.828125 194.050781 210.828125 194.050781 216.988281 "/>
<path style="fill-rule:nonzero;fill:rgb(99.215686%,96.470588%,89.019608%);fill-opacity:1;stroke-width:0.708661;stroke-linecap:round;stroke-linejoin:round;stroke:rgb(99.215686%,96.470588%,89.019608%);stroke-opacity:1;stroke-miterlimit:10;" d="M 220.328125 216.988281 C 220.328125 223.152344 211.082031 223.152344 211.082031 216.988281 C 211.082031 210.828125 220.328125 210.828125 220.328125 216.988281 "/>
<path style="fill-rule:nonzero;fill:rgb(99.215686%,96.470588%,89.019608%);fill-opacity:1;stroke-width:0.708661;stroke-linecap:round;stroke-linejoin:round;stroke:rgb(99.215686%,96.470588%,89.019608%);stroke-opacity:1;stroke-miterlimit:10;" d="M 163.136719 193.800781 C 163.136719 199.964844 153.894531 199.964844 153.894531 193.800781 C 153.894531 187.636719 163.136719 187.636719 163.136719 193.800781 "/>
<path style="fill-rule:nonzero;fill:rgb(99.215686%,96.470588%,89.019608%);fill-opacity:1;stroke-width:0.708661;stroke-linecap:round;stroke-linejoin:round;stroke:rgb(99.215686%,96.470588%,89.019608%);stroke-opacity:1;stroke-miterlimit:10;" d="M 255.363281 211.835938 C 255.363281 218 246.117188 218 246.117188 211.835938 C 246.117188 205.671875 255.363281 205.671875 255.363281 211.835938 "/>
<path style="fill-rule:nonzero;fill:rgb(99.215686%,96.470588%,89.019608%);fill-opacity:1;stroke-width:0.708661;stroke-linecap:round;stroke-linejoin:round;stroke:rgb(99.215686%,96.470588%,89.019608%);stroke-opacity:1;stroke-miterlimit:10;" d="M 278.550781 246.617188 C 278.550781 252.78125 269.304688 252.78125 269.304688 246.617188 C 269.304688 240.457031 278.550781 240.457031 278.550781 246.617188 "/>
<path style="fill-rule:nonzero;fill:rgb(99.215686%,96.470588%,89.019608%);fill-opacity:1;stroke-width:0.708661;stroke-linecap:round;stroke-linejoin:round;stroke:rgb(99.215686%,96.470588%,89.019608%);stroke-opacity:1;stroke-miterlimit:10;" d="M 280.609375 254.347656 C 280.609375 260.511719 271.367188 260.511719 271.367188 254.347656 C 271.367188 248.183594 280.609375 248.183594 280.609375 254.347656 "/>
<path style="fill-rule:nonzero;fill:rgb(99.215686%,96.470588%,89.019608%);fill-opacity:1;stroke-width:0.708661;stroke-linecap:round;stroke-linejoin:round;stroke:rgb(99.215686%,96.470588%,89.019608%);stroke-opacity:1;stroke-miterlimit:10;" d="M 291.945312 303.300781 C 291.945312 309.460938 282.699219 309.460938 282.699219 303.300781 C 282.699219 297.136719 291.945312 297.136719 291.945312 303.300781 "/>
<path style="fill-rule:nonzero;fill:rgb(99.215686%,96.470588%,89.019608%);fill-opacity:1;stroke-width:0.708661;stroke-linecap:round;stroke-linejoin:round;stroke:rgb(99.215686%,96.470588%,89.019608%);stroke-opacity:1;stroke-miterlimit:10;" d="M 252.789062 173.191406 C 252.789062 179.351562 243.542969 179.351562 243.542969 173.191406 C 243.542969 167.027344 252.789062 167.027344 252.789062 173.191406 "/>
<path style="fill-rule:nonzero;fill:rgb(99.215686%,96.470588%,89.019608%);fill-opacity:1;stroke-width:0.708661;stroke-linecap:round;stroke-linejoin:round;stroke:rgb(99.215686%,96.470588%,89.019608%);stroke-opacity:1;stroke-miterlimit:10;" d="M 248.664062 193.800781 C 248.664062 199.964844 239.421875 199.964844 239.421875 193.800781 C 239.421875 187.636719 248.664062 187.636719 248.664062 193.800781 "/>
<path style="fill-rule:nonzero;fill:rgb(99.215686%,96.470588%,89.019608%);fill-opacity:1;stroke-width:0.708661;stroke-linecap:round;stroke-linejoin:round;stroke:rgb(99.215686%,96.470588%,89.019608%);stroke-opacity:1;stroke-miterlimit:10;" d="M 278.550781 240.175781 C 278.550781 246.339844 269.304688 246.339844 269.304688 240.175781 C 269.304688 234.015625 278.550781 234.015625 278.550781 240.175781 "/>
<path style="fill-rule:nonzero;fill:rgb(99.215686%,96.470588%,89.019608%);fill-opacity:1;stroke-width:0.708661;stroke-linecap:round;stroke-linejoin:round;stroke:rgb(99.215686%,96.470588%,89.019608%);stroke-opacity:1;stroke-miterlimit:10;" d="M 278.550781 258.210938 C 278.550781 264.375 269.304688 264.375 269.304688 258.210938 C 269.304688 252.050781 278.550781 252.050781 278.550781 258.210938 "/>
<path style="fill-rule:nonzero;fill:rgb(99.215686%,96.470588%,89.019608%);fill-opacity:1;stroke-width:0.708661;stroke-linecap:round;stroke-linejoin:round;stroke:rgb(99.215686%,96.470588%,89.019608%);stroke-opacity:1;stroke-miterlimit:10;" d="M 343.46875 276.246094 C 343.46875 282.410156 334.222656 282.410156 334.222656 276.246094 C 334.222656 270.085938 343.46875 270.085938 343.46875 276.246094 "/>
<path style="fill-rule:nonzero;fill:rgb(99.215686%,96.470588%,89.019608%);fill-opacity:1;stroke-width:0.708661;stroke-linecap:round;stroke-linejoin:round;stroke:rgb(99.215686%,96.470588%,89.019608%);stroke-opacity:1;stroke-miterlimit:10;" d="M 308.433594 264.652344 C 308.433594 270.816406 299.1875 270.816406 299.1875 264.652344 C 299.1875 258.488281 308.433594 258.488281 308.433594 264.652344 "/>
<path style="fill-rule:nonzero;fill:rgb(99.215686%,96.470588%,89.019608%);fill-opacity:1;stroke-width:0.708661;stroke-linecap:round;stroke-linejoin:round;stroke:rgb(99.215686%,96.470588%,89.019608%);stroke-opacity:1;stroke-miterlimit:10;" d="M 313.585938 291.707031 C 313.585938 297.867188 304.339844 297.867188 304.339844 291.707031 C 304.339844 285.542969 313.585938 285.542969 313.585938 291.707031 "/>
<path style="fill-rule:nonzero;fill:rgb(99.215686%,96.470588%,89.019608%);fill-opacity:1;stroke-width:0.708661;stroke-linecap:round;stroke-linejoin:round;stroke:rgb(99.215686%,96.470588%,89.019608%);stroke-opacity:1;stroke-miterlimit:10;" d="M 465.0625 353.539062 C 465.0625 359.703125 455.816406 359.703125 455.816406 353.539062 C 455.816406 347.375 465.0625 347.375 465.0625 353.539062 "/>
<path style="fill-rule:nonzero;fill:rgb(99.215686%,96.470588%,89.019608%);fill-opacity:1;stroke-width:0.708661;stroke-linecap:round;stroke-linejoin:round;stroke:rgb(99.215686%,96.470588%,89.019608%);stroke-opacity:1;stroke-miterlimit:10;" d="M 482.992188 353.539062 C 482.992188 359.703125 473.746094 359.703125 473.746094 353.539062 C 473.746094 347.375 482.992188 347.375 482.992188 353.539062 "/>
<path style="fill-rule:nonzero;fill:rgb(99.215686%,96.470588%,89.019608%);fill-opacity:1;stroke-width:0.708661;stroke-linecap:round;stroke-linejoin:round;stroke:rgb(99.215686%,96.470588%,89.019608%);stroke-opacity:1;stroke-miterlimit:10;" d="M 474.851562 298.148438 C 474.851562 304.308594 465.605469 304.308594 465.605469 298.148438 C 465.605469 291.984375 474.851562 291.984375 474.851562 298.148438 "/>
<path style="fill-rule:nonzero;fill:rgb(99.215686%,96.470588%,89.019608%);fill-opacity:1;stroke-width:0.708661;stroke-linecap:round;stroke-linejoin:round;stroke:rgb(99.215686%,96.470588%,89.019608%);stroke-opacity:1;stroke-miterlimit:10;" d="M 150.773438 70.132812 C 150.773438 76.296875 141.527344 76.296875 141.527344 70.132812 C 141.527344 63.96875 150.773438 63.96875 150.773438 70.132812 "/>
<path style="fill-rule:nonzero;fill:rgb(99.215686%,96.470588%,89.019608%);fill-opacity:1;stroke-width:0.708661;stroke-linecap:round;stroke-linejoin:round;stroke:rgb(99.215686%,96.470588%,89.019608%);stroke-opacity:1;stroke-miterlimit:10;" d="M 90.488281 95.898438 C 90.488281 102.0625 81.246094 102.0625 81.246094 95.898438 C 81.246094 89.734375 90.488281 89.734375 90.488281 95.898438 "/>
<path style="fill-rule:nonzero;fill:rgb(99.215686%,96.470588%,89.019608%);fill-opacity:1;stroke-width:0.708661;stroke-linecap:round;stroke-linejoin:round;stroke:rgb(99.215686%,96.470588%,89.019608%);stroke-opacity:1;stroke-miterlimit:10;" d="M 113.160156 50.808594 C 113.160156 56.972656 103.914062 56.972656 103.914062 50.808594 C 103.914062 44.648438 113.160156 44.648438 113.160156 50.808594 "/>
<path style="fill-rule:nonzero;fill:rgb(99.215686%,96.470588%,89.019608%);fill-opacity:1;stroke-width:0.708661;stroke-linecap:round;stroke-linejoin:round;stroke:rgb(99.215686%,96.470588%,89.019608%);stroke-opacity:1;stroke-miterlimit:10;" d="M 178.078125 210.546875 C 178.078125 216.710938 168.835938 216.710938 168.835938 210.546875 C 168.835938 204.386719 178.078125 204.386719 178.078125 210.546875 "/>
<path style="fill-rule:nonzero;fill:rgb(99.215686%,96.470588%,89.019608%);fill-opacity:1;stroke-width:0.708661;stroke-linecap:round;stroke-linejoin:round;stroke:rgb(99.215686%,96.470588%,89.019608%);stroke-opacity:1;stroke-miterlimit:10;" d="M 286.792969 287.839844 C 286.792969 294.003906 277.546875 294.003906 277.546875 287.839844 C 277.546875 281.679688 286.792969 281.679688 286.792969 287.839844 "/>
<path style="fill-rule:nonzero;fill:rgb(99.215686%,96.470588%,89.019608%);fill-opacity:1;stroke-width:0.708661;stroke-linecap:round;stroke-linejoin:round;stroke:rgb(99.215686%,96.470588%,89.019608%);stroke-opacity:1;stroke-miterlimit:10;" d="M 278.035156 291.707031 C 278.035156 297.867188 268.789062 297.867188 268.789062 291.707031 C 268.789062 285.542969 278.035156 285.542969 278.035156 291.707031 "/>
<path style="fill-rule:nonzero;fill:rgb(99.215686%,96.470588%,89.019608%);fill-opacity:1;stroke-width:0.708661;stroke-linecap:round;stroke-linejoin:round;stroke:rgb(99.215686%,96.470588%,89.019608%);stroke-opacity:1;stroke-miterlimit:10;" d="M 319.765625 316.179688 C 319.765625 322.34375 310.523438 322.34375 310.523438 316.179688 C 310.523438 310.019531 319.765625 310.019531 319.765625 316.179688 "/>
<path style="fill-rule:nonzero;fill:rgb(99.215686%,96.470588%,89.019608%);fill-opacity:1;stroke-width:0.708661;stroke-linecap:round;stroke-linejoin:round;stroke:rgb(99.215686%,96.470588%,89.019608%);stroke-opacity:1;stroke-miterlimit:10;" d="M 320.28125 240.175781 C 320.28125 246.339844 311.039062 246.339844 311.039062 240.175781 C 311.039062 234.015625 320.28125 234.015625 320.28125 240.175781 "/>
<path style="fill-rule:nonzero;fill:rgb(99.215686%,96.470588%,89.019608%);fill-opacity:1;stroke-width:0.708661;stroke-linecap:round;stroke-linejoin:round;stroke:rgb(99.215686%,96.470588%,89.019608%);stroke-opacity:1;stroke-miterlimit:10;" d="M 123.464844 135.832031 C 123.464844 141.996094 114.21875 141.996094 114.21875 135.832031 C 114.21875 129.667969 123.464844 129.667969 123.464844 135.832031 "/>
<path style="fill-rule:nonzero;fill:rgb(99.215686%,96.470588%,89.019608%);fill-opacity:1;stroke-width:0.708661;stroke-linecap:round;stroke-linejoin:round;stroke:rgb(99.215686%,96.470588%,89.019608%);stroke-opacity:1;stroke-miterlimit:10;" d="M 144.589844 152.578125 C 144.589844 158.742188 135.34375 158.742188 135.34375 152.578125 C 135.34375 146.414062 144.589844 146.414062 144.589844 152.578125 "/>
<path style="fill-rule:nonzero;fill:rgb(99.215686%,96.470588%,89.019608%);fill-opacity:1;stroke-width:0.708661;stroke-linecap:round;stroke-linejoin:round;stroke:rgb(99.215686%,96.470588%,89.019608%);stroke-opacity:1;stroke-miterlimit:10;" d="M 79.980469 95.898438 C 79.980469 102.0625 70.734375 102.0625 70.734375 95.898438 C 70.734375 89.734375 79.980469 89.734375 79.980469 95.898438 "/>
<path style="fill-rule:nonzero;fill:rgb(99.215686%,96.470588%,89.019608%);fill-opacity:1;stroke-width:0.708661;stroke-linecap:round;stroke-linejoin:round;stroke:rgb(99.215686%,96.470588%,89.019608%);stroke-opacity:1;stroke-miterlimit:10;" d="M 250.726562 283.976562 C 250.726562 290.140625 241.480469 290.140625 241.480469 283.976562 C 241.480469 277.8125 250.726562 277.8125 250.726562 283.976562 "/>
<path style="fill-rule:nonzero;fill:rgb(99.215686%,96.470588%,89.019608%);fill-opacity:1;stroke-width:0.708661;stroke-linecap:round;stroke-linejoin:round;stroke:rgb(99.215686%,96.470588%,89.019608%);stroke-opacity:1;stroke-miterlimit:10;" d="M 209.507812 233.734375 C 209.507812 239.898438 200.261719 239.898438 200.261719 233.734375 C 200.261719 227.574219 209.507812 227.574219 209.507812 233.734375 "/>
<path style="fill-rule:nonzero;fill:rgb(99.215686%,96.470588%,89.019608%);fill-opacity:1;stroke-width:0.708661;stroke-linecap:round;stroke-linejoin:round;stroke:rgb(99.215686%,96.470588%,89.019608%);stroke-opacity:1;stroke-miterlimit:10;" d="M 291.945312 294.28125 C 291.945312 300.445312 282.699219 300.445312 282.699219 294.28125 C 282.699219 288.117188 291.945312 288.117188 291.945312 294.28125 "/>
<path style="fill-rule:nonzero;fill:rgb(99.215686%,96.470588%,89.019608%);fill-opacity:1;stroke-width:0.708661;stroke-linecap:round;stroke-linejoin:round;stroke:rgb(99.215686%,96.470588%,89.019608%);stroke-opacity:1;stroke-miterlimit:10;" d="M 210.539062 211.835938 C 210.539062 218 201.292969 218 201.292969 211.835938 C 201.292969 205.671875 210.539062 205.671875 210.539062 211.835938 "/>
<path style=" stroke:none;fill-rule:nonzero;fill:rgb(39.607843%,45.882353%,46.27451%);fill-opacity:0.4;" d="M 75.355469 23.375 L 80.457031 33.789062 L 85.558594 43.683594 L 90.660156 53.023438 L 95.761719 61.777344 L 100.863281 69.925781 L 105.964844 77.46875 L 111.066406 84.441406 L 116.167969 90.910156 L 121.269531 97.019531 L 126.371094 103.152344 L 131.472656 109.386719 L 136.574219 115.714844 L 141.675781 122.097656 L 146.777344 128.484375 L 151.878906 134.816406 L 156.980469 141.046875 L 162.082031 147.117188 L 167.183594 152.992188 L 172.285156 158.636719 L 177.386719 163.984375 L 182.488281 168.875 L 187.589844 173.132812 L 192.691406 176.617188 L 197.792969 179.328125 L 202.894531 181.488281 L 207.996094 183.53125 L 213.09375 186.023438 L 218.195312 189.476562 L 223.296875 193.667969 L 228.398438 198.074219 L 233.5 202.214844 L 238.601562 205.804688 L 243.703125 208.976562 L 248.804688 212.273438 L 253.90625 216.457031 L 259.007812 221.761719 L 264.109375 227.359375 L 269.210938 232.566406 L 274.3125 236.984375 L 279.414062 241.046875 L 284.515625 244.972656 L 289.617188 248.421875 L 294.71875 251.449219 L 299.820312 253.921875 L 304.921875 255.667969 L 310.023438 256.566406 L 315.125 256.488281 L 320.226562 255.726562 L 325.328125 254.960938 L 330.429688 254.34375 L 335.53125 253.957031 L 340.632812 253.839844 L 345.734375 254.015625 L 350.835938 254.484375 L 355.9375 255.25 L 361.035156 256.300781 L 366.136719 257.625 L 371.238281 259.214844 L 376.339844 261.042969 L 381.441406 263.097656 L 386.542969 265.351562 L 391.644531 267.78125 L 396.746094 270.355469 L 401.847656 273.046875 L 406.949219 275.816406 L 412.050781 278.621094 L 417.152344 281.414062 L 422.253906 284.140625 L 427.355469 286.730469 L 432.457031 289.113281 L 437.558594 291.207031 L 442.660156 292.929688 L 447.761719 294.203125 L 452.863281 294.949219 L 457.964844 295.117188 L 463.066406 294.679688 L 468.167969 293.628906 L 473.269531 291.984375 L 478.371094 289.78125 L 478.371094 381.285156 L 473.269531 377.769531 L 468.167969 374.644531 L 463.066406 371.945312 L 457.964844 369.695312 L 452.863281 367.890625 L 447.761719 366.511719 L 442.660156 365.503906 L 437.558594 364.808594 L 432.457031 364.339844 L 427.355469 364.027344 L 422.253906 363.785156 L 417.152344 363.550781 L 412.050781 363.261719 L 406.949219 362.867188 L 401.847656 362.324219 L 396.746094 361.589844 L 391.644531 360.640625 L 386.542969 359.4375 L 381.441406 357.96875 L 376.339844 356.203125 L 371.238281 354.128906 L 366.136719 351.730469 L 361.035156 348.988281 L 355.9375 345.902344 L 350.835938 342.457031 L 345.734375 338.652344 L 340.632812 334.492188 L 335.53125 329.984375 L 330.429688 325.15625 L 325.328125 320.050781 L 320.226562 314.757812 L 315.125 309.417969 L 310.023438 304.195312 L 304.921875 299.1875 L 299.820312 294.511719 L 294.71875 290.285156 L 289.617188 286.574219 L 284.515625 283.304688 L 279.414062 279.996094 L 274.3125 276.839844 L 269.210938 273.40625 L 264.109375 269.304688 L 259.007812 265.175781 L 253.90625 261.394531 L 248.804688 258.0625 L 243.703125 254.898438 L 238.601562 252.195312 L 233.5 250.238281 L 228.398438 248.898438 L 223.296875 247.632812 L 218.195312 245.703125 L 213.09375 242.578125 L 207.996094 239.113281 L 202.894531 235.675781 L 197.792969 232.453125 L 192.691406 229.492188 L 187.589844 226.644531 L 182.488281 223.527344 L 177.386719 219.617188 L 172.285156 214.40625 L 167.183594 208.375 L 162.082031 201.957031 L 156.980469 195.257812 L 151.878906 188.382812 L 146.777344 181.433594 L 141.675781 174.5 L 136.574219 167.671875 L 131.472656 161.046875 L 126.371094 154.738281 L 121.269531 148.875 L 116.167969 143.59375 L 111.066406 138.859375 L 105.964844 134.746094 L 100.863281 131.320312 L 95.761719 128.621094 L 90.660156 126.652344 L 85.558594 125.398438 L 80.457031 124.824219 L 75.355469 124.90625 Z M 75.355469 23.375 "/>
<path style="fill:none;stroke-width:5.334892;stroke-linecap:butt;stroke-linejoin:round;stroke:rgb(16.470588%,63.137255%,59.607843%);stroke-opacity:1;stroke-miterlimit:10;" d="M 75.355469 74.140625 L 80.457031 79.308594 L 85.558594 84.539062 L 90.660156 89.839844 L 95.761719 95.199219 L 100.863281 100.625 L 105.964844 106.105469 L 111.066406 111.652344 L 116.167969 117.253906 L 121.269531 122.949219 L 126.371094 128.945312 L 131.472656 135.21875 L 136.574219 141.695312 L 141.675781 148.296875 L 146.777344 154.957031 L 151.878906 161.601562 L 156.980469 168.152344 L 162.082031 174.539062 L 167.183594 180.683594 L 172.285156 186.519531 L 177.386719 191.800781 L 182.488281 196.199219 L 187.589844 199.886719 L 192.691406 203.054688 L 197.792969 205.890625 L 202.894531 208.582031 L 207.996094 211.324219 L 213.09375 214.300781 L 218.195312 217.589844 L 223.296875 220.648438 L 228.398438 223.484375 L 233.5 226.226562 L 238.601562 229 L 243.703125 231.9375 L 248.804688 235.167969 L 253.90625 238.925781 L 259.007812 243.46875 L 264.109375 248.332031 L 269.210938 252.984375 L 274.3125 256.914062 L 279.414062 260.523438 L 284.515625 264.136719 L 289.617188 267.5 L 294.71875 270.867188 L 299.820312 274.21875 L 304.921875 277.429688 L 310.023438 280.378906 L 315.125 282.953125 L 320.226562 285.242188 L 325.328125 287.507812 L 330.429688 289.75 L 335.53125 291.972656 L 340.632812 294.167969 L 345.734375 296.332031 L 350.835938 298.46875 L 355.9375 300.574219 L 361.035156 302.644531 L 366.136719 304.675781 L 371.238281 306.671875 L 376.339844 308.625 L 381.441406 310.53125 L 386.542969 312.394531 L 391.644531 314.210938 L 396.746094 315.972656 L 401.847656 317.683594 L 406.949219 319.34375 L 412.050781 320.941406 L 417.152344 322.484375 L 422.253906 323.960938 L 427.355469 325.378906 L 432.457031 326.726562 L 437.558594 328.007812 L 442.660156 329.21875 L 447.761719 330.355469 L 452.863281 331.417969 L 457.964844 332.40625 L 463.066406 333.3125 L 468.167969 334.136719 L 473.269531 334.878906 L 478.371094 335.53125 "/>
<path style=" stroke:none;fill-rule:evenodd;fill:rgb(99.215686%,96.470588%,89.019608%);fill-opacity:1;" d="M 35.472656 366.511719 L 33.558594 366.511719 L 33.558594 353.269531 L 30.273438 354.738281 L 30.273438 352.933594 L 35.171875 350.796875 L 35.472656 350.796875 Z M 35.472656 366.511719 "/>
<path style=" stroke:none;fill-rule:evenodd;fill:rgb(99.215686%,96.470588%,89.019608%);fill-opacity:1;" d="M 49.027344 359.84375 L 49.019531 360.515625 L 48.988281 361.15625 L 48.9375 361.761719 L 48.867188 362.332031 L 48.777344 362.867188 L 48.664062 363.367188 L 48.535156 363.832031 L 48.382812 364.261719 L 48.210938 364.660156 L 48.019531 365.019531 L 47.804688 365.34375 L 47.570312 365.632812 L 47.308594 365.890625 L 47.027344 366.113281 L 46.722656 366.300781 L 46.394531 366.453125 L 46.042969 366.574219 L 45.667969 366.660156 L 45.269531 366.710938 L 44.851562 366.726562 L 44.441406 366.710938 L 44.054688 366.660156 L 43.6875 366.578125 L 43.34375 366.464844 L 43.019531 366.316406 L 42.71875 366.136719 L 42.4375 365.921875 L 42.179688 365.675781 L 41.941406 365.394531 L 41.722656 365.085938 L 41.527344 364.738281 L 41.351562 364.359375 L 41.195312 363.949219 L 41.058594 363.503906 L 40.941406 363.027344 L 40.84375 362.515625 L 40.765625 361.972656 L 40.707031 361.394531 L 40.667969 360.785156 L 40.648438 360.144531 L 40.648438 357.457031 L 40.660156 356.789062 L 40.691406 356.15625 L 40.742188 355.558594 L 40.8125 354.992188 L 40.902344 354.464844 L 41.011719 353.972656 L 41.144531 353.511719 L 41.296875 353.089844 L 41.46875 352.699219 L 41.660156 352.34375 L 41.875 352.023438 L 42.113281 351.738281 L 42.375 351.484375 L 42.65625 351.265625 L 42.960938 351.078125 L 43.289062 350.925781 L 43.640625 350.808594 L 44.015625 350.726562 L 44.410156 350.675781 L 44.828125 350.65625 L 45.242188 350.671875 L 45.628906 350.722656 L 46 350.800781 L 46.34375 350.914062 L 46.667969 351.058594 L 46.96875 351.234375 L 47.25 351.441406 L 47.507812 351.679688 L 47.742188 351.953125 L 47.953125 352.257812 L 48.148438 352.59375 L 48.324219 352.964844 L 48.480469 353.367188 L 48.617188 353.800781 L 48.734375 354.269531 L 48.832031 354.769531 L 48.910156 355.304688 L 48.96875 355.871094 L 49.007812 356.46875 L 49.027344 357.101562 Z M 47.128906 357.125 L 47.121094 356.640625 L 47.105469 356.183594 L 47.078125 355.753906 L 47.039062 355.347656 L 46.992188 354.96875 L 46.929688 354.617188 L 46.859375 354.292969 L 46.777344 353.992188 L 46.683594 353.71875 L 46.578125 353.472656 L 46.464844 353.246094 L 46.335938 353.046875 L 46.191406 352.867188 L 46.035156 352.714844 L 45.867188 352.585938 L 45.6875 352.480469 L 45.492188 352.394531 L 45.285156 352.335938 L 45.0625 352.300781 L 44.828125 352.289062 L 44.601562 352.300781 L 44.386719 352.335938 L 44.183594 352.394531 L 43.992188 352.476562 L 43.8125 352.582031 L 43.648438 352.707031 L 43.496094 352.859375 L 43.355469 353.03125 L 43.226562 353.230469 L 43.109375 353.449219 L 43.003906 353.691406 L 42.910156 353.957031 L 42.828125 354.246094 L 42.753906 354.558594 L 42.695312 354.894531 L 42.640625 355.253906 L 42.601562 355.636719 L 42.570312 356.046875 L 42.550781 356.476562 L 42.539062 356.929688 L 42.539062 360.152344 L 42.546875 360.636719 L 42.5625 361.09375 L 42.589844 361.527344 L 42.632812 361.933594 L 42.683594 362.316406 L 42.746094 362.675781 L 42.820312 363.011719 L 42.90625 363.324219 L 43 363.609375 L 43.109375 363.871094 L 43.230469 364.105469 L 43.363281 364.316406 L 43.503906 364.5 L 43.660156 364.660156 L 43.828125 364.796875 L 44.007812 364.90625 L 44.203125 364.996094 L 44.40625 365.054688 L 44.621094 365.09375 L 44.851562 365.105469 L 45.074219 365.09375 L 45.289062 365.058594 L 45.492188 365 L 45.679688 364.917969 L 45.855469 364.8125 L 46.023438 364.683594 L 46.175781 364.53125 L 46.3125 364.355469 L 46.441406 364.15625 L 46.558594 363.933594 L 46.664062 363.6875 L 46.757812 363.417969 L 46.839844 363.121094 L 46.910156 362.800781 L 46.972656 362.453125 L 47.027344 362.085938 L 47.066406 361.691406 L 47.097656 361.269531 L 47.117188 360.828125 L 47.128906 360.359375 Z M 47.128906 357.125 "/>
<path style=" stroke:none;fill-rule:evenodd;fill:rgb(99.215686%,96.470588%,89.019608%);fill-opacity:1;" d="M 38.554688 237.691406 L 29.8125 237.691406 L 29.8125 236.261719 L 34.269531 230.355469 L 34.464844 230.085938 L 34.648438 229.828125 L 34.820312 229.582031 L 34.976562 229.34375 L 35.121094 229.113281 L 35.257812 228.894531 L 35.378906 228.6875 L 35.484375 228.488281 L 35.582031 228.300781 L 35.664062 228.121094 L 35.742188 227.941406 L 35.808594 227.765625 L 35.867188 227.582031 L 35.917969 227.398438 L 35.964844 227.214844 L 36 227.027344 L 36.027344 226.839844 L 36.046875 226.648438 L 36.058594 226.457031 L 36.0625 226.261719 L 36.058594 226.019531 L 36.039062 225.78125 L 36.011719 225.558594 L 35.96875 225.339844 L 35.917969 225.132812 L 35.855469 224.9375 L 35.777344 224.75 L 35.691406 224.570312 L 35.59375 224.402344 L 35.484375 224.242188 L 35.363281 224.09375 L 35.234375 223.964844 L 35.101562 223.847656 L 34.960938 223.746094 L 34.8125 223.664062 L 34.65625 223.59375 L 34.492188 223.539062 L 34.320312 223.5 L 34.144531 223.476562 L 33.957031 223.46875 L 33.722656 223.476562 L 33.503906 223.503906 L 33.289062 223.542969 L 33.089844 223.601562 L 32.898438 223.675781 L 32.71875 223.765625 L 32.550781 223.875 L 32.394531 224 L 32.246094 224.140625 L 32.109375 224.296875 L 31.988281 224.46875 L 31.878906 224.652344 L 31.78125 224.851562 L 31.699219 225.066406 L 31.625 225.296875 L 31.570312 225.539062 L 31.523438 225.796875 L 31.492188 226.070312 L 31.472656 226.359375 L 31.464844 226.660156 L 29.5625 226.660156 L 29.574219 226.234375 L 29.609375 225.828125 L 29.671875 225.4375 L 29.753906 225.066406 L 29.859375 224.707031 L 29.988281 224.367188 L 30.144531 224.042969 L 30.320312 223.734375 L 30.519531 223.441406 L 30.746094 223.167969 L 30.992188 222.914062 L 31.253906 222.6875 L 31.53125 222.488281 L 31.828125 222.316406 L 32.140625 222.167969 L 32.46875 222.050781 L 32.816406 221.957031 L 33.179688 221.890625 L 33.558594 221.851562 L 33.957031 221.835938 L 34.324219 221.847656 L 34.671875 221.882812 L 35.007812 221.941406 L 35.324219 222.019531 L 35.628906 222.125 L 35.914062 222.25 L 36.183594 222.398438 L 36.4375 222.570312 L 36.679688 222.765625 L 36.902344 222.984375 L 37.105469 223.222656 L 37.289062 223.472656 L 37.449219 223.738281 L 37.589844 224.019531 L 37.707031 224.316406 L 37.804688 224.625 L 37.878906 224.953125 L 37.933594 225.296875 L 37.964844 225.652344 L 37.976562 226.027344 L 37.949219 226.5 L 37.878906 226.988281 L 37.757812 227.496094 L 37.589844 228.019531 L 37.371094 228.558594 L 37.105469 229.117188 L 36.789062 229.691406 L 36.429688 230.28125 L 36.015625 230.890625 L 35.558594 231.515625 L 32.078125 236.070312 L 38.554688 236.070312 Z M 38.554688 237.691406 "/>
<path style=" stroke:none;fill-rule:evenodd;fill:rgb(99.215686%,96.470588%,89.019608%);fill-opacity:1;" d="M 49.027344 231.019531 L 49.019531 231.695312 L 48.988281 232.335938 L 48.9375 232.941406 L 48.867188 233.507812 L 48.777344 234.042969 L 48.664062 234.546875 L 48.535156 235.011719 L 48.382812 235.441406 L 48.210938 235.835938 L 48.019531 236.199219 L 47.804688 236.523438 L 47.570312 236.8125 L 47.308594 237.070312 L 47.027344 237.292969 L 46.722656 237.480469 L 46.394531 237.632812 L 46.042969 237.753906 L 45.667969 237.839844 L 45.269531 237.890625 L 44.851562 237.90625 L 44.441406 237.890625 L 44.054688 237.839844 L 43.6875 237.757812 L 43.34375 237.644531 L 43.019531 237.496094 L 42.71875 237.316406 L 42.4375 237.101562 L 42.179688 236.855469 L 41.941406 236.574219 L 41.722656 236.261719 L 41.527344 235.917969 L 41.351562 235.539062 L 41.195312 235.128906 L 41.058594 234.683594 L 40.941406 234.207031 L 40.84375 233.695312 L 40.765625 233.152344 L 40.707031 232.574219 L 40.667969 231.964844 L 40.648438 231.320312 L 40.648438 228.636719 L 40.660156 227.96875 L 40.691406 227.335938 L 40.742188 226.738281 L 40.8125 226.171875 L 40.902344 225.644531 L 41.011719 225.152344 L 41.144531 224.691406 L 41.296875 224.265625 L 41.46875 223.878906 L 41.660156 223.523438 L 41.875 223.203125 L 42.113281 222.914062 L 42.375 222.664062 L 42.65625 222.445312 L 42.960938 222.257812 L 43.289062 222.105469 L 43.640625 221.988281 L 44.015625 221.902344 L 44.410156 221.851562 L 44.828125 221.835938 L 45.242188 221.851562 L 45.628906 221.898438 L 46 221.980469 L 46.34375 222.09375 L 46.667969 222.238281 L 46.96875 222.414062 L 47.25 222.621094 L 47.507812 222.859375 L 47.742188 223.132812 L 47.953125 223.4375 L 48.148438 223.773438 L 48.324219 224.144531 L 48.480469 224.546875 L 48.617188 224.980469 L 48.734375 225.449219 L 48.832031 225.949219 L 48.910156 226.484375 L 48.96875 227.050781 L 49.007812 227.648438 L 49.027344 228.28125 Z M 47.128906 228.304688 L 47.121094 227.820312 L 47.105469 227.363281 L 47.078125 226.933594 L 47.039062 226.527344 L 46.992188 226.148438 L 46.929688 225.796875 L 46.859375 225.472656 L 46.777344 225.171875 L 46.683594 224.898438 L 46.578125 224.652344 L 46.464844 224.425781 L 46.335938 224.226562 L 46.191406 224.046875 L 46.035156 223.894531 L 45.867188 223.765625 L 45.6875 223.65625 L 45.492188 223.574219 L 45.285156 223.515625 L 45.0625 223.480469 L 44.828125 223.46875 L 44.601562 223.480469 L 44.386719 223.515625 L 44.183594 223.574219 L 43.992188 223.65625 L 43.8125 223.757812 L 43.648438 223.886719 L 43.496094 224.039062 L 43.355469 224.210938 L 43.226562 224.410156 L 43.109375 224.628906 L 43.003906 224.871094 L 42.910156 225.136719 L 42.828125 225.425781 L 42.753906 225.738281 L 42.695312 226.074219 L 42.640625 226.433594 L 42.601562 226.816406 L 42.570312 227.222656 L 42.550781 227.65625 L 42.539062 228.109375 L 42.539062 231.332031 L 42.546875 231.8125 L 42.5625 232.273438 L 42.589844 232.703125 L 42.632812 233.113281 L 42.683594 233.496094 L 42.746094 233.855469 L 42.820312 234.191406 L 42.90625 234.5 L 43 234.789062 L 43.109375 235.050781 L 43.230469 235.285156 L 43.363281 235.492188 L 43.503906 235.679688 L 43.660156 235.839844 L 43.828125 235.976562 L 44.007812 236.085938 L 44.203125 236.171875 L 44.40625 236.234375 L 44.621094 236.273438 L 44.851562 236.285156 L 45.074219 236.273438 L 45.289062 236.238281 L 45.492188 236.179688 L 45.679688 236.097656 L 45.855469 235.992188 L 46.023438 235.863281 L 46.175781 235.710938 L 46.3125 235.535156 L 46.441406 235.335938 L 46.558594 235.113281 L 46.664062 234.867188 L 46.757812 234.597656 L 46.839844 234.300781 L 46.910156 233.980469 L 46.972656 233.632812 L 47.027344 233.265625 L 47.066406 232.867188 L 47.097656 232.449219 L 47.117188 232.003906 L 47.128906 231.535156 Z M 47.128906 228.304688 "/>
<path style=" stroke:none;fill-rule:evenodd;fill:rgb(99.215686%,96.470588%,89.019608%);fill-opacity:1;" d="M 32.238281 100.082031 L 33.453125 100.082031 L 33.679688 100.078125 L 33.898438 100.054688 L 34.105469 100.019531 L 34.304688 99.96875 L 34.488281 99.902344 L 34.664062 99.824219 L 34.828125 99.730469 L 34.980469 99.625 L 35.125 99.5 L 35.257812 99.363281 L 35.378906 99.214844 L 35.484375 99.054688 L 35.582031 98.886719 L 35.664062 98.703125 L 35.734375 98.511719 L 35.789062 98.3125 L 35.835938 98.097656 L 35.867188 97.875 L 35.882812 97.640625 L 35.890625 97.398438 L 35.871094 96.875 L 35.804688 96.40625 L 35.699219 95.996094 L 35.550781 95.636719 L 35.359375 95.335938 L 35.125 95.089844 L 34.847656 94.894531 L 34.53125 94.757812 L 34.167969 94.675781 L 33.765625 94.648438 L 33.5625 94.65625 L 33.375 94.679688 L 33.191406 94.714844 L 33.019531 94.765625 L 32.855469 94.832031 L 32.699219 94.914062 L 32.550781 95.011719 L 32.414062 95.121094 L 32.285156 95.25 L 32.164062 95.390625 L 32.054688 95.542969 L 31.953125 95.703125 L 31.867188 95.875 L 31.792969 96.054688 L 31.726562 96.246094 L 31.675781 96.445312 L 31.636719 96.652344 L 31.605469 96.871094 L 31.589844 97.097656 L 31.582031 97.332031 L 29.691406 97.332031 L 29.703125 96.964844 L 29.738281 96.609375 L 29.796875 96.265625 L 29.875 95.9375 L 29.976562 95.621094 L 30.101562 95.316406 L 30.25 95.027344 L 30.421875 94.753906 L 30.613281 94.488281 L 30.832031 94.238281 L 31.066406 94.007812 L 31.316406 93.800781 L 31.578125 93.617188 L 31.851562 93.457031 L 32.140625 93.320312 L 32.4375 93.210938 L 32.75 93.125 L 33.074219 93.0625 L 33.414062 93.027344 L 33.765625 93.015625 L 34.125 93.027344 L 34.472656 93.0625 L 34.804688 93.121094 L 35.121094 93.199219 L 35.421875 93.304688 L 35.707031 93.433594 L 35.976562 93.582031 L 36.230469 93.757812 L 36.472656 93.957031 L 36.695312 94.175781 L 36.902344 94.414062 L 37.085938 94.675781 L 37.25 94.953125 L 37.390625 95.25 L 37.511719 95.566406 L 37.609375 95.902344 L 37.683594 96.257812 L 37.738281 96.632812 L 37.769531 97.027344 L 37.78125 97.441406 L 37.777344 97.65625 L 37.757812 97.871094 L 37.730469 98.078125 L 37.691406 98.285156 L 37.640625 98.492188 L 37.578125 98.691406 L 37.503906 98.890625 L 37.417969 99.085938 L 37.320312 99.28125 L 37.210938 99.472656 L 37.097656 99.652344 L 36.976562 99.824219 L 36.847656 99.988281 L 36.710938 100.140625 L 36.566406 100.28125 L 36.417969 100.414062 L 36.261719 100.539062 L 36.097656 100.652344 L 35.929688 100.753906 L 35.75 100.847656 L 36.171875 101.03125 L 36.546875 101.253906 L 36.878906 101.519531 L 37.167969 101.824219 L 37.410156 102.171875 L 37.609375 102.558594 L 37.765625 102.984375 L 37.875 103.453125 L 37.941406 103.960938 L 37.964844 104.507812 L 37.953125 104.921875 L 37.917969 105.3125 L 37.859375 105.691406 L 37.777344 106.050781 L 37.671875 106.390625 L 37.542969 106.71875 L 37.390625 107.027344 L 37.214844 107.316406 L 37.015625 107.59375 L 36.792969 107.851562 L 36.554688 108.085938 L 36.300781 108.296875 L 36.03125 108.480469 L 35.75 108.640625 L 35.453125 108.777344 L 35.140625 108.886719 L 34.816406 108.972656 L 34.476562 109.035156 L 34.121094 109.074219 L 33.753906 109.085938 L 33.390625 109.074219 L 33.039062 109.039062 L 32.703125 108.980469 L 32.378906 108.898438 L 32.070312 108.792969 L 31.777344 108.664062 L 31.5 108.511719 L 31.234375 108.335938 L 30.984375 108.136719 L 30.746094 107.914062 L 30.527344 107.671875 L 30.335938 107.410156 L 30.164062 107.132812 L 30.015625 106.839844 L 29.890625 106.53125 L 29.789062 106.207031 L 29.710938 105.867188 L 29.652344 105.507812 L 29.617188 105.136719 L 29.605469 104.746094 L 31.507812 104.746094 L 31.515625 104.988281 L 31.53125 105.222656 L 31.5625 105.449219 L 31.605469 105.660156 L 31.660156 105.867188 L 31.726562 106.058594 L 31.804688 106.242188 L 31.894531 106.417969 L 31.996094 106.578125 L 32.109375 106.734375 L 32.234375 106.871094 L 32.367188 106.996094 L 32.511719 107.105469 L 32.660156 107.199219 L 32.820312 107.28125 L 32.988281 107.347656 L 33.167969 107.398438 L 33.355469 107.433594 L 33.550781 107.457031 L 33.753906 107.464844 L 33.960938 107.457031 L 34.160156 107.433594 L 34.351562 107.398438 L 34.535156 107.347656 L 34.707031 107.285156 L 34.871094 107.203125 L 35.027344 107.109375 L 35.171875 107.003906 L 35.3125 106.878906 L 35.441406 106.742188 L 35.558594 106.59375 L 35.667969 106.425781 L 35.761719 106.246094 L 35.84375 106.046875 L 35.914062 105.835938 L 35.972656 105.609375 L 36.015625 105.367188 L 36.046875 105.109375 L 36.066406 104.839844 L 36.074219 104.550781 L 36.046875 104.011719 L 35.964844 103.527344 L 35.832031 103.101562 L 35.640625 102.730469 L 35.398438 102.417969 L 35.101562 102.160156 L 34.753906 101.960938 L 34.347656 101.820312 L 33.890625 101.734375 L 33.378906 101.707031 L 32.238281 101.707031 Z M 32.238281 100.082031 "/>
<path style=" stroke:none;fill-rule:evenodd;fill:rgb(99.215686%,96.470588%,89.019608%);fill-opacity:1;" d="M 49.027344 102.199219 L 49.019531 102.875 L 48.988281 103.515625 L 48.9375 104.117188 L 48.867188 104.6875 L 48.777344 105.222656 L 48.664062 105.722656 L 48.535156 106.191406 L 48.382812 106.621094 L 48.210938 107.015625 L 48.019531 107.378906 L 47.804688 107.703125 L 47.570312 107.992188 L 47.308594 108.25 L 47.027344 108.472656 L 46.722656 108.660156 L 46.394531 108.8125 L 46.042969 108.933594 L 45.667969 109.015625 L 45.269531 109.070312 L 44.851562 109.085938 L 44.441406 109.070312 L 44.054688 109.019531 L 43.6875 108.9375 L 43.34375 108.824219 L 43.019531 108.675781 L 42.71875 108.492188 L 42.4375 108.28125 L 42.179688 108.035156 L 41.941406 107.753906 L 41.722656 107.441406 L 41.527344 107.097656 L 41.351562 106.71875 L 41.195312 106.308594 L 41.058594 105.863281 L 40.941406 105.386719 L 40.84375 104.875 L 40.765625 104.332031 L 40.707031 103.753906 L 40.667969 103.144531 L 40.648438 102.5 L 40.648438 99.816406 L 40.660156 99.148438 L 40.691406 98.515625 L 40.742188 97.914062 L 40.8125 97.351562 L 40.902344 96.824219 L 41.011719 96.328125 L 41.144531 95.871094 L 41.296875 95.445312 L 41.46875 95.054688 L 41.660156 94.703125 L 41.875 94.382812 L 42.113281 94.09375 L 42.375 93.839844 L 42.65625 93.621094 L 42.960938 93.4375 L 43.289062 93.285156 L 43.640625 93.167969 L 44.015625 93.082031 L 44.410156 93.03125 L 44.828125 93.015625 L 45.242188 93.03125 L 45.628906 93.078125 L 46 93.160156 L 46.34375 93.269531 L 46.667969 93.414062 L 46.96875 93.589844 L 47.25 93.800781 L 47.507812 94.039062 L 47.742188 94.3125 L 47.953125 94.617188 L 48.148438 94.953125 L 48.324219 95.320312 L 48.480469 95.722656 L 48.617188 96.160156 L 48.734375 96.628906 L 48.832031 97.128906 L 48.910156 97.664062 L 48.96875 98.230469 L 49.007812 98.828125 L 49.027344 99.460938 Z M 47.128906 99.480469 L 47.121094 99 L 47.105469 98.542969 L 47.078125 98.109375 L 47.039062 97.707031 L 46.992188 97.328125 L 46.929688 96.976562 L 46.859375 96.648438 L 46.777344 96.351562 L 46.683594 96.078125 L 46.578125 95.828125 L 46.464844 95.605469 L 46.335938 95.40625 L 46.191406 95.226562 L 46.035156 95.074219 L 45.867188 94.945312 L 45.6875 94.835938 L 45.492188 94.753906 L 45.285156 94.695312 L 45.0625 94.660156 L 44.828125 94.648438 L 44.601562 94.660156 L 44.386719 94.695312 L 44.183594 94.753906 L 43.992188 94.832031 L 43.8125 94.9375 L 43.648438 95.066406 L 43.496094 95.214844 L 43.355469 95.390625 L 43.226562 95.589844 L 43.109375 95.808594 L 43.003906 96.050781 L 42.910156 96.316406 L 42.828125 96.605469 L 42.753906 96.917969 L 42.695312 97.253906 L 42.640625 97.613281 L 42.601562 97.996094 L 42.570312 98.402344 L 42.550781 98.835938 L 42.539062 99.289062 L 42.539062 102.511719 L 42.546875 102.992188 L 42.5625 103.449219 L 42.589844 103.882812 L 42.632812 104.292969 L 42.683594 104.675781 L 42.746094 105.035156 L 42.820312 105.371094 L 42.90625 105.679688 L 43 105.964844 L 43.109375 106.226562 L 43.230469 106.464844 L 43.363281 106.671875 L 43.503906 106.859375 L 43.660156 107.019531 L 43.828125 107.15625 L 44.007812 107.265625 L 44.203125 107.351562 L 44.40625 107.414062 L 44.621094 107.453125 L 44.851562 107.464844 L 45.074219 107.453125 L 45.289062 107.417969 L 45.492188 107.359375 L 45.679688 107.277344 L 45.855469 107.171875 L 46.023438 107.042969 L 46.175781 106.890625 L 46.3125 106.714844 L 46.441406 106.515625 L 46.558594 106.292969 L 46.664062 106.046875 L 46.757812 105.773438 L 46.839844 105.480469 L 46.910156 105.160156 L 46.972656 104.8125 L 47.027344 104.441406 L 47.066406 104.046875 L 47.097656 103.628906 L 47.117188 103.183594 L 47.128906 102.714844 Z M 47.128906 99.480469 "/>
<path style="fill:none;stroke-width:1.066978;stroke-linecap:butt;stroke-linejoin:round;stroke:rgb(99.215686%,96.470588%,89.019608%);stroke-opacity:1;stroke-miterlimit:10;" d="M 52.464844 358.691406 L 55.207031 358.691406 "/>
<path style="fill:none;stroke-width:1.066978;stroke-linecap:butt;stroke-linejoin:round;stroke:rgb(99.215686%,96.470588%,89.019608%);stroke-opacity:1;stroke-miterlimit:10;" d="M 52.464844 229.871094 L 55.207031 229.871094 "/>
<path style="fill:none;stroke-width:1.066978;stroke-linecap:butt;stroke-linejoin:round;stroke:rgb(99.215686%,96.470588%,89.019608%);stroke-opacity:1;stroke-miterlimit:10;" d="M 52.464844 101.050781 L 55.207031 101.050781 "/>
<path style="fill:none;stroke-width:1.066978;stroke-linecap:butt;stroke-linejoin:round;stroke:rgb(99.215686%,96.470588%,89.019608%);stroke-opacity:1;stroke-miterlimit:10;" d="M 125.539062 401.917969 L 125.539062 399.179688 "/>
<path style="fill:none;stroke-width:1.066978;stroke-linecap:butt;stroke-linejoin:round;stroke:rgb(99.215686%,96.470588%,89.019608%);stroke-opacity:1;stroke-miterlimit:10;" d="M 228.585938 401.917969 L 228.585938 399.179688 "/>
<path style="fill:none;stroke-width:1.066978;stroke-linecap:butt;stroke-linejoin:round;stroke:rgb(99.215686%,96.470588%,89.019608%);stroke-opacity:1;stroke-miterlimit:10;" d="M 331.632812 401.917969 L 331.632812 399.179688 "/>
<path style="fill:none;stroke-width:1.066978;stroke-linecap:butt;stroke-linejoin:round;stroke:rgb(99.215686%,96.470588%,89.019608%);stroke-opacity:1;stroke-miterlimit:10;" d="M 434.679688 401.917969 L 434.679688 399.179688 "/>
<path style=" stroke:none;fill-rule:evenodd;fill:rgb(99.215686%,96.470588%,89.019608%);fill-opacity:1;" d="M 130.109375 419.75 L 121.367188 419.75 L 121.367188 418.324219 L 125.824219 412.414062 L 126.019531 412.148438 L 126.203125 411.890625 L 126.375 411.640625 L 126.53125 411.402344 L 126.679688 411.175781 L 126.8125 410.957031 L 126.933594 410.746094 L 127.042969 410.546875 L 127.136719 410.359375 L 127.222656 410.179688 L 127.296875 410.003906 L 127.363281 409.824219 L 127.425781 409.644531 L 127.476562 409.460938 L 127.519531 409.273438 L 127.554688 409.089844 L 127.582031 408.898438 L 127.601562 408.710938 L 127.613281 408.515625 L 127.617188 408.320312 L 127.613281 408.078125 L 127.597656 407.84375 L 127.566406 407.617188 L 127.527344 407.402344 L 127.472656 407.195312 L 127.410156 406.996094 L 127.335938 406.808594 L 127.246094 406.628906 L 127.148438 406.460938 L 127.039062 406.300781 L 126.917969 406.15625 L 126.792969 406.023438 L 126.65625 405.90625 L 126.515625 405.808594 L 126.367188 405.722656 L 126.210938 405.652344 L 126.046875 405.597656 L 125.878906 405.558594 L 125.699219 405.535156 L 125.511719 405.527344 L 125.28125 405.539062 L 125.058594 405.5625 L 124.847656 405.601562 L 124.644531 405.660156 L 124.457031 405.734375 L 124.277344 405.828125 L 124.105469 405.933594 L 123.949219 406.058594 L 123.800781 406.199219 L 123.664062 406.355469 L 123.542969 406.527344 L 123.433594 406.710938 L 123.335938 406.910156 L 123.253906 407.125 L 123.183594 407.355469 L 123.125 407.597656 L 123.078125 407.855469 L 123.046875 408.128906 L 123.027344 408.417969 L 123.019531 408.71875 L 121.121094 408.71875 L 121.132812 408.296875 L 121.167969 407.890625 L 121.226562 407.5 L 121.308594 407.125 L 121.414062 406.765625 L 121.546875 406.425781 L 121.699219 406.101562 L 121.875 405.792969 L 122.078125 405.503906 L 122.300781 405.226562 L 122.546875 404.976562 L 122.808594 404.75 L 123.085938 404.546875 L 123.382812 404.375 L 123.695312 404.230469 L 124.023438 404.109375 L 124.371094 404.015625 L 124.734375 403.949219 L 125.117188 403.910156 L 125.511719 403.894531 L 125.878906 403.90625 L 126.230469 403.941406 L 126.5625 404 L 126.882812 404.078125 L 127.183594 404.183594 L 127.46875 404.308594 L 127.742188 404.460938 L 127.996094 404.632812 L 128.234375 404.828125 L 128.457031 405.046875 L 128.660156 405.28125 L 128.84375 405.53125 L 129.003906 405.796875 L 129.144531 406.078125 L 129.261719 406.375 L 129.359375 406.6875 L 129.433594 407.011719 L 129.488281 407.355469 L 129.519531 407.710938 L 129.53125 408.085938 L 129.507812 408.558594 L 129.433594 409.046875 L 129.3125 409.554688 L 129.144531 410.078125 L 128.925781 410.617188 L 128.660156 411.175781 L 128.347656 411.75 L 127.984375 412.339844 L 127.574219 412.949219 L 127.113281 413.574219 L 123.632812 418.128906 L 130.109375 418.128906 Z M 130.109375 419.75 "/>
<path style=" stroke:none;fill-rule:evenodd;fill:rgb(99.215686%,96.470588%,89.019608%);fill-opacity:1;" d="M 226.839844 410.964844 L 228.054688 410.964844 L 228.285156 410.957031 L 228.5 410.9375 L 228.707031 410.898438 L 228.90625 410.847656 L 229.089844 410.785156 L 229.265625 410.707031 L 229.429688 410.613281 L 229.585938 410.503906 L 229.726562 410.382812 L 229.859375 410.246094 L 229.980469 410.09375 L 230.085938 409.9375 L 230.183594 409.765625 L 230.265625 409.585938 L 230.335938 409.394531 L 230.390625 409.191406 L 230.4375 408.980469 L 230.46875 408.757812 L 230.488281 408.523438 L 230.492188 408.277344 L 230.472656 407.757812 L 230.40625 407.289062 L 230.300781 406.875 L 230.152344 406.519531 L 229.960938 406.214844 L 229.726562 405.96875 L 229.449219 405.777344 L 229.132812 405.640625 L 228.769531 405.554688 L 228.367188 405.527344 L 228.167969 405.535156 L 227.976562 405.558594 L 227.792969 405.59375 L 227.621094 405.648438 L 227.457031 405.714844 L 227.300781 405.796875 L 227.152344 405.890625 L 227.015625 406.003906 L 226.886719 406.128906 L 226.765625 406.269531 L 226.65625 406.421875 L 226.558594 406.585938 L 226.46875 406.757812 L 226.394531 406.9375 L 226.332031 407.125 L 226.277344 407.324219 L 226.238281 407.535156 L 226.207031 407.75 L 226.191406 407.976562 L 226.183594 408.214844 L 224.292969 408.214844 L 224.304688 407.84375 L 224.339844 407.488281 L 224.398438 407.144531 L 224.476562 406.816406 L 224.578125 406.5 L 224.703125 406.199219 L 224.851562 405.910156 L 225.023438 405.632812 L 225.21875 405.371094 L 225.433594 405.121094 L 225.667969 404.886719 L 225.917969 404.679688 L 226.179688 404.496094 L 226.453125 404.335938 L 226.742188 404.203125 L 227.042969 404.09375 L 227.351562 404.007812 L 227.679688 403.945312 L 228.015625 403.910156 L 228.367188 403.894531 L 228.726562 403.90625 L 229.074219 403.941406 L 229.40625 404 L 229.722656 404.082031 L 230.023438 404.1875 L 230.308594 404.3125 L 230.578125 404.464844 L 230.835938 404.636719 L 231.074219 404.835938 L 231.296875 405.054688 L 231.503906 405.296875 L 231.6875 405.554688 L 231.851562 405.832031 L 231.992188 406.128906 L 232.113281 406.449219 L 232.210938 406.785156 L 232.285156 407.140625 L 232.339844 407.515625 L 232.371094 407.910156 L 232.382812 408.320312 L 232.378906 408.539062 L 232.359375 408.75 L 232.332031 408.960938 L 232.292969 409.167969 L 232.242188 409.371094 L 232.179688 409.574219 L 232.105469 409.773438 L 232.019531 409.96875 L 231.921875 410.160156 L 231.8125 410.351562 L 231.699219 410.535156 L 231.578125 410.707031 L 231.449219 410.867188 L 231.3125 411.019531 L 231.167969 411.164062 L 231.019531 411.296875 L 230.863281 411.417969 L 230.699219 411.53125 L 230.53125 411.632812 L 230.351562 411.726562 L 230.773438 411.910156 L 231.148438 412.136719 L 231.480469 412.398438 L 231.769531 412.707031 L 232.011719 413.050781 L 232.210938 413.4375 L 232.367188 413.863281 L 232.476562 414.332031 L 232.542969 414.839844 L 232.566406 415.390625 L 232.554688 415.800781 L 232.519531 416.195312 L 232.460938 416.570312 L 232.378906 416.929688 L 232.273438 417.273438 L 232.144531 417.597656 L 231.992188 417.90625 L 231.816406 418.199219 L 231.617188 418.472656 L 231.394531 418.730469 L 231.15625 418.964844 L 230.902344 419.175781 L 230.632812 419.359375 L 230.351562 419.523438 L 230.054688 419.65625 L 229.746094 419.769531 L 229.417969 419.855469 L 229.078125 419.917969 L 228.722656 419.953125 L 228.355469 419.964844 L 227.992188 419.953125 L 227.640625 419.917969 L 227.304688 419.859375 L 226.980469 419.777344 L 226.675781 419.671875 L 226.378906 419.542969 L 226.101562 419.394531 L 225.835938 419.21875 L 225.585938 419.019531 L 225.347656 418.796875 L 225.132812 418.550781 L 224.9375 418.289062 L 224.765625 418.015625 L 224.617188 417.722656 L 224.492188 417.414062 L 224.390625 417.085938 L 224.3125 416.746094 L 224.253906 416.390625 L 224.21875 416.015625 L 224.207031 415.625 L 226.109375 415.625 L 226.117188 415.871094 L 226.132812 416.105469 L 226.164062 416.328125 L 226.207031 416.542969 L 226.261719 416.746094 L 226.328125 416.941406 L 226.40625 417.125 L 226.496094 417.296875 L 226.597656 417.460938 L 226.710938 417.613281 L 226.835938 417.753906 L 226.96875 417.875 L 227.113281 417.988281 L 227.261719 418.082031 L 227.421875 418.160156 L 227.59375 418.226562 L 227.769531 418.277344 L 227.957031 418.316406 L 228.152344 418.335938 L 228.355469 418.34375 L 228.5625 418.335938 L 228.761719 418.316406 L 228.953125 418.28125 L 229.136719 418.230469 L 229.308594 418.164062 L 229.472656 418.085938 L 229.628906 417.992188 L 229.773438 417.882812 L 229.914062 417.761719 L 230.042969 417.625 L 230.164062 417.472656 L 230.269531 417.304688 L 230.363281 417.125 L 230.449219 416.929688 L 230.515625 416.71875 L 230.574219 416.488281 L 230.617188 416.25 L 230.652344 415.992188 L 230.667969 415.71875 L 230.675781 415.433594 L 230.648438 414.890625 L 230.566406 414.410156 L 230.433594 413.980469 L 230.246094 413.609375 L 230 413.296875 L 229.707031 413.042969 L 229.355469 412.84375 L 228.949219 412.699219 L 228.492188 412.613281 L 227.980469 412.585938 L 226.839844 412.585938 Z M 226.839844 410.964844 "/>
<path style=" stroke:none;fill-rule:evenodd;fill:rgb(99.215686%,96.470588%,89.019608%);fill-opacity:1;" d="M 334.65625 414.5 L 336.398438 414.5 L 336.398438 416.121094 L 334.65625 416.121094 L 334.65625 419.75 L 332.753906 419.75 L 332.753906 416.121094 L 326.847656 416.121094 L 326.847656 414.949219 L 332.660156 404.109375 L 334.65625 404.109375 Z M 328.953125 414.5 L 332.753906 414.5 L 332.753906 407.066406 Z M 328.953125 414.5 "/>
<path style=" stroke:none;fill-rule:evenodd;fill:rgb(99.215686%,96.470588%,89.019608%);fill-opacity:1;" d="M 431.277344 411.910156 L 431.957031 404.109375 L 438.753906 404.109375 L 438.753906 405.949219 L 433.554688 405.949219 L 433.191406 410.210938 L 433.386719 410.082031 L 433.582031 409.96875 L 433.785156 409.867188 L 433.988281 409.78125 L 434.195312 409.703125 L 434.40625 409.644531 L 434.617188 409.597656 L 434.832031 409.5625 L 435.050781 409.542969 L 435.273438 409.535156 L 435.632812 409.550781 L 435.972656 409.59375 L 436.300781 409.664062 L 436.609375 409.761719 L 436.90625 409.890625 L 437.183594 410.046875 L 437.445312 410.230469 L 437.695312 410.441406 L 437.925781 410.683594 L 438.144531 410.953125 L 438.339844 411.246094 L 438.519531 411.558594 L 438.675781 411.890625 L 438.808594 412.246094 L 438.925781 412.617188 L 439.019531 413.007812 L 439.089844 413.417969 L 439.144531 413.847656 L 439.175781 414.296875 L 439.183594 414.765625 L 439.171875 415.242188 L 439.140625 415.695312 L 439.082031 416.128906 L 439.003906 416.542969 L 438.898438 416.933594 L 438.773438 417.304688 L 438.625 417.65625 L 438.457031 417.984375 L 438.261719 418.292969 L 438.046875 418.582031 L 437.8125 418.84375 L 437.5625 419.078125 L 437.292969 419.289062 L 437.007812 419.46875 L 436.707031 419.621094 L 436.386719 419.746094 L 436.050781 419.839844 L 435.699219 419.910156 L 435.328125 419.953125 L 434.941406 419.964844 L 434.597656 419.953125 L 434.261719 419.921875 L 433.945312 419.863281 L 433.636719 419.78125 L 433.34375 419.679688 L 433.0625 419.550781 L 432.796875 419.402344 L 432.542969 419.230469 L 432.300781 419.035156 L 432.074219 418.816406 L 431.863281 418.578125 L 431.667969 418.320312 L 431.496094 418.046875 L 431.339844 417.757812 L 431.203125 417.449219 L 431.085938 417.121094 L 430.988281 416.777344 L 430.90625 416.414062 L 430.847656 416.035156 L 430.804688 415.636719 L 432.589844 415.636719 L 432.625 415.898438 L 432.671875 416.148438 L 432.726562 416.382812 L 432.789062 416.605469 L 432.859375 416.816406 L 432.941406 417.011719 L 433.03125 417.195312 L 433.128906 417.367188 L 433.234375 417.523438 L 433.351562 417.667969 L 433.476562 417.796875 L 433.609375 417.910156 L 433.753906 418.011719 L 433.898438 418.101562 L 434.054688 418.175781 L 434.21875 418.234375 L 434.386719 418.285156 L 434.566406 418.316406 L 434.75 418.335938 L 434.941406 418.34375 L 435.15625 418.335938 L 435.363281 418.304688 L 435.5625 418.257812 L 435.75 418.191406 L 435.925781 418.105469 L 436.09375 418 L 436.253906 417.875 L 436.402344 417.734375 L 436.542969 417.570312 L 436.671875 417.386719 L 436.789062 417.1875 L 436.894531 416.976562 L 436.988281 416.75 L 437.070312 416.507812 L 437.136719 416.253906 L 437.195312 415.988281 L 437.238281 415.707031 L 437.269531 415.414062 L 437.289062 415.109375 L 437.292969 414.789062 L 437.289062 414.488281 L 437.265625 414.195312 L 437.234375 413.917969 L 437.1875 413.652344 L 437.125 413.394531 L 437.050781 413.148438 L 436.960938 412.917969 L 436.859375 412.695312 L 436.746094 412.484375 L 436.617188 412.285156 L 436.480469 412.101562 L 436.332031 411.9375 L 436.175781 411.792969 L 436.007812 411.667969 L 435.832031 411.5625 L 435.648438 411.472656 L 435.453125 411.40625 L 435.25 411.359375 L 435.035156 411.328125 L 434.8125 411.320312 L 434.628906 411.324219 L 434.449219 411.339844 L 434.28125 411.363281 L 434.117188 411.398438 L 433.960938 411.441406 L 433.8125 411.496094 L 433.671875 411.5625 L 433.539062 411.636719 L 433.414062 411.71875 L 433.296875 411.8125 L 432.792969 412.316406 Z M 431.277344 411.910156 "/>
<path style=" stroke:none;fill-rule:evenodd;fill:rgb(99.215686%,96.470588%,89.019608%);fill-opacity:1;" d="M 276.550781 439.484375 L 278.3125 431.203125 L 280.195312 431.203125 L 277.347656 442.828125 L 275.832031 442.828125 L 273.566406 434.511719 L 271.351562 442.828125 L 269.828125 442.828125 L 267.003906 431.203125 L 268.871094 431.203125 L 270.675781 439.28125 L 272.835938 431.203125 L 274.339844 431.203125 Z M 276.550781 439.484375 "/>
<path style=" stroke:none;fill-rule:evenodd;fill:rgb(99.215686%,96.470588%,89.019608%);fill-opacity:1;" d="M 284.671875 428.390625 L 284.671875 431.203125 L 286.425781 431.203125 L 286.425781 432.738281 L 284.671875 432.738281 L 284.671875 439.949219 L 284.675781 440.082031 L 284.683594 440.210938 L 284.691406 440.328125 L 284.710938 440.445312 L 284.730469 440.550781 L 284.753906 440.652344 L 284.785156 440.746094 L 284.816406 440.835938 L 284.855469 440.914062 L 284.898438 440.988281 L 284.945312 441.058594 L 285 441.117188 L 285.0625 441.171875 L 285.128906 441.214844 L 285.203125 441.253906 L 285.285156 441.285156 L 285.371094 441.3125 L 285.464844 441.328125 L 285.566406 441.339844 L 285.671875 441.34375 L 285.746094 441.34375 L 285.824219 441.339844 L 285.972656 441.324219 L 286.050781 441.3125 L 286.128906 441.296875 L 286.203125 441.28125 L 286.28125 441.261719 L 286.359375 441.238281 L 286.433594 441.214844 L 286.414062 442.828125 L 286.285156 442.867188 L 286.152344 442.902344 L 286.023438 442.9375 L 285.890625 442.964844 L 285.761719 442.988281 L 285.628906 443.007812 L 285.496094 443.023438 L 285.363281 443.03125 L 285.226562 443.039062 L 285.09375 443.042969 L 284.871094 443.03125 L 284.664062 443.007812 L 284.464844 442.96875 L 284.277344 442.914062 L 284.097656 442.839844 L 283.933594 442.75 L 283.777344 442.644531 L 283.632812 442.527344 L 283.496094 442.386719 L 283.375 442.234375 L 283.261719 442.066406 L 283.160156 441.886719 L 283.070312 441.691406 L 282.996094 441.484375 L 282.929688 441.261719 L 282.875 441.027344 L 282.835938 440.78125 L 282.804688 440.519531 L 282.789062 440.246094 L 282.78125 439.957031 L 282.78125 432.738281 L 281.011719 432.738281 L 281.011719 431.203125 L 282.78125 431.203125 L 282.78125 428.390625 Z M 284.671875 428.390625 "/>
<path style=" stroke:none;fill-rule:evenodd;fill:rgb(99.215686%,96.470588%,89.019608%);fill-opacity:1;" d="M 9.496094 218.238281 L 10.570312 218.195312 L 10.328125 217.976562 L 10.105469 217.742188 L 9.914062 217.496094 L 9.746094 217.238281 L 9.605469 216.964844 L 9.488281 216.675781 L 9.398438 216.375 L 9.332031 216.0625 L 9.296875 215.734375 L 9.28125 215.390625 L 9.300781 215.015625 L 9.351562 214.660156 L 9.433594 214.332031 L 9.550781 214.023438 L 9.703125 213.742188 L 9.890625 213.480469 L 10.109375 213.242188 L 10.363281 213.03125 L 10.648438 212.839844 L 10.96875 212.675781 L 10.648438 212.445312 L 10.363281 212.203125 L 10.109375 211.9375 L 9.890625 211.660156 L 9.703125 211.363281 L 9.550781 211.050781 L 9.433594 210.71875 L 9.351562 210.371094 L 9.300781 210.003906 L 9.28125 209.625 L 9.320312 209.011719 L 9.441406 208.464844 L 9.644531 207.980469 L 9.921875 207.554688 L 10.285156 207.195312 L 10.726562 206.898438 L 11.246094 206.664062 L 11.847656 206.492188 L 12.527344 206.382812 L 13.289062 206.335938 L 21.121094 206.335938 L 21.121094 208.226562 L 13.472656 208.226562 L 13.226562 208.230469 L 12.992188 208.246094 L 12.769531 208.265625 L 12.5625 208.300781 L 12.367188 208.339844 L 12.1875 208.390625 L 12.019531 208.449219 L 11.863281 208.515625 L 11.722656 208.59375 L 11.589844 208.679688 L 11.472656 208.773438 L 11.367188 208.882812 L 11.273438 209.003906 L 11.191406 209.140625 L 11.125 209.285156 L 11.070312 209.445312 L 11.023438 209.613281 L 10.992188 209.796875 L 10.976562 209.996094 L 10.96875 210.203125 L 10.976562 210.371094 L 10.996094 210.535156 L 11.027344 210.691406 L 11.074219 210.839844 L 11.136719 210.980469 L 11.207031 211.117188 L 11.296875 211.25 L 11.394531 211.371094 L 11.507812 211.488281 L 11.632812 211.601562 L 11.773438 211.703125 L 11.914062 211.796875 L 12.066406 211.882812 L 12.226562 211.957031 L 12.390625 212.023438 L 12.566406 212.082031 L 12.746094 212.128906 L 12.933594 212.171875 L 13.128906 212.203125 L 13.332031 212.222656 L 21.121094 212.222656 L 21.121094 214.136719 L 13.386719 214.136719 L 12.925781 214.160156 L 12.515625 214.222656 L 12.152344 214.324219 L 11.839844 214.464844 L 11.574219 214.644531 L 11.355469 214.859375 L 11.1875 215.113281 L 11.066406 215.402344 L 10.992188 215.734375 L 10.96875 216.101562 L 10.984375 216.378906 L 11.027344 216.644531 L 11.097656 216.886719 L 11.199219 217.117188 L 11.328125 217.328125 L 11.488281 217.523438 L 11.675781 217.699219 L 11.890625 217.859375 L 12.132812 218.003906 L 12.40625 218.132812 L 21.121094 218.132812 L 21.121094 220.023438 L 9.496094 220.023438 Z M 9.496094 218.238281 "/>
<path style=" stroke:none;fill-rule:evenodd;fill:rgb(99.215686%,96.470588%,89.019608%);fill-opacity:1;" d="M 15.867188 195.078125 L 16.40625 195.089844 L 16.914062 195.117188 L 17.398438 195.167969 L 17.851562 195.238281 L 18.277344 195.328125 L 18.671875 195.4375 L 19.042969 195.566406 L 19.382812 195.71875 L 19.695312 195.886719 L 19.980469 196.078125 L 20.238281 196.285156 L 20.46875 196.507812 L 20.671875 196.746094 L 20.847656 197 L 20.996094 197.273438 L 21.117188 197.5625 L 21.214844 197.867188 L 21.28125 198.1875 L 21.320312 198.527344 L 21.335938 198.882812 L 21.320312 199.222656 L 21.28125 199.550781 L 21.214844 199.859375 L 21.125 200.152344 L 21.003906 200.429688 L 20.859375 200.691406 L 20.6875 200.9375 L 20.488281 201.167969 L 20.265625 201.378906 L 20.011719 201.578125 L 25.589844 201.578125 L 25.589844 203.46875 L 9.496094 203.46875 L 9.496094 201.75 L 10.785156 201.652344 L 10.5 201.453125 L 10.246094 201.238281 L 10.019531 201.003906 L 9.824219 200.753906 L 9.65625 200.488281 L 9.523438 200.207031 L 9.417969 199.910156 L 9.34375 199.59375 L 9.296875 199.261719 L 9.28125 198.914062 L 9.296875 198.539062 L 9.335938 198.1875 L 9.402344 197.851562 L 9.496094 197.539062 L 9.613281 197.242188 L 9.761719 196.96875 L 9.933594 196.710938 L 10.132812 196.472656 L 10.359375 196.253906 L 10.613281 196.054688 L 10.894531 195.875 L 11.199219 195.714844 L 11.53125 195.570312 L 11.890625 195.445312 L 12.277344 195.339844 L 12.6875 195.25 L 13.125 195.179688 L 13.589844 195.128906 L 14.082031 195.09375 L 14.597656 195.078125 Z M 14.78125 196.96875 L 14.402344 196.976562 L 14.042969 196.992188 L 13.703125 197.023438 L 13.382812 197.066406 L 13.085938 197.121094 L 12.808594 197.1875 L 12.550781 197.265625 L 12.3125 197.355469 L 12.097656 197.457031 L 11.902344 197.570312 L 11.726562 197.699219 L 11.566406 197.839844 L 11.425781 197.996094 L 11.304688 198.167969 L 11.203125 198.355469 L 11.117188 198.554688 L 11.054688 198.769531 L 11.007812 199 L 10.976562 199.246094 L 10.96875 199.503906 L 10.980469 199.769531 L 11.023438 200.023438 L 11.089844 200.265625 L 11.1875 200.492188 L 11.308594 200.703125 L 11.460938 200.90625 L 11.636719 201.09375 L 11.84375 201.269531 L 12.074219 201.429688 L 12.332031 201.578125 L 18.378906 201.578125 L 18.632812 201.429688 L 18.859375 201.269531 L 19.058594 201.09375 L 19.234375 200.90625 L 19.378906 200.703125 L 19.5 200.488281 L 19.59375 200.257812 L 19.660156 200.011719 L 19.699219 199.753906 L 19.710938 199.484375 L 19.703125 199.230469 L 19.675781 198.996094 L 19.628906 198.769531 L 19.566406 198.5625 L 19.480469 198.367188 L 19.378906 198.183594 L 19.261719 198.015625 L 19.121094 197.859375 L 18.964844 197.71875 L 18.789062 197.59375 L 18.59375 197.476562 L 18.375 197.371094 L 18.140625 197.277344 L 17.886719 197.199219 L 17.609375 197.128906 L 17.316406 197.074219 L 17 197.03125 L 16.667969 196.996094 L 16.316406 196.976562 L 15.941406 196.96875 Z M 14.78125 196.96875 "/>
<path style=" stroke:none;fill-rule:evenodd;fill:rgb(99.215686%,96.470588%,89.019608%);fill-opacity:1;" d="M 14.78125 193.003906 L 14.25 192.996094 L 13.75 192.964844 L 13.269531 192.917969 L 12.820312 192.847656 L 12.398438 192.757812 L 12 192.648438 L 11.628906 192.519531 L 11.285156 192.371094 L 10.96875 192.203125 L 10.679688 192.015625 L 10.414062 191.808594 L 10.175781 191.585938 L 9.964844 191.339844 L 9.785156 191.082031 L 9.632812 190.800781 L 9.503906 190.503906 L 9.40625 190.1875 L 9.339844 189.851562 L 9.296875 189.5 L 9.28125 189.128906 L 9.296875 188.78125 L 9.34375 188.453125 L 9.417969 188.140625 L 9.523438 187.84375 L 9.660156 187.566406 L 9.828125 187.304688 L 10.023438 187.0625 L 10.25 186.835938 L 10.507812 186.625 L 10.796875 186.429688 L 9.496094 186.335938 L 9.496094 184.617188 L 21.226562 184.617188 L 21.648438 184.625 L 22.050781 184.660156 L 22.433594 184.714844 L 22.792969 184.792969 L 23.132812 184.890625 L 23.453125 185.015625 L 23.753906 185.15625 L 24.035156 185.324219 L 24.296875 185.511719 L 24.535156 185.722656 L 24.757812 185.953125 L 24.953125 186.199219 L 25.128906 186.464844 L 25.277344 186.746094 L 25.40625 187.046875 L 25.511719 187.363281 L 25.59375 187.699219 L 25.648438 188.050781 L 25.683594 188.417969 L 25.695312 188.804688 L 25.691406 188.980469 L 25.679688 189.15625 L 25.65625 189.339844 L 25.628906 189.527344 L 25.589844 189.71875 L 25.542969 189.914062 L 25.484375 190.113281 L 25.421875 190.316406 L 25.347656 190.527344 L 25.265625 190.738281 L 25.179688 190.945312 L 25.089844 191.144531 L 24.996094 191.328125 L 24.898438 191.503906 L 24.796875 191.671875 L 24.691406 191.824219 L 24.578125 191.96875 L 24.464844 192.101562 L 24.347656 192.226562 L 24.222656 192.339844 L 22.914062 191.566406 L 23.132812 191.328125 L 23.332031 191.082031 L 23.503906 190.835938 L 23.65625 190.582031 L 23.785156 190.324219 L 23.886719 190.058594 L 23.96875 189.789062 L 24.027344 189.515625 L 24.0625 189.238281 L 24.074219 188.957031 L 24.046875 188.503906 L 23.96875 188.097656 L 23.839844 187.738281 L 23.660156 187.425781 L 23.425781 187.160156 L 23.140625 186.9375 L 22.804688 186.761719 L 22.417969 186.636719 L 21.976562 186.554688 L 21.484375 186.515625 L 19.96875 186.515625 L 20.230469 186.710938 L 20.460938 186.917969 L 20.667969 187.140625 L 20.84375 187.378906 L 20.992188 187.632812 L 21.117188 187.902344 L 21.210938 188.1875 L 21.28125 188.488281 L 21.320312 188.804688 L 21.335938 189.136719 L 21.320312 189.492188 L 21.28125 189.828125 L 21.214844 190.148438 L 21.117188 190.453125 L 20.996094 190.742188 L 20.847656 191.015625 L 20.671875 191.273438 L 20.46875 191.515625 L 20.238281 191.742188 L 19.980469 191.953125 L 19.695312 192.144531 L 19.386719 192.316406 L 19.054688 192.472656 L 18.699219 192.605469 L 18.320312 192.71875 L 17.917969 192.816406 L 17.492188 192.890625 L 17.042969 192.949219 L 16.570312 192.988281 L 16.070312 193.003906 Z M 15.867188 191.105469 L 16.246094 191.097656 L 16.609375 191.082031 L 16.949219 191.050781 L 17.265625 191.011719 L 17.5625 190.960938 L 17.84375 190.898438 L 18.097656 190.824219 L 18.335938 190.738281 L 18.550781 190.644531 L 18.746094 190.535156 L 18.917969 190.410156 L 19.074219 190.273438 L 19.210938 190.121094 L 19.332031 189.953125 L 19.429688 189.773438 L 19.511719 189.574219 L 19.578125 189.363281 L 19.621094 189.140625 L 19.648438 188.898438 L 19.660156 188.644531 L 19.644531 188.367188 L 19.601562 188.105469 L 19.527344 187.855469 L 19.425781 187.621094 L 19.296875 187.402344 L 19.136719 187.199219 L 18.949219 187.007812 L 18.730469 186.828125 L 18.484375 186.664062 L 18.207031 186.515625 L 12.398438 186.515625 L 12.125 186.671875 L 11.882812 186.839844 L 11.667969 187.019531 L 11.484375 187.210938 L 11.324219 187.414062 L 11.199219 187.628906 L 11.097656 187.859375 L 11.027344 188.101562 L 10.984375 188.355469 L 10.96875 188.621094 L 10.976562 188.878906 L 11.003906 189.117188 L 11.050781 189.34375 L 11.117188 189.554688 L 11.199219 189.75 L 11.300781 189.933594 L 11.421875 190.097656 L 11.558594 190.25 L 11.71875 190.390625 L 11.890625 190.511719 L 12.085938 190.625 L 12.296875 190.722656 L 12.53125 190.808594 L 12.78125 190.886719 L 13.050781 190.949219 L 13.34375 191.003906 L 13.65625 191.046875 L 13.984375 191.078125 L 14.335938 191.097656 L 14.707031 191.105469 Z M 15.867188 191.105469 "/>
</g>
</svg>
